%TF.GenerationSoftware,KiCad,Pcbnew,8.0.5-8.0.5-0~ubuntu24.04.1*%
%TF.CreationDate,2024-10-19T16:32:38+02:00*%
%TF.ProjectId,BmsMonitor,426d734d-6f6e-4697-946f-722e6b696361,rev?*%
%TF.SameCoordinates,Original*%
%TF.FileFunction,Copper,L1,Top*%
%TF.FilePolarity,Positive*%
%FSLAX46Y46*%
G04 Gerber Fmt 4.6, Leading zero omitted, Abs format (unit mm)*
G04 Created by KiCad (PCBNEW 8.0.5-8.0.5-0~ubuntu24.04.1) date 2024-10-19 16:32:38*
%MOMM*%
%LPD*%
G01*
G04 APERTURE LIST*
G04 Aperture macros list*
%AMFreePoly0*
4,1,5,1.500000,-1.000000,-1.500000,-1.000000,-1.500000,1.000000,1.500000,1.000000,1.500000,-1.000000,1.500000,-1.000000,$1*%
G04 Aperture macros list end*
%TA.AperFunction,NonConductor*%
%ADD10C,0.200000*%
%TD*%
%TA.AperFunction,ComponentPad*%
%ADD11R,1.700000X1.700000*%
%TD*%
%TA.AperFunction,ComponentPad*%
%ADD12O,1.700000X1.700000*%
%TD*%
%TA.AperFunction,ComponentPad*%
%ADD13FreePoly0,90.000000*%
%TD*%
%TA.AperFunction,ComponentPad*%
%ADD14C,1.600000*%
%TD*%
%TA.AperFunction,ComponentPad*%
%ADD15R,3.000000X3.000000*%
%TD*%
%TA.AperFunction,ComponentPad*%
%ADD16C,3.000000*%
%TD*%
%TA.AperFunction,ComponentPad*%
%ADD17R,1.200000X2.000000*%
%TD*%
%TA.AperFunction,ComponentPad*%
%ADD18O,1.200000X2.000000*%
%TD*%
%TA.AperFunction,ComponentPad*%
%ADD19C,2.000000*%
%TD*%
%TA.AperFunction,ViaPad*%
%ADD20C,0.600000*%
%TD*%
%TA.AperFunction,ViaPad*%
%ADD21C,1.000000*%
%TD*%
%TA.AperFunction,Conductor*%
%ADD22C,0.400000*%
%TD*%
%TA.AperFunction,Conductor*%
%ADD23C,1.000000*%
%TD*%
%TA.AperFunction,Conductor*%
%ADD24C,0.000000*%
%TD*%
%TA.AperFunction,Conductor*%
%ADD25C,0.200000*%
%TD*%
G04 APERTURE END LIST*
D10*
X257500000Y-117000000D02*
X257500000Y-117500000D01*
X257500000Y-117000000D01*
D11*
%TO.P,J1,1,Pin_1*%
%TO.N,SD_CS*%
X99822000Y-87376000D03*
D12*
%TO.P,J1,2,Pin_2*%
%TO.N,LCD_MOSI*%
X99822000Y-89916000D03*
%TO.P,J1,3,Pin_3*%
%TO.N,LCD_MISO*%
X99822000Y-92456000D03*
%TO.P,J1,4,Pin_4*%
%TO.N,LCD_CLK*%
X99822000Y-94996000D03*
%TD*%
D13*
%TO.P,U1,1,In+*%
%TO.N,+12V*%
X102997000Y-102666800D03*
%TO.P,U1,2*%
X105562400Y-102666800D03*
%TO.P,U1,3*%
%TO.N,GND*%
X113131600Y-102692200D03*
%TO.P,U1,4,In-*%
X115722400Y-102666800D03*
%TO.P,U1,5,Out-*%
X115747800Y-79832200D03*
%TO.P,U1,6*%
X113157000Y-79857600D03*
%TO.P,U1,7*%
%TO.N,+5V*%
X105587800Y-79832200D03*
%TO.P,U1,8,Out+*%
X103022400Y-79832200D03*
%TD*%
D14*
%TO.P,R2,1*%
%TO.N,+3V3*%
X177769600Y-68580000D03*
%TO.P,R2,2*%
%TO.N,LCD_MISO*%
X172689600Y-68580000D03*
%TD*%
D11*
%TO.P,U5,1,+5V*%
%TO.N,+5V*%
X194183000Y-74820000D03*
D12*
%TO.P,U5,2,GND*%
%TO.N,GND*%
X194183000Y-77360000D03*
%TO.P,U5,3,LCD_CS*%
%TO.N,LCD_CS*%
X194183000Y-79900000D03*
%TO.P,U5,4,LCD_RESET*%
%TO.N,LCD_RESET*%
X194183000Y-82440000D03*
%TO.P,U5,5,LCD_DC/RS*%
%TO.N,LCD_DC{slash}RS*%
X194183000Y-84980000D03*
%TO.P,U5,6,LCD_MOSI*%
%TO.N,LCD_MOSI*%
X194183000Y-87520000D03*
%TO.P,U5,7,LCD_CLK*%
%TO.N,LCD_CLK*%
X194183000Y-90060000D03*
%TO.P,U5,8,Backlight*%
%TO.N,Backlight*%
X194183000Y-92600000D03*
%TO.P,U5,9,LCD_MISO*%
%TO.N,LCD_MISO*%
X194183000Y-95140000D03*
%TO.P,U5,10,T_CLK*%
%TO.N,T_CLK*%
X194183000Y-97680000D03*
%TO.P,U5,11,T_CS*%
%TO.N,T_CS*%
X194183000Y-100220000D03*
%TO.P,U5,12,T_DIN*%
%TO.N,T_MOSI*%
X194183000Y-102760000D03*
%TO.P,U5,13,T_DO*%
%TO.N,T_MISO*%
X194183000Y-105300000D03*
%TO.P,U5,14,T_IRQ*%
%TO.N,T_IRQ*%
X194183000Y-107840000D03*
%TD*%
D14*
%TO.P,R6,1*%
%TO.N,+3V3*%
X158140400Y-68402200D03*
%TO.P,R6,2*%
%TO.N,LCD_RESET*%
X163220400Y-68402200D03*
%TD*%
%TO.P,R3,1*%
%TO.N,+3V3*%
X157353000Y-109392800D03*
%TO.P,R3,2*%
%TO.N,T_CS*%
X157353000Y-104312800D03*
%TD*%
D11*
%TO.P,J2,1,Pin_1*%
%TO.N,GND*%
X180314600Y-99034600D03*
D12*
%TO.P,J2,2,Pin_2*%
%TO.N,Net-(J2-Pin_2)*%
X177774600Y-99034600D03*
%TO.P,J2,3,Pin_3*%
%TO.N,Net-(J2-Pin_3)*%
X175234600Y-99034600D03*
%TO.P,J2,4,Pin_4*%
%TO.N,CAN_RX*%
X172694600Y-99034600D03*
%TO.P,J2,5,Pin_5*%
%TO.N,CAN_TX*%
X170154600Y-99034600D03*
%TO.P,J2,6,Pin_6*%
%TO.N,T_IRQ*%
X167614600Y-99034600D03*
%TO.P,J2,7,Pin_7*%
%TO.N,GPIO41*%
X165074600Y-99034600D03*
%TO.P,J2,8,Pin_8*%
%TO.N,GPIO40*%
X162534600Y-99034600D03*
%TO.P,J2,9,Pin_9*%
%TO.N,T_MOSI*%
X159994600Y-99034600D03*
%TO.P,J2,10,Pin_10*%
%TO.N,T_CS*%
X157454600Y-99034600D03*
%TO.P,J2,11,Pin_11*%
%TO.N,T_MISO*%
X154914600Y-99034600D03*
%TO.P,J2,12,Pin_12*%
%TO.N,T_CLK*%
X152374600Y-99034600D03*
%TO.P,J2,13,Pin_13*%
%TO.N,GPIO35*%
X149834600Y-99034600D03*
%TO.P,J2,14,Pin_14*%
%TO.N,GPIO0*%
X147294600Y-99034600D03*
%TO.P,J2,15,Pin_15*%
%TO.N,GPIO45*%
X144754600Y-99034600D03*
%TO.P,J2,16,Pin_16*%
%TO.N,GPIO48*%
X142214600Y-99034600D03*
%TO.P,J2,17,Pin_17*%
%TO.N,GPIO47*%
X139674600Y-99034600D03*
%TO.P,J2,18,Pin_18*%
%TO.N,Backlight*%
X137134600Y-99034600D03*
%TO.P,J2,19,Pin_19*%
%TO.N,unconnected-(J2-Pin_19-Pad19)*%
X134594600Y-99034600D03*
%TO.P,J2,20,Pin_20*%
%TO.N,unconnected-(J2-Pin_20-Pad20)*%
X132054600Y-99034600D03*
%TO.P,J2,21,Pin_21*%
%TO.N,GND*%
X129514600Y-99034600D03*
%TO.P,J2,22,Pin_22*%
X126974600Y-99034600D03*
%TD*%
D15*
%TO.P,J3,1,Pin_1*%
%TO.N,+12V*%
X117830600Y-111353600D03*
D16*
%TO.P,J3,2,Pin_2*%
%TO.N,GND*%
X122910600Y-111353600D03*
%TO.P,J3,3,Pin_3*%
%TO.N,CAN_H*%
X127990600Y-111353600D03*
%TO.P,J3,4,Pin_4*%
%TO.N,CAN_L*%
X133070600Y-111353600D03*
%TD*%
D17*
%TO.P,U2,1,3V3*%
%TO.N,+3V3*%
X180340000Y-73761600D03*
D18*
%TO.P,U2,2,3V3*%
X177800000Y-73761600D03*
%TO.P,U2,3,CHIP_PU*%
%TO.N,RST*%
X175260000Y-73761600D03*
%TO.P,U2,4,GPIO4/ADC1_CH3*%
%TO.N,unconnected-(U2-GPIO4{slash}ADC1_CH3-Pad4)*%
X172720000Y-73761600D03*
%TO.P,U2,5,GPIO5/ADC1_CH4*%
%TO.N,unconnected-(U2-GPIO5{slash}ADC1_CH4-Pad5)*%
X170180000Y-73761600D03*
%TO.P,U2,6,GPIO6/ADC1_CH5*%
%TO.N,LCD_RESET*%
X167640000Y-73761600D03*
%TO.P,U2,7,GPIO7/ADC1_CH6*%
%TO.N,LCD_DC{slash}RS*%
X165100000Y-73761600D03*
%TO.P,U2,8,GPIO15/ADC2_CH4/32K_P*%
%TO.N,unconnected-(U2-GPIO15{slash}ADC2_CH4{slash}32K_P-Pad8)*%
X162560000Y-73761600D03*
%TO.P,U2,9,GPIO16/ADC2_CH5/32K_N*%
%TO.N,unconnected-(U2-GPIO16{slash}ADC2_CH5{slash}32K_N-Pad9)*%
X160020000Y-73761600D03*
%TO.P,U2,10,GPIO17/ADC2_CH6*%
%TO.N,unconnected-(U2-GPIO17{slash}ADC2_CH6-Pad10)*%
X157480000Y-73761600D03*
%TO.P,U2,11,GPIO18/ADC2_CH7*%
%TO.N,unconnected-(U2-GPIO18{slash}ADC2_CH7-Pad11)*%
X154940000Y-73761600D03*
%TO.P,U2,12,GPIO8/ADC1_CH7*%
%TO.N,unconnected-(U2-GPIO8{slash}ADC1_CH7-Pad12)*%
X152400000Y-73761600D03*
%TO.P,U2,13,GPIO3/ADC1_CH2*%
%TO.N,unconnected-(U2-GPIO3{slash}ADC1_CH2-Pad13)*%
X149860000Y-73761600D03*
%TO.P,U2,14,GPIO46*%
%TO.N,unconnected-(U2-GPIO46-Pad14)*%
X147320000Y-73761600D03*
%TO.P,U2,15,GPIO9/ADC1_CH8*%
%TO.N,unconnected-(U2-GPIO9{slash}ADC1_CH8-Pad15)*%
X144780000Y-73761600D03*
%TO.P,U2,16,GPIO10/ADC1_CH9*%
%TO.N,LCD_CS*%
X142240000Y-73761600D03*
%TO.P,U2,17,GPIO11/ADC2_CH0*%
%TO.N,LCD_MOSI*%
X139700000Y-73761600D03*
%TO.P,U2,18,GPIO12/ADC2_CH1*%
%TO.N,LCD_CLK*%
X137160000Y-73761600D03*
%TO.P,U2,19,GPIO13/ADC2_CH2*%
%TO.N,LCD_MISO*%
X134620000Y-73761600D03*
%TO.P,U2,20,GPIO14/ADC2_CH3*%
%TO.N,SD_CS*%
X132082720Y-73757920D03*
%TO.P,U2,21,5V*%
%TO.N,+5V*%
X129542720Y-73757920D03*
%TO.P,U2,22,GND*%
%TO.N,GND*%
X127002720Y-73757920D03*
%TO.P,U2,23,GND*%
X127000000Y-96621600D03*
%TO.P,U2,24,GND*%
X129540000Y-96621600D03*
%TO.P,U2,25,GPIO19/USB_D-*%
%TO.N,unconnected-(J2-Pin_20-Pad20)*%
X132080000Y-96621600D03*
%TO.P,U2,26,GPIO20/USB_D+*%
%TO.N,unconnected-(J2-Pin_19-Pad19)*%
X134620000Y-96621600D03*
%TO.P,U2,27,GPIO21*%
%TO.N,Backlight*%
X137160000Y-96621600D03*
%TO.P,U2,28,GPIO47*%
%TO.N,GPIO47*%
X139700000Y-96621600D03*
%TO.P,U2,29,GPIO48*%
%TO.N,GPIO48*%
X142240000Y-96621600D03*
%TO.P,U2,30,GPIO45*%
%TO.N,GPIO45*%
X144780000Y-96621600D03*
%TO.P,U2,31,GPIO0*%
%TO.N,GPIO0*%
X147320000Y-96621600D03*
%TO.P,U2,32,GPIO35*%
%TO.N,GPIO35*%
X149860000Y-96621600D03*
%TO.P,U2,33,GPIO36*%
%TO.N,T_CLK*%
X152400000Y-96621600D03*
%TO.P,U2,34,GPIO37*%
%TO.N,T_MISO*%
X154940000Y-96621600D03*
%TO.P,U2,35,GPIO38*%
%TO.N,T_CS*%
X157480000Y-96621600D03*
%TO.P,U2,36,GPIO39/MTCK*%
%TO.N,T_MOSI*%
X160020000Y-96621600D03*
%TO.P,U2,37,GPIO40/MTDO*%
%TO.N,GPIO40*%
X162560000Y-96621600D03*
%TO.P,U2,38,GPIO41/MTDI*%
%TO.N,GPIO41*%
X165100000Y-96621600D03*
%TO.P,U2,39,GPIO42/MTMS*%
%TO.N,T_IRQ*%
X167640000Y-96621600D03*
%TO.P,U2,40,GPIO2/ADC1_CH1*%
%TO.N,CAN_TX*%
X170180000Y-96621600D03*
%TO.P,U2,41,GPIO1/ADC1_CH0*%
%TO.N,CAN_RX*%
X172720000Y-96621600D03*
%TO.P,U2,42,GPIO44/U0RXD*%
%TO.N,Net-(J2-Pin_3)*%
X175260000Y-96621600D03*
%TO.P,U2,43,GPIO43/U0TXD*%
%TO.N,Net-(J2-Pin_2)*%
X177800000Y-96621600D03*
%TO.P,U2,44,GND*%
%TO.N,GND*%
X180340000Y-96621600D03*
%TD*%
D14*
%TO.P,R1,1*%
%TO.N,+3V3*%
X147391200Y-68580000D03*
%TO.P,R1,2*%
%TO.N,LCD_CS*%
X142311200Y-68580000D03*
%TD*%
D19*
%TO.P,U3,1,Gnd*%
%TO.N,GND*%
X180198700Y-104482900D03*
%TO.P,U3,2,RX*%
%TO.N,CAN_RX*%
X180147900Y-106997500D03*
%TO.P,U3,3,TX*%
%TO.N,CAN_TX*%
X180122500Y-109562900D03*
%TO.P,U3,4,VCC*%
%TO.N,+5V*%
X180147900Y-112153700D03*
%TO.P,U3,5,CanH*%
%TO.N,CAN_H*%
X161047100Y-109588300D03*
%TO.P,U3,6,CanL*%
%TO.N,CAN_L*%
X161021700Y-106997500D03*
%TD*%
D14*
%TO.P,R4,1*%
%TO.N,+3V3*%
X139014200Y-109392800D03*
%TO.P,R4,2*%
%TO.N,Backlight*%
X139014200Y-104312800D03*
%TD*%
%TO.P,R5,1*%
%TO.N,+3V3*%
X152146000Y-109316600D03*
%TO.P,R5,2*%
%TO.N,T_MISO*%
X152146000Y-104236600D03*
%TD*%
D20*
%TO.N,LCD_MOSI*%
X139649200Y-79349600D03*
%TO.N,LCD_CLK*%
X137160000Y-79679800D03*
X137160000Y-90805000D03*
%TO.N,LCD_MOSI*%
X139700000Y-86614000D03*
D21*
%TO.N,GND*%
X183244000Y-77360000D03*
D20*
%TO.N,T_MISO*%
X189674500Y-97701100D03*
X189674500Y-103759000D03*
%TO.N,+3V3*%
X184480200Y-113919000D03*
X184480200Y-75158600D03*
D21*
%TO.N,+5V*%
X186410600Y-107010200D03*
X186537600Y-72948800D03*
D20*
%TO.N,Backlight*%
X148590000Y-92252800D03*
X148590000Y-88138000D03*
%TO.N,LCD_RESET*%
X167513000Y-69011800D03*
X167513000Y-71348600D03*
%TO.N,LCD_CS*%
X171399200Y-79806800D03*
X164769800Y-79781400D03*
%TD*%
D22*
%TO.N,T_CS*%
X157480000Y-96621600D02*
X157480000Y-94310200D01*
X190517000Y-100220000D02*
X194183000Y-100220000D01*
X157480000Y-94310200D02*
X158826200Y-92964000D01*
X158826200Y-92964000D02*
X183261000Y-92964000D01*
X183261000Y-92964000D02*
X190517000Y-100220000D01*
%TO.N,T_MISO*%
X154940000Y-96621600D02*
X154940000Y-94361000D01*
X154940000Y-94361000D02*
X157353000Y-91948000D01*
X157353000Y-91948000D02*
X183921400Y-91948000D01*
X183921400Y-91948000D02*
X189674500Y-97701100D01*
%TO.N,T_CLK*%
X194183000Y-97680000D02*
X191507600Y-97680000D01*
X155981400Y-90932000D02*
X152400000Y-94513400D01*
X191507600Y-97680000D02*
X184759600Y-90932000D01*
X184759600Y-90932000D02*
X155981400Y-90932000D01*
X152400000Y-94513400D02*
X152400000Y-96621600D01*
%TO.N,LCD_DC{slash}RS*%
X165100000Y-73761600D02*
X165100000Y-77495400D01*
X188315600Y-82423000D02*
X190804800Y-84912200D01*
X165100000Y-77495400D02*
X170027600Y-82423000D01*
X170027600Y-82423000D02*
X188315600Y-82423000D01*
X190804800Y-84912200D02*
X190804800Y-84988400D01*
X190804800Y-84988400D02*
X190813200Y-84980000D01*
X190813200Y-84980000D02*
X194183000Y-84980000D01*
D23*
%TO.N,+5V*%
X128041400Y-69697600D02*
X109372400Y-69697600D01*
X109372400Y-69697600D02*
X105537000Y-73533000D01*
X105537000Y-73533000D02*
X105537000Y-79832200D01*
X105537000Y-79832200D02*
X103022400Y-79832200D01*
%TO.N,+12V*%
X117830600Y-111353600D02*
X110591600Y-111353600D01*
X110591600Y-111353600D02*
X105562400Y-106324400D01*
X105562400Y-106324400D02*
X105562400Y-102666800D01*
X105562400Y-102666800D02*
X102997000Y-102666800D01*
D22*
%TO.N,LCD_MISO*%
X141185900Y-85763100D02*
X134620000Y-79197200D01*
X108000800Y-89738200D02*
X141224000Y-89738200D01*
X141224000Y-89738200D02*
X145161000Y-89738200D01*
X141185900Y-85763100D02*
X141312900Y-85890100D01*
X141312900Y-85890100D02*
X141312900Y-89649300D01*
X141312900Y-89649300D02*
X141224000Y-89738200D01*
X134620000Y-79197200D02*
X134620000Y-73761600D01*
D23*
%TO.N,GND*%
X194183000Y-77360000D02*
X183244000Y-77360000D01*
D22*
%TO.N,LCD_MISO*%
X134620000Y-73761600D02*
X134620000Y-70764400D01*
X134620000Y-70764400D02*
X134594600Y-70739000D01*
X134594600Y-70739000D02*
X138658600Y-66675000D01*
X138658600Y-66675000D02*
X152527000Y-66675000D01*
X151638000Y-66675000D02*
X170784600Y-66675000D01*
X170784600Y-66675000D02*
X172689600Y-68580000D01*
%TO.N,T_MISO*%
X189674500Y-103759000D02*
X190341250Y-104425750D01*
X190341250Y-104425750D02*
X191215500Y-105300000D01*
X191215500Y-105300000D02*
X194183000Y-105300000D01*
%TO.N,T_IRQ*%
X167614600Y-99034600D02*
X167614600Y-103733600D01*
X167614600Y-103733600D02*
X177977800Y-114096800D01*
X177977800Y-114096800D02*
X182676800Y-114096800D01*
X182676800Y-114096800D02*
X188933600Y-107840000D01*
X188933600Y-107840000D02*
X194183000Y-107840000D01*
%TO.N,T_MOSI*%
X160020000Y-96621600D02*
X160020000Y-95478600D01*
X160020000Y-95478600D02*
X161315400Y-94183200D01*
X161315400Y-94183200D02*
X182803800Y-94183200D01*
X182803800Y-94183200D02*
X191380600Y-102760000D01*
X191380600Y-102760000D02*
X194183000Y-102760000D01*
%TO.N,LCD_MISO*%
X194183000Y-95140000D02*
X191355200Y-95140000D01*
X191355200Y-95140000D02*
X185953400Y-89738200D01*
X185953400Y-89738200D02*
X145161000Y-89738200D01*
%TO.N,Backlight*%
X194183000Y-92600000D02*
X190339200Y-92600000D01*
X190339200Y-92600000D02*
X186182000Y-88442800D01*
X186182000Y-88442800D02*
X186055000Y-88442800D01*
X186055000Y-88442800D02*
X185801000Y-88188800D01*
X185801000Y-88188800D02*
X148717000Y-88188800D01*
%TO.N,LCD_CLK*%
X137160000Y-79679800D02*
X143637000Y-86156800D01*
X185648600Y-86156800D02*
X189547500Y-90055700D01*
X143637000Y-86156800D02*
X185648600Y-86156800D01*
X189547500Y-90055700D02*
X189894500Y-90055700D01*
X189894500Y-90055700D02*
X189898800Y-90060000D01*
X189898800Y-90060000D02*
X194183000Y-90060000D01*
%TO.N,LCD_MOSI*%
X139649200Y-79349600D02*
X144068800Y-83769200D01*
X144068800Y-83769200D02*
X186461400Y-83769200D01*
X186461400Y-83769200D02*
X190212200Y-87520000D01*
X190212200Y-87520000D02*
X194183000Y-87520000D01*
%TO.N,LCD_RESET*%
X167640000Y-73761600D02*
X167640000Y-78536800D01*
X167640000Y-78536800D02*
X170180000Y-81076800D01*
X170180000Y-81076800D02*
X188747400Y-81076800D01*
X188747400Y-81076800D02*
X190110600Y-82440000D01*
X190110600Y-82440000D02*
X194183000Y-82440000D01*
D23*
%TO.N,+5V*%
X186537600Y-72948800D02*
X186537600Y-72974200D01*
X186537600Y-72974200D02*
X188383400Y-74820000D01*
X188383400Y-74820000D02*
X194183000Y-74820000D01*
D22*
%TO.N,LCD_MISO*%
X99822000Y-92456000D02*
X105283000Y-92456000D01*
X105283000Y-92456000D02*
X108000800Y-89738200D01*
%TO.N,LCD_MOSI*%
X139700000Y-86614000D02*
X139065000Y-87249000D01*
X139065000Y-87249000D02*
X105918000Y-87249000D01*
X105918000Y-87249000D02*
X103251000Y-89916000D01*
X103251000Y-89916000D02*
X99822000Y-89916000D01*
%TO.N,LCD_CLK*%
X136271000Y-91694000D02*
X109347000Y-91694000D01*
X137160000Y-90805000D02*
X136271000Y-91694000D01*
X109347000Y-91694000D02*
X106045000Y-94996000D01*
X106045000Y-94996000D02*
X99822000Y-94996000D01*
X137160000Y-79679800D02*
X137160000Y-73761600D01*
%TO.N,LCD_MOSI*%
X139649200Y-79349600D02*
X139700000Y-79298800D01*
X139700000Y-79298800D02*
X139700000Y-73761600D01*
%TO.N,SD_CS*%
X99822000Y-87376000D02*
X102108000Y-87376000D01*
X102108000Y-87376000D02*
X106045000Y-83439000D01*
X106045000Y-83439000D02*
X118110000Y-83439000D01*
X118110000Y-83439000D02*
X124206000Y-77343000D01*
X124206000Y-77343000D02*
X130683000Y-77343000D01*
X130683000Y-77343000D02*
X132082720Y-75943280D01*
X132082720Y-75943280D02*
X132082720Y-73757920D01*
D24*
%TO.N,*%
X189890400Y-105308400D02*
X189915800Y-105333800D01*
X189915800Y-105333800D02*
X189915800Y-105359200D01*
D22*
%TO.N,CAN_H*%
X158570600Y-112064800D02*
X161047100Y-109588300D01*
X134264400Y-108254800D02*
X138074400Y-112064800D01*
X138074400Y-112064800D02*
X158570600Y-112064800D01*
X127990600Y-111353600D02*
X128016000Y-111353600D01*
X128016000Y-111353600D02*
X131114800Y-108254800D01*
X131114800Y-108254800D02*
X134264400Y-108254800D01*
%TO.N,CAN_L*%
X158851600Y-113715800D02*
X159740600Y-113715800D01*
X165709600Y-111709200D02*
X163703000Y-113715800D01*
X158699200Y-113715800D02*
X158851600Y-113715800D01*
X158013400Y-113715800D02*
X158851600Y-113715800D01*
X161021700Y-106997500D02*
X163512500Y-106997500D01*
X133070600Y-111353600D02*
X133070600Y-111379000D01*
X163512500Y-106997500D02*
X165709600Y-109194600D01*
X158013400Y-113715800D02*
X159740600Y-113715800D01*
X165709600Y-109194600D02*
X165709600Y-111709200D01*
X135407400Y-113715800D02*
X158013400Y-113715800D01*
X133070600Y-111379000D02*
X135407400Y-113715800D01*
X163703000Y-113715800D02*
X159740600Y-113715800D01*
%TO.N,T_CS*%
X157353000Y-104312800D02*
X157353000Y-99136200D01*
X157480000Y-99009200D02*
X157454600Y-99034600D01*
X157480000Y-96621600D02*
X157480000Y-99009200D01*
X157353000Y-99136200D02*
X157454600Y-99034600D01*
%TO.N,T_MISO*%
X189674500Y-97701100D02*
X189687200Y-97713800D01*
X155117800Y-100609400D02*
X155117800Y-99237800D01*
X154940000Y-96621600D02*
X154940000Y-99009200D01*
X152146000Y-104236600D02*
X155117800Y-101264800D01*
X155117800Y-99237800D02*
X154914600Y-99034600D01*
X155117800Y-101264800D02*
X155117800Y-100609400D01*
X154940000Y-99009200D02*
X154914600Y-99034600D01*
%TO.N,+3V3*%
X139014200Y-109392800D02*
X157353000Y-109392800D01*
X158140400Y-68402200D02*
X158140400Y-70434200D01*
X182245000Y-70561200D02*
X177800000Y-70561200D01*
X174650400Y-115112800D02*
X164490400Y-104952800D01*
X157353000Y-107315000D02*
X157353000Y-109392800D01*
X177800000Y-70434200D02*
X177800000Y-68610400D01*
X158115000Y-70459600D02*
X149270800Y-70459600D01*
X149270800Y-70459600D02*
X147391200Y-68580000D01*
X183286400Y-115112800D02*
X174650400Y-115112800D01*
X164490400Y-104952800D02*
X159715200Y-104952800D01*
X177800000Y-70434200D02*
X177774600Y-70459600D01*
X184454800Y-75133200D02*
X184454800Y-72771000D01*
X177774600Y-70459600D02*
X158165800Y-70459600D01*
X158140400Y-70434200D02*
X158115000Y-70459600D01*
X177800000Y-68610400D02*
X177769600Y-68580000D01*
X180340000Y-73761600D02*
X177800000Y-73761600D01*
X184480200Y-113919000D02*
X183286400Y-115112800D01*
X184480200Y-75158600D02*
X184454800Y-75133200D01*
X158165800Y-70459600D02*
X158140400Y-70434200D01*
X159715200Y-104952800D02*
X157353000Y-107315000D01*
X177800000Y-73761600D02*
X177800000Y-70561200D01*
X184454800Y-72771000D02*
X182245000Y-70561200D01*
X177800000Y-70561200D02*
X177800000Y-70434200D01*
D23*
%TO.N,+5V*%
X186537600Y-68503800D02*
X186537600Y-72948800D01*
X128778000Y-70434200D02*
X128041400Y-69697600D01*
X129667000Y-68072000D02*
X128041400Y-69697600D01*
X186436000Y-108788200D02*
X183070500Y-112153700D01*
X132511800Y-65227200D02*
X183261000Y-65227200D01*
X128778000Y-68961000D02*
X129667000Y-68072000D01*
X183261000Y-65227200D02*
X186537600Y-68503800D01*
X186410600Y-107010200D02*
X186436000Y-107035600D01*
X183070500Y-112153700D02*
X180147900Y-112153700D01*
X129667000Y-68072000D02*
X132511800Y-65227200D01*
X186436000Y-107035600D02*
X186436000Y-108788200D01*
X129542720Y-71198920D02*
X128778000Y-70434200D01*
X129542720Y-73757920D02*
X129542720Y-71198920D01*
D25*
%TO.N,GPIO45*%
X144780000Y-99009200D02*
X144754600Y-99034600D01*
D22*
X144780000Y-96621600D02*
X144780000Y-99009200D01*
%TO.N,Backlight*%
X137007600Y-102306200D02*
X139014200Y-104312800D01*
X137007600Y-99110800D02*
X137007600Y-102306200D01*
X138760200Y-93395800D02*
X137160000Y-94996000D01*
X137160000Y-99009200D02*
X137134600Y-99034600D01*
X137160000Y-96621600D02*
X137160000Y-99009200D01*
X137134600Y-99034600D02*
X137083800Y-99034600D01*
X146456400Y-92252800D02*
X145313400Y-93395800D01*
X137160000Y-94996000D02*
X137160000Y-96621600D01*
X145313400Y-93395800D02*
X138760200Y-93395800D01*
X148590000Y-92252800D02*
X146456400Y-92252800D01*
X137083800Y-99034600D02*
X137007600Y-99110800D01*
%TO.N,LCD_RESET*%
X167640000Y-69062600D02*
X166979600Y-68402200D01*
X166979600Y-68402200D02*
X163220400Y-68402200D01*
X167640000Y-71399400D02*
X167640000Y-73761600D01*
%TO.N,T_MOSI*%
X160020000Y-96621600D02*
X160020000Y-99009200D01*
X160020000Y-99009200D02*
X159994600Y-99034600D01*
D25*
%TO.N,unconnected-(J2-Pin_19-Pad19)*%
X134620000Y-99009200D02*
X134594600Y-99034600D01*
D22*
X134620000Y-96621600D02*
X134620000Y-99009200D01*
%TO.N,T_CLK*%
X152400000Y-99009200D02*
X152374600Y-99034600D01*
X152400000Y-96621600D02*
X152400000Y-99009200D01*
%TO.N,T_IRQ*%
X167640000Y-99009200D02*
X167614600Y-99034600D01*
X167640000Y-96621600D02*
X167640000Y-99009200D01*
%TO.N,Net-(J2-Pin_2)*%
X177800000Y-96621600D02*
X177800000Y-99009200D01*
D25*
X177800000Y-99009200D02*
X177774600Y-99034600D01*
%TO.N,GPIO40*%
X162560000Y-99009200D02*
X162534600Y-99034600D01*
D22*
X162560000Y-96621600D02*
X162560000Y-99009200D01*
D25*
%TO.N,GPIO48*%
X142240000Y-99009200D02*
X142214600Y-99034600D01*
D22*
X142240000Y-96621600D02*
X142240000Y-99009200D01*
%TO.N,LCD_CS*%
X164871400Y-79806800D02*
X164896800Y-79832200D01*
X142240000Y-73761600D02*
X148285200Y-79806800D01*
X142311200Y-68600400D02*
X142341600Y-68630800D01*
X142341600Y-68630800D02*
X142240000Y-68732400D01*
X148285200Y-79806800D02*
X164871400Y-79806800D01*
X164896800Y-79832200D02*
X164922200Y-79857600D01*
X142240000Y-68732400D02*
X142240000Y-73761600D01*
X142311200Y-68580000D02*
X142311200Y-68600400D01*
D25*
%TO.N,GPIO0*%
X147320000Y-99009200D02*
X147294600Y-99034600D01*
D22*
X147320000Y-96621600D02*
X147320000Y-99009200D01*
%TO.N,CAN_TX*%
X170180000Y-99009200D02*
X170154600Y-99034600D01*
X170180000Y-96621600D02*
X170180000Y-99009200D01*
X176009300Y-109562900D02*
X180122500Y-109562900D01*
X170154600Y-103708200D02*
X176009300Y-109562900D01*
X170154600Y-99034600D02*
X170154600Y-103708200D01*
%TO.N,GPIO35*%
X149860000Y-96621600D02*
X149860000Y-99009200D01*
D25*
X149860000Y-99009200D02*
X149834600Y-99034600D01*
%TO.N,Net-(J2-Pin_3)*%
X175260000Y-99009200D02*
X175234600Y-99034600D01*
D22*
X175260000Y-96621600D02*
X175260000Y-99009200D01*
%TO.N,GPIO41*%
X165100000Y-96621600D02*
X165100000Y-99009200D01*
D25*
X165100000Y-99009200D02*
X165074600Y-99034600D01*
D22*
%TO.N,CAN_RX*%
X172720000Y-99009200D02*
X172694600Y-99034600D01*
X172720000Y-96621600D02*
X172720000Y-99009200D01*
X172694600Y-103022400D02*
X176682400Y-107010200D01*
X172694600Y-99034600D02*
X172694600Y-103022400D01*
X176682400Y-107010200D02*
X176695100Y-106997500D01*
X176695100Y-106997500D02*
X180147900Y-106997500D01*
%TO.N,unconnected-(J2-Pin_20-Pad20)*%
X132054600Y-99034600D02*
X132054600Y-96647000D01*
D25*
X132054600Y-96647000D02*
X132080000Y-96621600D01*
D22*
%TO.N,GPIO47*%
X139700000Y-96621600D02*
X139700000Y-99009200D01*
D25*
X139700000Y-99009200D02*
X139674600Y-99034600D01*
D22*
%TO.N,LCD_CS*%
X194183000Y-79900000D02*
X171568600Y-79900000D01*
X171568600Y-79900000D02*
X171526200Y-79857600D01*
%TD*%
M02*
