%TF.GenerationSoftware,KiCad,Pcbnew,8.0.5-8.0.5-0~ubuntu24.04.1*%
%TF.CreationDate,2024-10-19T16:32:38+02:00*%
%TF.ProjectId,BmsMonitor,426d734d-6f6e-4697-946f-722e6b696361,rev?*%
%TF.SameCoordinates,Original*%
%TF.FileFunction,Copper,L2,Bot*%
%TF.FilePolarity,Positive*%
%FSLAX46Y46*%
G04 Gerber Fmt 4.6, Leading zero omitted, Abs format (unit mm)*
G04 Created by KiCad (PCBNEW 8.0.5-8.0.5-0~ubuntu24.04.1) date 2024-10-19 16:32:38*
%MOMM*%
%LPD*%
G01*
G04 APERTURE LIST*
G04 Aperture macros list*
%AMFreePoly0*
4,1,5,1.500000,-1.000000,-1.500000,-1.000000,-1.500000,1.000000,1.500000,1.000000,1.500000,-1.000000,1.500000,-1.000000,$1*%
G04 Aperture macros list end*
%TA.AperFunction,ComponentPad*%
%ADD10R,1.700000X1.700000*%
%TD*%
%TA.AperFunction,ComponentPad*%
%ADD11O,1.700000X1.700000*%
%TD*%
%TA.AperFunction,ComponentPad*%
%ADD12FreePoly0,90.000000*%
%TD*%
%TA.AperFunction,ComponentPad*%
%ADD13C,1.600000*%
%TD*%
%TA.AperFunction,ComponentPad*%
%ADD14R,3.000000X3.000000*%
%TD*%
%TA.AperFunction,ComponentPad*%
%ADD15C,3.000000*%
%TD*%
%TA.AperFunction,ComponentPad*%
%ADD16R,1.200000X2.000000*%
%TD*%
%TA.AperFunction,ComponentPad*%
%ADD17O,1.200000X2.000000*%
%TD*%
%TA.AperFunction,ComponentPad*%
%ADD18C,2.000000*%
%TD*%
%TA.AperFunction,ViaPad*%
%ADD19C,0.600000*%
%TD*%
%TA.AperFunction,ViaPad*%
%ADD20C,1.000000*%
%TD*%
%TA.AperFunction,Conductor*%
%ADD21C,1.000000*%
%TD*%
%TA.AperFunction,Conductor*%
%ADD22C,0.400000*%
%TD*%
G04 APERTURE END LIST*
D10*
%TO.P,J1,1,Pin_1*%
%TO.N,SD_CS*%
X99822000Y-87376000D03*
D11*
%TO.P,J1,2,Pin_2*%
%TO.N,LCD_MOSI*%
X99822000Y-89916000D03*
%TO.P,J1,3,Pin_3*%
%TO.N,LCD_MISO*%
X99822000Y-92456000D03*
%TO.P,J1,4,Pin_4*%
%TO.N,LCD_CLK*%
X99822000Y-94996000D03*
%TD*%
D12*
%TO.P,U1,1,In+*%
%TO.N,+12V*%
X102997000Y-102666800D03*
%TO.P,U1,2*%
X105562400Y-102666800D03*
%TO.P,U1,3*%
%TO.N,GND*%
X113131600Y-102692200D03*
%TO.P,U1,4,In-*%
X115722400Y-102666800D03*
%TO.P,U1,5,Out-*%
X115747800Y-79832200D03*
%TO.P,U1,6*%
X113157000Y-79857600D03*
%TO.P,U1,7*%
%TO.N,+5V*%
X105587800Y-79832200D03*
%TO.P,U1,8,Out+*%
X103022400Y-79832200D03*
%TD*%
D13*
%TO.P,R2,1*%
%TO.N,+3V3*%
X177769600Y-68580000D03*
%TO.P,R2,2*%
%TO.N,LCD_MISO*%
X172689600Y-68580000D03*
%TD*%
D10*
%TO.P,U5,1,+5V*%
%TO.N,+5V*%
X194183000Y-74820000D03*
D11*
%TO.P,U5,2,GND*%
%TO.N,GND*%
X194183000Y-77360000D03*
%TO.P,U5,3,LCD_CS*%
%TO.N,LCD_CS*%
X194183000Y-79900000D03*
%TO.P,U5,4,LCD_RESET*%
%TO.N,LCD_RESET*%
X194183000Y-82440000D03*
%TO.P,U5,5,LCD_DC/RS*%
%TO.N,LCD_DC{slash}RS*%
X194183000Y-84980000D03*
%TO.P,U5,6,LCD_MOSI*%
%TO.N,LCD_MOSI*%
X194183000Y-87520000D03*
%TO.P,U5,7,LCD_CLK*%
%TO.N,LCD_CLK*%
X194183000Y-90060000D03*
%TO.P,U5,8,Backlight*%
%TO.N,Backlight*%
X194183000Y-92600000D03*
%TO.P,U5,9,LCD_MISO*%
%TO.N,LCD_MISO*%
X194183000Y-95140000D03*
%TO.P,U5,10,T_CLK*%
%TO.N,T_CLK*%
X194183000Y-97680000D03*
%TO.P,U5,11,T_CS*%
%TO.N,T_CS*%
X194183000Y-100220000D03*
%TO.P,U5,12,T_DIN*%
%TO.N,T_MOSI*%
X194183000Y-102760000D03*
%TO.P,U5,13,T_DO*%
%TO.N,T_MISO*%
X194183000Y-105300000D03*
%TO.P,U5,14,T_IRQ*%
%TO.N,T_IRQ*%
X194183000Y-107840000D03*
%TD*%
D13*
%TO.P,R6,1*%
%TO.N,+3V3*%
X158140400Y-68402200D03*
%TO.P,R6,2*%
%TO.N,LCD_RESET*%
X163220400Y-68402200D03*
%TD*%
%TO.P,R3,1*%
%TO.N,+3V3*%
X157353000Y-109392800D03*
%TO.P,R3,2*%
%TO.N,T_CS*%
X157353000Y-104312800D03*
%TD*%
D10*
%TO.P,J2,1,Pin_1*%
%TO.N,GND*%
X180314600Y-99034600D03*
D11*
%TO.P,J2,2,Pin_2*%
%TO.N,Net-(J2-Pin_2)*%
X177774600Y-99034600D03*
%TO.P,J2,3,Pin_3*%
%TO.N,Net-(J2-Pin_3)*%
X175234600Y-99034600D03*
%TO.P,J2,4,Pin_4*%
%TO.N,CAN_RX*%
X172694600Y-99034600D03*
%TO.P,J2,5,Pin_5*%
%TO.N,CAN_TX*%
X170154600Y-99034600D03*
%TO.P,J2,6,Pin_6*%
%TO.N,T_IRQ*%
X167614600Y-99034600D03*
%TO.P,J2,7,Pin_7*%
%TO.N,GPIO41*%
X165074600Y-99034600D03*
%TO.P,J2,8,Pin_8*%
%TO.N,GPIO40*%
X162534600Y-99034600D03*
%TO.P,J2,9,Pin_9*%
%TO.N,T_MOSI*%
X159994600Y-99034600D03*
%TO.P,J2,10,Pin_10*%
%TO.N,T_CS*%
X157454600Y-99034600D03*
%TO.P,J2,11,Pin_11*%
%TO.N,T_MISO*%
X154914600Y-99034600D03*
%TO.P,J2,12,Pin_12*%
%TO.N,T_CLK*%
X152374600Y-99034600D03*
%TO.P,J2,13,Pin_13*%
%TO.N,GPIO35*%
X149834600Y-99034600D03*
%TO.P,J2,14,Pin_14*%
%TO.N,GPIO0*%
X147294600Y-99034600D03*
%TO.P,J2,15,Pin_15*%
%TO.N,GPIO45*%
X144754600Y-99034600D03*
%TO.P,J2,16,Pin_16*%
%TO.N,GPIO48*%
X142214600Y-99034600D03*
%TO.P,J2,17,Pin_17*%
%TO.N,GPIO47*%
X139674600Y-99034600D03*
%TO.P,J2,18,Pin_18*%
%TO.N,Backlight*%
X137134600Y-99034600D03*
%TO.P,J2,19,Pin_19*%
%TO.N,unconnected-(J2-Pin_19-Pad19)*%
X134594600Y-99034600D03*
%TO.P,J2,20,Pin_20*%
%TO.N,unconnected-(J2-Pin_20-Pad20)*%
X132054600Y-99034600D03*
%TO.P,J2,21,Pin_21*%
%TO.N,GND*%
X129514600Y-99034600D03*
%TO.P,J2,22,Pin_22*%
X126974600Y-99034600D03*
%TD*%
D14*
%TO.P,J3,1,Pin_1*%
%TO.N,+12V*%
X117830600Y-111353600D03*
D15*
%TO.P,J3,2,Pin_2*%
%TO.N,GND*%
X122910600Y-111353600D03*
%TO.P,J3,3,Pin_3*%
%TO.N,CAN_H*%
X127990600Y-111353600D03*
%TO.P,J3,4,Pin_4*%
%TO.N,CAN_L*%
X133070600Y-111353600D03*
%TD*%
D16*
%TO.P,U2,1,3V3*%
%TO.N,+3V3*%
X180340000Y-73761600D03*
D17*
%TO.P,U2,2,3V3*%
X177800000Y-73761600D03*
%TO.P,U2,3,CHIP_PU*%
%TO.N,RST*%
X175260000Y-73761600D03*
%TO.P,U2,4,GPIO4/ADC1_CH3*%
%TO.N,unconnected-(U2-GPIO4{slash}ADC1_CH3-Pad4)*%
X172720000Y-73761600D03*
%TO.P,U2,5,GPIO5/ADC1_CH4*%
%TO.N,unconnected-(U2-GPIO5{slash}ADC1_CH4-Pad5)*%
X170180000Y-73761600D03*
%TO.P,U2,6,GPIO6/ADC1_CH5*%
%TO.N,LCD_RESET*%
X167640000Y-73761600D03*
%TO.P,U2,7,GPIO7/ADC1_CH6*%
%TO.N,LCD_DC{slash}RS*%
X165100000Y-73761600D03*
%TO.P,U2,8,GPIO15/ADC2_CH4/32K_P*%
%TO.N,unconnected-(U2-GPIO15{slash}ADC2_CH4{slash}32K_P-Pad8)*%
X162560000Y-73761600D03*
%TO.P,U2,9,GPIO16/ADC2_CH5/32K_N*%
%TO.N,unconnected-(U2-GPIO16{slash}ADC2_CH5{slash}32K_N-Pad9)*%
X160020000Y-73761600D03*
%TO.P,U2,10,GPIO17/ADC2_CH6*%
%TO.N,unconnected-(U2-GPIO17{slash}ADC2_CH6-Pad10)*%
X157480000Y-73761600D03*
%TO.P,U2,11,GPIO18/ADC2_CH7*%
%TO.N,unconnected-(U2-GPIO18{slash}ADC2_CH7-Pad11)*%
X154940000Y-73761600D03*
%TO.P,U2,12,GPIO8/ADC1_CH7*%
%TO.N,unconnected-(U2-GPIO8{slash}ADC1_CH7-Pad12)*%
X152400000Y-73761600D03*
%TO.P,U2,13,GPIO3/ADC1_CH2*%
%TO.N,unconnected-(U2-GPIO3{slash}ADC1_CH2-Pad13)*%
X149860000Y-73761600D03*
%TO.P,U2,14,GPIO46*%
%TO.N,unconnected-(U2-GPIO46-Pad14)*%
X147320000Y-73761600D03*
%TO.P,U2,15,GPIO9/ADC1_CH8*%
%TO.N,unconnected-(U2-GPIO9{slash}ADC1_CH8-Pad15)*%
X144780000Y-73761600D03*
%TO.P,U2,16,GPIO10/ADC1_CH9*%
%TO.N,LCD_CS*%
X142240000Y-73761600D03*
%TO.P,U2,17,GPIO11/ADC2_CH0*%
%TO.N,LCD_MOSI*%
X139700000Y-73761600D03*
%TO.P,U2,18,GPIO12/ADC2_CH1*%
%TO.N,LCD_CLK*%
X137160000Y-73761600D03*
%TO.P,U2,19,GPIO13/ADC2_CH2*%
%TO.N,LCD_MISO*%
X134620000Y-73761600D03*
%TO.P,U2,20,GPIO14/ADC2_CH3*%
%TO.N,SD_CS*%
X132082720Y-73757920D03*
%TO.P,U2,21,5V*%
%TO.N,+5V*%
X129542720Y-73757920D03*
%TO.P,U2,22,GND*%
%TO.N,GND*%
X127002720Y-73757920D03*
%TO.P,U2,23,GND*%
X127000000Y-96621600D03*
%TO.P,U2,24,GND*%
X129540000Y-96621600D03*
%TO.P,U2,25,GPIO19/USB_D-*%
%TO.N,unconnected-(J2-Pin_20-Pad20)*%
X132080000Y-96621600D03*
%TO.P,U2,26,GPIO20/USB_D+*%
%TO.N,unconnected-(J2-Pin_19-Pad19)*%
X134620000Y-96621600D03*
%TO.P,U2,27,GPIO21*%
%TO.N,Backlight*%
X137160000Y-96621600D03*
%TO.P,U2,28,GPIO47*%
%TO.N,GPIO47*%
X139700000Y-96621600D03*
%TO.P,U2,29,GPIO48*%
%TO.N,GPIO48*%
X142240000Y-96621600D03*
%TO.P,U2,30,GPIO45*%
%TO.N,GPIO45*%
X144780000Y-96621600D03*
%TO.P,U2,31,GPIO0*%
%TO.N,GPIO0*%
X147320000Y-96621600D03*
%TO.P,U2,32,GPIO35*%
%TO.N,GPIO35*%
X149860000Y-96621600D03*
%TO.P,U2,33,GPIO36*%
%TO.N,T_CLK*%
X152400000Y-96621600D03*
%TO.P,U2,34,GPIO37*%
%TO.N,T_MISO*%
X154940000Y-96621600D03*
%TO.P,U2,35,GPIO38*%
%TO.N,T_CS*%
X157480000Y-96621600D03*
%TO.P,U2,36,GPIO39/MTCK*%
%TO.N,T_MOSI*%
X160020000Y-96621600D03*
%TO.P,U2,37,GPIO40/MTDO*%
%TO.N,GPIO40*%
X162560000Y-96621600D03*
%TO.P,U2,38,GPIO41/MTDI*%
%TO.N,GPIO41*%
X165100000Y-96621600D03*
%TO.P,U2,39,GPIO42/MTMS*%
%TO.N,T_IRQ*%
X167640000Y-96621600D03*
%TO.P,U2,40,GPIO2/ADC1_CH1*%
%TO.N,CAN_TX*%
X170180000Y-96621600D03*
%TO.P,U2,41,GPIO1/ADC1_CH0*%
%TO.N,CAN_RX*%
X172720000Y-96621600D03*
%TO.P,U2,42,GPIO44/U0RXD*%
%TO.N,Net-(J2-Pin_3)*%
X175260000Y-96621600D03*
%TO.P,U2,43,GPIO43/U0TXD*%
%TO.N,Net-(J2-Pin_2)*%
X177800000Y-96621600D03*
%TO.P,U2,44,GND*%
%TO.N,GND*%
X180340000Y-96621600D03*
%TD*%
D13*
%TO.P,R1,1*%
%TO.N,+3V3*%
X147391200Y-68580000D03*
%TO.P,R1,2*%
%TO.N,LCD_CS*%
X142311200Y-68580000D03*
%TD*%
D18*
%TO.P,U3,1,Gnd*%
%TO.N,GND*%
X180198700Y-104482900D03*
%TO.P,U3,2,RX*%
%TO.N,CAN_RX*%
X180147900Y-106997500D03*
%TO.P,U3,3,TX*%
%TO.N,CAN_TX*%
X180122500Y-109562900D03*
%TO.P,U3,4,VCC*%
%TO.N,+5V*%
X180147900Y-112153700D03*
%TO.P,U3,5,CanH*%
%TO.N,CAN_H*%
X161047100Y-109588300D03*
%TO.P,U3,6,CanL*%
%TO.N,CAN_L*%
X161021700Y-106997500D03*
%TD*%
D13*
%TO.P,R4,1*%
%TO.N,+3V3*%
X139014200Y-109392800D03*
%TO.P,R4,2*%
%TO.N,Backlight*%
X139014200Y-104312800D03*
%TD*%
%TO.P,R5,1*%
%TO.N,+3V3*%
X152146000Y-109316600D03*
%TO.P,R5,2*%
%TO.N,T_MISO*%
X152146000Y-104236600D03*
%TD*%
D19*
%TO.N,LCD_MOSI*%
X139649200Y-79349600D03*
%TO.N,LCD_CLK*%
X137160000Y-79679800D03*
X137160000Y-90805000D03*
%TO.N,LCD_MOSI*%
X139700000Y-86614000D03*
D20*
%TO.N,GND*%
X183244000Y-77360000D03*
D19*
%TO.N,T_MISO*%
X189674500Y-97701100D03*
X189674500Y-103759000D03*
%TO.N,+3V3*%
X184480200Y-113919000D03*
X184480200Y-75158600D03*
D20*
%TO.N,+5V*%
X186410600Y-107010200D03*
X186537600Y-72948800D03*
D19*
%TO.N,Backlight*%
X148590000Y-92252800D03*
X148590000Y-88138000D03*
%TO.N,LCD_RESET*%
X167513000Y-69011800D03*
X167513000Y-71348600D03*
%TO.N,LCD_CS*%
X171399200Y-79806800D03*
X164769800Y-79781400D03*
%TD*%
D21*
%TO.N,GND*%
X122783600Y-111302800D02*
X122783600Y-109728000D01*
X115773200Y-102616000D02*
X122936000Y-102616000D01*
X122936000Y-102616000D02*
X126873000Y-102616000D01*
X122910600Y-111353600D02*
X122910600Y-102641400D01*
X122910600Y-102641400D02*
X122936000Y-102616000D01*
X115722400Y-102666800D02*
X115773200Y-102616000D01*
X115722400Y-102666800D02*
X113157000Y-102666800D01*
X113157000Y-102666800D02*
X113131600Y-102692200D01*
X115747800Y-79832200D02*
X115697000Y-79883000D01*
X115697000Y-79883000D02*
X115697000Y-102641400D01*
X115697000Y-102641400D02*
X115722400Y-102666800D01*
X118999000Y-73709840D02*
X126873000Y-73709840D01*
X118999000Y-73709840D02*
X118110000Y-73709840D01*
X118110000Y-73709840D02*
X115747800Y-76072040D01*
X115747800Y-76072040D02*
X115747800Y-79832200D01*
X115443000Y-78740000D02*
X115570000Y-78613000D01*
X115747800Y-79832200D02*
X113182400Y-79832200D01*
X113182400Y-79832200D02*
X113157000Y-79857600D01*
X180213000Y-80391000D02*
X180213000Y-77360000D01*
X180213000Y-77360000D02*
X183244000Y-77360000D01*
X132422900Y-105143300D02*
X133527800Y-106248200D01*
X133527800Y-106248200D02*
X158115000Y-106248200D01*
X158115000Y-106248200D02*
X159931100Y-104432100D01*
X180071700Y-104432100D02*
X180071700Y-101690500D01*
X159931100Y-104432100D02*
X180071700Y-104432100D01*
X180187600Y-96596200D02*
X180213000Y-96570800D01*
X180071700Y-101690500D02*
X180187600Y-101574600D01*
X180187600Y-101574600D02*
X180187600Y-96596200D01*
X180213000Y-96570800D02*
X180213000Y-80391000D01*
D22*
%TO.N,T_MISO*%
X189674500Y-103759000D02*
X189674500Y-97701100D01*
%TO.N,LCD_CLK*%
X137160000Y-90805000D02*
X137160000Y-79679800D01*
%TO.N,LCD_MOSI*%
X139700000Y-86614000D02*
X139700000Y-79400400D01*
X139700000Y-79400400D02*
X139649200Y-79349600D01*
D21*
%TO.N,GND*%
X129362200Y-102616000D02*
X129895600Y-102616000D01*
X126847600Y-98983800D02*
X126847600Y-96596200D01*
X129387600Y-96596200D02*
X129413000Y-96570800D01*
X126847600Y-96596200D02*
X126873000Y-96570800D01*
X129387600Y-98983800D02*
X129387600Y-102590600D01*
X126847600Y-101676200D02*
X126847600Y-98983800D01*
X126873000Y-102616000D02*
X129362200Y-102616000D01*
X129387600Y-98983800D02*
X129387600Y-96596200D01*
X126847600Y-102590600D02*
X126873000Y-102616000D01*
X126847600Y-101676200D02*
X126847600Y-102590600D01*
X133146800Y-105867200D02*
X133121400Y-105892600D01*
X129387600Y-102590600D02*
X129362200Y-102616000D01*
X126847600Y-102209600D02*
X126847600Y-101676200D01*
X129895600Y-102616000D02*
X132422900Y-105143300D01*
X132422900Y-105143300D02*
X133146800Y-105867200D01*
D22*
%TO.N,+3V3*%
X184480200Y-113919000D02*
X184480200Y-75158600D01*
D21*
%TO.N,+5V*%
X186486800Y-72999600D02*
X186537600Y-72948800D01*
X186410600Y-107010200D02*
X186486800Y-106934000D01*
X186486800Y-106934000D02*
X186486800Y-72999600D01*
D22*
%TO.N,Backlight*%
X148590000Y-92252800D02*
X148590000Y-88138000D01*
%TO.N,LCD_RESET*%
X167513000Y-71348600D02*
X167513000Y-69011800D01*
%TO.N,LCD_CS*%
X171399200Y-79806800D02*
X164795200Y-79806800D01*
X164795200Y-79806800D02*
X164769800Y-79781400D01*
%TD*%
%TA.AperFunction,Conductor*%
%TO.N,GND*%
G36*
X115417524Y-102432860D02*
G01*
X115367364Y-102519739D01*
X115341400Y-102616640D01*
X115341400Y-102716960D01*
X115367364Y-102813861D01*
X115417524Y-102900740D01*
X115433584Y-102916800D01*
X114665522Y-102916800D01*
X114624196Y-102939366D01*
X114597838Y-102942200D01*
X113420416Y-102942200D01*
X113436476Y-102926140D01*
X113486636Y-102839261D01*
X113512600Y-102742360D01*
X113512600Y-102642040D01*
X113486636Y-102545139D01*
X113436476Y-102458260D01*
X113420416Y-102442200D01*
X114188478Y-102442200D01*
X114229804Y-102419634D01*
X114256162Y-102416800D01*
X115433584Y-102416800D01*
X115417524Y-102432860D01*
G37*
%TD.AperFunction*%
%TA.AperFunction,Conductor*%
G36*
X115442924Y-79598260D02*
G01*
X115392764Y-79685139D01*
X115366800Y-79782040D01*
X115366800Y-79882360D01*
X115392764Y-79979261D01*
X115442924Y-80066140D01*
X115458984Y-80082200D01*
X114690922Y-80082200D01*
X114649596Y-80104766D01*
X114623238Y-80107600D01*
X113445816Y-80107600D01*
X113461876Y-80091540D01*
X113512036Y-80004661D01*
X113538000Y-79907760D01*
X113538000Y-79807440D01*
X113512036Y-79710539D01*
X113461876Y-79623660D01*
X113445816Y-79607600D01*
X114213878Y-79607600D01*
X114255204Y-79585034D01*
X114281562Y-79582200D01*
X115458984Y-79582200D01*
X115442924Y-79598260D01*
G37*
%TD.AperFunction*%
%TA.AperFunction,Conductor*%
G36*
X180791039Y-64180185D02*
G01*
X180836794Y-64232989D01*
X180848000Y-64284500D01*
X180848000Y-72137100D01*
X180828315Y-72204139D01*
X180775511Y-72249894D01*
X180724000Y-72261100D01*
X179692129Y-72261100D01*
X179692123Y-72261101D01*
X179632516Y-72267508D01*
X179497671Y-72317802D01*
X179497664Y-72317806D01*
X179382455Y-72404052D01*
X179382452Y-72404055D01*
X179296206Y-72519264D01*
X179296202Y-72519271D01*
X179245908Y-72654117D01*
X179239501Y-72713716D01*
X179239500Y-72713735D01*
X179239500Y-74809470D01*
X179239501Y-74809476D01*
X179245908Y-74869083D01*
X179296202Y-75003928D01*
X179296206Y-75003935D01*
X179382452Y-75119144D01*
X179382455Y-75119147D01*
X179497664Y-75205393D01*
X179497671Y-75205397D01*
X179632517Y-75255691D01*
X179632516Y-75255691D01*
X179639444Y-75256435D01*
X179692127Y-75262100D01*
X180724000Y-75262099D01*
X180791039Y-75281783D01*
X180836794Y-75334587D01*
X180848000Y-75386099D01*
X180848000Y-95059379D01*
X180828315Y-95126418D01*
X180775511Y-95172173D01*
X180706353Y-95182117D01*
X180685682Y-95177310D01*
X180597594Y-95148688D01*
X180597581Y-95148685D01*
X180590000Y-95147484D01*
X180590000Y-96305914D01*
X180585606Y-96301520D01*
X180494394Y-96248859D01*
X180392661Y-96221600D01*
X180287339Y-96221600D01*
X180185606Y-96248859D01*
X180094394Y-96301520D01*
X180090000Y-96305914D01*
X180090000Y-95147484D01*
X180089999Y-95147484D01*
X180082418Y-95148685D01*
X180082410Y-95148687D01*
X179917742Y-95202191D01*
X179763475Y-95280795D01*
X179623397Y-95382567D01*
X179500967Y-95504997D01*
X179399195Y-95645075D01*
X179320591Y-95799342D01*
X179267085Y-95964015D01*
X179240000Y-96135028D01*
X179240000Y-96371600D01*
X180024314Y-96371600D01*
X180019920Y-96375994D01*
X179967259Y-96467206D01*
X179940000Y-96568939D01*
X179940000Y-96674261D01*
X179967259Y-96775994D01*
X180019920Y-96867206D01*
X180024314Y-96871600D01*
X179240000Y-96871600D01*
X179240000Y-97108171D01*
X179267085Y-97279184D01*
X179320591Y-97443857D01*
X179369135Y-97539128D01*
X179382031Y-97607797D01*
X179355755Y-97672538D01*
X179301984Y-97711605D01*
X179222511Y-97741246D01*
X179222506Y-97741249D01*
X179107412Y-97827409D01*
X179107409Y-97827412D01*
X179021249Y-97942506D01*
X179021245Y-97942513D01*
X178972178Y-98074070D01*
X178930307Y-98130004D01*
X178864842Y-98154421D01*
X178796569Y-98139569D01*
X178768315Y-98118418D01*
X178646005Y-97996108D01*
X178611681Y-97972074D01*
X178568056Y-97917497D01*
X178560864Y-97847998D01*
X178592386Y-97785644D01*
X178595124Y-97782818D01*
X178616046Y-97761896D01*
X178639414Y-97738528D01*
X178741232Y-97598388D01*
X178819873Y-97444045D01*
X178873402Y-97279301D01*
X178900500Y-97108211D01*
X178900500Y-96134989D01*
X178873402Y-95963899D01*
X178819873Y-95799155D01*
X178741232Y-95644812D01*
X178639414Y-95504672D01*
X178516928Y-95382186D01*
X178376788Y-95280368D01*
X178222445Y-95201727D01*
X178057701Y-95148198D01*
X178057699Y-95148197D01*
X178057698Y-95148197D01*
X177926271Y-95127381D01*
X177886611Y-95121100D01*
X177713389Y-95121100D01*
X177673728Y-95127381D01*
X177542302Y-95148197D01*
X177377552Y-95201728D01*
X177223211Y-95280368D01*
X177143256Y-95338459D01*
X177083072Y-95382186D01*
X177083070Y-95382188D01*
X177083069Y-95382188D01*
X176960588Y-95504669D01*
X176960588Y-95504670D01*
X176960586Y-95504672D01*
X176960350Y-95504997D01*
X176858768Y-95644811D01*
X176780128Y-95799152D01*
X176726597Y-95963902D01*
X176699500Y-96134989D01*
X176699500Y-97108211D01*
X176726598Y-97279301D01*
X176780127Y-97444045D01*
X176858768Y-97598388D01*
X176960586Y-97738528D01*
X176960588Y-97738530D01*
X176983954Y-97761896D01*
X177017439Y-97823219D01*
X177012455Y-97892911D01*
X176970583Y-97948844D01*
X176967398Y-97951151D01*
X176903201Y-97996103D01*
X176903195Y-97996108D01*
X176736105Y-98163197D01*
X176606175Y-98348758D01*
X176551598Y-98392383D01*
X176482100Y-98399577D01*
X176419745Y-98368054D01*
X176403025Y-98348758D01*
X176273094Y-98163197D01*
X176106005Y-97996108D01*
X176071681Y-97972074D01*
X176028056Y-97917497D01*
X176020864Y-97847998D01*
X176052386Y-97785644D01*
X176055124Y-97782818D01*
X176076046Y-97761896D01*
X176099414Y-97738528D01*
X176201232Y-97598388D01*
X176279873Y-97444045D01*
X176333402Y-97279301D01*
X176360500Y-97108211D01*
X176360500Y-96134989D01*
X176333402Y-95963899D01*
X176279873Y-95799155D01*
X176201232Y-95644812D01*
X176099414Y-95504672D01*
X175976928Y-95382186D01*
X175836788Y-95280368D01*
X175682445Y-95201727D01*
X175517701Y-95148198D01*
X175517699Y-95148197D01*
X175517698Y-95148197D01*
X175386271Y-95127381D01*
X175346611Y-95121100D01*
X175173389Y-95121100D01*
X175133728Y-95127381D01*
X175002302Y-95148197D01*
X174837552Y-95201728D01*
X174683211Y-95280368D01*
X174603256Y-95338459D01*
X174543072Y-95382186D01*
X174543070Y-95382188D01*
X174543069Y-95382188D01*
X174420588Y-95504669D01*
X174420588Y-95504670D01*
X174420586Y-95504672D01*
X174420350Y-95504997D01*
X174318768Y-95644811D01*
X174240128Y-95799152D01*
X174186597Y-95963902D01*
X174159500Y-96134989D01*
X174159500Y-97108211D01*
X174186598Y-97279301D01*
X174240127Y-97444045D01*
X174318768Y-97598388D01*
X174420586Y-97738528D01*
X174420588Y-97738530D01*
X174443954Y-97761896D01*
X174477439Y-97823219D01*
X174472455Y-97892911D01*
X174430583Y-97948844D01*
X174427398Y-97951151D01*
X174363201Y-97996103D01*
X174363195Y-97996108D01*
X174196105Y-98163197D01*
X174066175Y-98348758D01*
X174011598Y-98392383D01*
X173942100Y-98399577D01*
X173879745Y-98368054D01*
X173863025Y-98348758D01*
X173733094Y-98163197D01*
X173566005Y-97996108D01*
X173531681Y-97972074D01*
X173488056Y-97917497D01*
X173480864Y-97847998D01*
X173512386Y-97785644D01*
X173515124Y-97782818D01*
X173536046Y-97761896D01*
X173559414Y-97738528D01*
X173661232Y-97598388D01*
X173739873Y-97444045D01*
X173793402Y-97279301D01*
X173820500Y-97108211D01*
X173820500Y-96134989D01*
X173793402Y-95963899D01*
X173739873Y-95799155D01*
X173661232Y-95644812D01*
X173559414Y-95504672D01*
X173436928Y-95382186D01*
X173296788Y-95280368D01*
X173142445Y-95201727D01*
X172977701Y-95148198D01*
X172977699Y-95148197D01*
X172977698Y-95148197D01*
X172846271Y-95127381D01*
X172806611Y-95121100D01*
X172633389Y-95121100D01*
X172593728Y-95127381D01*
X172462302Y-95148197D01*
X172297552Y-95201728D01*
X172143211Y-95280368D01*
X172063256Y-95338459D01*
X172003072Y-95382186D01*
X172003070Y-95382188D01*
X172003069Y-95382188D01*
X171880588Y-95504669D01*
X171880588Y-95504670D01*
X171880586Y-95504672D01*
X171880350Y-95504997D01*
X171778768Y-95644811D01*
X171700128Y-95799152D01*
X171646597Y-95963902D01*
X171619500Y-96134989D01*
X171619500Y-97108211D01*
X171646598Y-97279301D01*
X171700127Y-97444045D01*
X171778768Y-97598388D01*
X171880586Y-97738528D01*
X171880588Y-97738530D01*
X171903954Y-97761896D01*
X171937439Y-97823219D01*
X171932455Y-97892911D01*
X171890583Y-97948844D01*
X171887398Y-97951151D01*
X171823201Y-97996103D01*
X171823195Y-97996108D01*
X171656105Y-98163197D01*
X171526175Y-98348758D01*
X171471598Y-98392383D01*
X171402100Y-98399577D01*
X171339745Y-98368054D01*
X171323025Y-98348758D01*
X171193094Y-98163197D01*
X171026005Y-97996108D01*
X170991681Y-97972074D01*
X170948056Y-97917497D01*
X170940864Y-97847998D01*
X170972386Y-97785644D01*
X170975124Y-97782818D01*
X170996046Y-97761896D01*
X171019414Y-97738528D01*
X171121232Y-97598388D01*
X171199873Y-97444045D01*
X171253402Y-97279301D01*
X171280500Y-97108211D01*
X171280500Y-96134989D01*
X171253402Y-95963899D01*
X171199873Y-95799155D01*
X171121232Y-95644812D01*
X171019414Y-95504672D01*
X170896928Y-95382186D01*
X170756788Y-95280368D01*
X170602445Y-95201727D01*
X170437701Y-95148198D01*
X170437699Y-95148197D01*
X170437698Y-95148197D01*
X170306271Y-95127381D01*
X170266611Y-95121100D01*
X170093389Y-95121100D01*
X170053728Y-95127381D01*
X169922302Y-95148197D01*
X169757552Y-95201728D01*
X169603211Y-95280368D01*
X169523256Y-95338459D01*
X169463072Y-95382186D01*
X169463070Y-95382188D01*
X169463069Y-95382188D01*
X169340588Y-95504669D01*
X169340588Y-95504670D01*
X169340586Y-95504672D01*
X169340350Y-95504997D01*
X169238768Y-95644811D01*
X169160128Y-95799152D01*
X169106597Y-95963902D01*
X169079500Y-96134989D01*
X169079500Y-97108211D01*
X169106598Y-97279301D01*
X169160127Y-97444045D01*
X169238768Y-97598388D01*
X169340586Y-97738528D01*
X169340588Y-97738530D01*
X169363954Y-97761896D01*
X169397439Y-97823219D01*
X169392455Y-97892911D01*
X169350583Y-97948844D01*
X169347398Y-97951151D01*
X169283201Y-97996103D01*
X169283195Y-97996108D01*
X169116105Y-98163197D01*
X168986175Y-98348758D01*
X168931598Y-98392383D01*
X168862100Y-98399577D01*
X168799745Y-98368054D01*
X168783025Y-98348758D01*
X168653094Y-98163197D01*
X168486005Y-97996108D01*
X168451681Y-97972074D01*
X168408056Y-97917497D01*
X168400864Y-97847998D01*
X168432386Y-97785644D01*
X168435124Y-97782818D01*
X168456046Y-97761896D01*
X168479414Y-97738528D01*
X168581232Y-97598388D01*
X168659873Y-97444045D01*
X168713402Y-97279301D01*
X168740500Y-97108211D01*
X168740500Y-96134989D01*
X168713402Y-95963899D01*
X168659873Y-95799155D01*
X168581232Y-95644812D01*
X168479414Y-95504672D01*
X168356928Y-95382186D01*
X168216788Y-95280368D01*
X168062445Y-95201727D01*
X167897701Y-95148198D01*
X167897699Y-95148197D01*
X167897698Y-95148197D01*
X167766271Y-95127381D01*
X167726611Y-95121100D01*
X167553389Y-95121100D01*
X167513728Y-95127381D01*
X167382302Y-95148197D01*
X167217552Y-95201728D01*
X167063211Y-95280368D01*
X166983256Y-95338459D01*
X166923072Y-95382186D01*
X166923070Y-95382188D01*
X166923069Y-95382188D01*
X166800588Y-95504669D01*
X166800588Y-95504670D01*
X166800586Y-95504672D01*
X166800350Y-95504997D01*
X166698768Y-95644811D01*
X166620128Y-95799152D01*
X166566597Y-95963902D01*
X166539500Y-96134989D01*
X166539500Y-97108211D01*
X166566598Y-97279301D01*
X166620127Y-97444045D01*
X166698768Y-97598388D01*
X166800586Y-97738528D01*
X166800588Y-97738530D01*
X166823954Y-97761896D01*
X166857439Y-97823219D01*
X166852455Y-97892911D01*
X166810583Y-97948844D01*
X166807398Y-97951151D01*
X166743201Y-97996103D01*
X166743195Y-97996108D01*
X166576105Y-98163197D01*
X166446175Y-98348758D01*
X166391598Y-98392383D01*
X166322100Y-98399577D01*
X166259745Y-98368054D01*
X166243025Y-98348758D01*
X166113094Y-98163197D01*
X165946005Y-97996108D01*
X165911681Y-97972074D01*
X165868056Y-97917497D01*
X165860864Y-97847998D01*
X165892386Y-97785644D01*
X165895124Y-97782818D01*
X165916046Y-97761896D01*
X165939414Y-97738528D01*
X166041232Y-97598388D01*
X166119873Y-97444045D01*
X166173402Y-97279301D01*
X166200500Y-97108211D01*
X166200500Y-96134989D01*
X166173402Y-95963899D01*
X166119873Y-95799155D01*
X166041232Y-95644812D01*
X165939414Y-95504672D01*
X165816928Y-95382186D01*
X165676788Y-95280368D01*
X165522445Y-95201727D01*
X165357701Y-95148198D01*
X165357699Y-95148197D01*
X165357698Y-95148197D01*
X165226271Y-95127381D01*
X165186611Y-95121100D01*
X165013389Y-95121100D01*
X164973728Y-95127381D01*
X164842302Y-95148197D01*
X164677552Y-95201728D01*
X164523211Y-95280368D01*
X164443256Y-95338459D01*
X164383072Y-95382186D01*
X164383070Y-95382188D01*
X164383069Y-95382188D01*
X164260588Y-95504669D01*
X164260588Y-95504670D01*
X164260586Y-95504672D01*
X164260350Y-95504997D01*
X164158768Y-95644811D01*
X164080128Y-95799152D01*
X164026597Y-95963902D01*
X163999500Y-96134989D01*
X163999500Y-97108211D01*
X164026598Y-97279301D01*
X164080127Y-97444045D01*
X164158768Y-97598388D01*
X164260586Y-97738528D01*
X164260588Y-97738530D01*
X164283954Y-97761896D01*
X164317439Y-97823219D01*
X164312455Y-97892911D01*
X164270583Y-97948844D01*
X164267398Y-97951151D01*
X164203201Y-97996103D01*
X164203195Y-97996108D01*
X164036105Y-98163197D01*
X163906175Y-98348758D01*
X163851598Y-98392383D01*
X163782100Y-98399577D01*
X163719745Y-98368054D01*
X163703025Y-98348758D01*
X163573094Y-98163197D01*
X163406005Y-97996108D01*
X163371681Y-97972074D01*
X163328056Y-97917497D01*
X163320864Y-97847998D01*
X163352386Y-97785644D01*
X163355124Y-97782818D01*
X163376046Y-97761896D01*
X163399414Y-97738528D01*
X163501232Y-97598388D01*
X163579873Y-97444045D01*
X163633402Y-97279301D01*
X163660500Y-97108211D01*
X163660500Y-96134989D01*
X163633402Y-95963899D01*
X163579873Y-95799155D01*
X163501232Y-95644812D01*
X163399414Y-95504672D01*
X163276928Y-95382186D01*
X163136788Y-95280368D01*
X162982445Y-95201727D01*
X162817701Y-95148198D01*
X162817699Y-95148197D01*
X162817698Y-95148197D01*
X162686271Y-95127381D01*
X162646611Y-95121100D01*
X162473389Y-95121100D01*
X162433728Y-95127381D01*
X162302302Y-95148197D01*
X162137552Y-95201728D01*
X161983211Y-95280368D01*
X161903256Y-95338459D01*
X161843072Y-95382186D01*
X161843070Y-95382188D01*
X161843069Y-95382188D01*
X161720588Y-95504669D01*
X161720588Y-95504670D01*
X161720586Y-95504672D01*
X161720350Y-95504997D01*
X161618768Y-95644811D01*
X161540128Y-95799152D01*
X161486597Y-95963902D01*
X161459500Y-96134989D01*
X161459500Y-97108211D01*
X161486598Y-97279301D01*
X161540127Y-97444045D01*
X161618768Y-97598388D01*
X161720586Y-97738528D01*
X161720588Y-97738530D01*
X161743954Y-97761896D01*
X161777439Y-97823219D01*
X161772455Y-97892911D01*
X161730583Y-97948844D01*
X161727398Y-97951151D01*
X161663201Y-97996103D01*
X161663195Y-97996108D01*
X161496105Y-98163197D01*
X161366175Y-98348758D01*
X161311598Y-98392383D01*
X161242100Y-98399577D01*
X161179745Y-98368054D01*
X161163025Y-98348758D01*
X161033094Y-98163197D01*
X160866005Y-97996108D01*
X160831681Y-97972074D01*
X160788056Y-97917497D01*
X160780864Y-97847998D01*
X160812386Y-97785644D01*
X160815124Y-97782818D01*
X160836046Y-97761896D01*
X160859414Y-97738528D01*
X160961232Y-97598388D01*
X161039873Y-97444045D01*
X161093402Y-97279301D01*
X161120500Y-97108211D01*
X161120500Y-96134989D01*
X161093402Y-95963899D01*
X161039873Y-95799155D01*
X160961232Y-95644812D01*
X160859414Y-95504672D01*
X160736928Y-95382186D01*
X160596788Y-95280368D01*
X160442445Y-95201727D01*
X160277701Y-95148198D01*
X160277699Y-95148197D01*
X160277698Y-95148197D01*
X160146271Y-95127381D01*
X160106611Y-95121100D01*
X159933389Y-95121100D01*
X159893728Y-95127381D01*
X159762302Y-95148197D01*
X159597552Y-95201728D01*
X159443211Y-95280368D01*
X159363256Y-95338459D01*
X159303072Y-95382186D01*
X159303070Y-95382188D01*
X159303069Y-95382188D01*
X159180588Y-95504669D01*
X159180588Y-95504670D01*
X159180586Y-95504672D01*
X159180350Y-95504997D01*
X159078768Y-95644811D01*
X159000128Y-95799152D01*
X158946597Y-95963902D01*
X158919500Y-96134989D01*
X158919500Y-97108211D01*
X158946598Y-97279301D01*
X159000127Y-97444045D01*
X159078768Y-97598388D01*
X159180586Y-97738528D01*
X159180588Y-97738530D01*
X159203954Y-97761896D01*
X159237439Y-97823219D01*
X159232455Y-97892911D01*
X159190583Y-97948844D01*
X159187398Y-97951151D01*
X159123201Y-97996103D01*
X159123195Y-97996108D01*
X158956105Y-98163197D01*
X158826175Y-98348758D01*
X158771598Y-98392383D01*
X158702100Y-98399577D01*
X158639745Y-98368054D01*
X158623025Y-98348758D01*
X158493094Y-98163197D01*
X158326005Y-97996108D01*
X158291681Y-97972074D01*
X158248056Y-97917497D01*
X158240864Y-97847998D01*
X158272386Y-97785644D01*
X158275124Y-97782818D01*
X158296046Y-97761896D01*
X158319414Y-97738528D01*
X158421232Y-97598388D01*
X158499873Y-97444045D01*
X158553402Y-97279301D01*
X158580500Y-97108211D01*
X158580500Y-96134989D01*
X158553402Y-95963899D01*
X158499873Y-95799155D01*
X158421232Y-95644812D01*
X158319414Y-95504672D01*
X158196928Y-95382186D01*
X158056788Y-95280368D01*
X157902445Y-95201727D01*
X157737701Y-95148198D01*
X157737699Y-95148197D01*
X157737698Y-95148197D01*
X157606271Y-95127381D01*
X157566611Y-95121100D01*
X157393389Y-95121100D01*
X157353728Y-95127381D01*
X157222302Y-95148197D01*
X157057552Y-95201728D01*
X156903211Y-95280368D01*
X156823256Y-95338459D01*
X156763072Y-95382186D01*
X156763070Y-95382188D01*
X156763069Y-95382188D01*
X156640588Y-95504669D01*
X156640588Y-95504670D01*
X156640586Y-95504672D01*
X156640350Y-95504997D01*
X156538768Y-95644811D01*
X156460128Y-95799152D01*
X156406597Y-95963902D01*
X156379500Y-96134989D01*
X156379500Y-97108211D01*
X156406598Y-97279301D01*
X156460127Y-97444045D01*
X156538768Y-97598388D01*
X156640586Y-97738528D01*
X156640588Y-97738530D01*
X156663954Y-97761896D01*
X156697439Y-97823219D01*
X156692455Y-97892911D01*
X156650583Y-97948844D01*
X156647398Y-97951151D01*
X156583201Y-97996103D01*
X156583195Y-97996108D01*
X156416105Y-98163197D01*
X156286175Y-98348758D01*
X156231598Y-98392383D01*
X156162100Y-98399577D01*
X156099745Y-98368054D01*
X156083025Y-98348758D01*
X155953094Y-98163197D01*
X155786005Y-97996108D01*
X155751681Y-97972074D01*
X155708056Y-97917497D01*
X155700864Y-97847998D01*
X155732386Y-97785644D01*
X155735124Y-97782818D01*
X155756046Y-97761896D01*
X155779414Y-97738528D01*
X155881232Y-97598388D01*
X155959873Y-97444045D01*
X156013402Y-97279301D01*
X156040500Y-97108211D01*
X156040500Y-96134989D01*
X156013402Y-95963899D01*
X155959873Y-95799155D01*
X155881232Y-95644812D01*
X155779414Y-95504672D01*
X155656928Y-95382186D01*
X155516788Y-95280368D01*
X155362445Y-95201727D01*
X155197701Y-95148198D01*
X155197699Y-95148197D01*
X155197698Y-95148197D01*
X155066271Y-95127381D01*
X155026611Y-95121100D01*
X154853389Y-95121100D01*
X154813728Y-95127381D01*
X154682302Y-95148197D01*
X154517552Y-95201728D01*
X154363211Y-95280368D01*
X154283256Y-95338459D01*
X154223072Y-95382186D01*
X154223070Y-95382188D01*
X154223069Y-95382188D01*
X154100588Y-95504669D01*
X154100588Y-95504670D01*
X154100586Y-95504672D01*
X154100350Y-95504997D01*
X153998768Y-95644811D01*
X153920128Y-95799152D01*
X153866597Y-95963902D01*
X153839500Y-96134989D01*
X153839500Y-97108211D01*
X153866598Y-97279301D01*
X153920127Y-97444045D01*
X153998768Y-97598388D01*
X154100586Y-97738528D01*
X154100588Y-97738530D01*
X154123954Y-97761896D01*
X154157439Y-97823219D01*
X154152455Y-97892911D01*
X154110583Y-97948844D01*
X154107398Y-97951151D01*
X154043201Y-97996103D01*
X154043195Y-97996108D01*
X153876105Y-98163197D01*
X153746175Y-98348758D01*
X153691598Y-98392383D01*
X153622100Y-98399577D01*
X153559745Y-98368054D01*
X153543025Y-98348758D01*
X153413094Y-98163197D01*
X153246005Y-97996108D01*
X153211681Y-97972074D01*
X153168056Y-97917497D01*
X153160864Y-97847998D01*
X153192386Y-97785644D01*
X153195124Y-97782818D01*
X153216046Y-97761896D01*
X153239414Y-97738528D01*
X153341232Y-97598388D01*
X153419873Y-97444045D01*
X153473402Y-97279301D01*
X153500500Y-97108211D01*
X153500500Y-96134989D01*
X153473402Y-95963899D01*
X153419873Y-95799155D01*
X153341232Y-95644812D01*
X153239414Y-95504672D01*
X153116928Y-95382186D01*
X152976788Y-95280368D01*
X152822445Y-95201727D01*
X152657701Y-95148198D01*
X152657699Y-95148197D01*
X152657698Y-95148197D01*
X152526271Y-95127381D01*
X152486611Y-95121100D01*
X152313389Y-95121100D01*
X152273728Y-95127381D01*
X152142302Y-95148197D01*
X151977552Y-95201728D01*
X151823211Y-95280368D01*
X151743256Y-95338459D01*
X151683072Y-95382186D01*
X151683070Y-95382188D01*
X151683069Y-95382188D01*
X151560588Y-95504669D01*
X151560588Y-95504670D01*
X151560586Y-95504672D01*
X151560350Y-95504997D01*
X151458768Y-95644811D01*
X151380128Y-95799152D01*
X151326597Y-95963902D01*
X151299500Y-96134989D01*
X151299500Y-97108211D01*
X151326598Y-97279301D01*
X151380127Y-97444045D01*
X151458768Y-97598388D01*
X151560586Y-97738528D01*
X151560588Y-97738530D01*
X151583954Y-97761896D01*
X151617439Y-97823219D01*
X151612455Y-97892911D01*
X151570583Y-97948844D01*
X151567398Y-97951151D01*
X151503201Y-97996103D01*
X151503195Y-97996108D01*
X151336105Y-98163197D01*
X151206175Y-98348758D01*
X151151598Y-98392383D01*
X151082100Y-98399577D01*
X151019745Y-98368054D01*
X151003025Y-98348758D01*
X150873094Y-98163197D01*
X150706005Y-97996108D01*
X150671681Y-97972074D01*
X150628056Y-97917497D01*
X150620864Y-97847998D01*
X150652386Y-97785644D01*
X150655124Y-97782818D01*
X150676046Y-97761896D01*
X150699414Y-97738528D01*
X150801232Y-97598388D01*
X150879873Y-97444045D01*
X150933402Y-97279301D01*
X150960500Y-97108211D01*
X150960500Y-96134989D01*
X150933402Y-95963899D01*
X150879873Y-95799155D01*
X150801232Y-95644812D01*
X150699414Y-95504672D01*
X150576928Y-95382186D01*
X150436788Y-95280368D01*
X150282445Y-95201727D01*
X150117701Y-95148198D01*
X150117699Y-95148197D01*
X150117698Y-95148197D01*
X149986271Y-95127381D01*
X149946611Y-95121100D01*
X149773389Y-95121100D01*
X149733728Y-95127381D01*
X149602302Y-95148197D01*
X149437552Y-95201728D01*
X149283211Y-95280368D01*
X149203256Y-95338459D01*
X149143072Y-95382186D01*
X149143070Y-95382188D01*
X149143069Y-95382188D01*
X149020588Y-95504669D01*
X149020588Y-95504670D01*
X149020586Y-95504672D01*
X149020350Y-95504997D01*
X148918768Y-95644811D01*
X148840128Y-95799152D01*
X148786597Y-95963902D01*
X148759500Y-96134989D01*
X148759500Y-97108211D01*
X148786598Y-97279301D01*
X148840127Y-97444045D01*
X148918768Y-97598388D01*
X149020586Y-97738528D01*
X149020588Y-97738530D01*
X149043954Y-97761896D01*
X149077439Y-97823219D01*
X149072455Y-97892911D01*
X149030583Y-97948844D01*
X149027398Y-97951151D01*
X148963201Y-97996103D01*
X148963195Y-97996108D01*
X148796105Y-98163197D01*
X148666175Y-98348758D01*
X148611598Y-98392383D01*
X148542100Y-98399577D01*
X148479745Y-98368054D01*
X148463025Y-98348758D01*
X148333094Y-98163197D01*
X148166005Y-97996108D01*
X148131681Y-97972074D01*
X148088056Y-97917497D01*
X148080864Y-97847998D01*
X148112386Y-97785644D01*
X148115124Y-97782818D01*
X148136046Y-97761896D01*
X148159414Y-97738528D01*
X148261232Y-97598388D01*
X148339873Y-97444045D01*
X148393402Y-97279301D01*
X148420500Y-97108211D01*
X148420500Y-96134989D01*
X148393402Y-95963899D01*
X148339873Y-95799155D01*
X148261232Y-95644812D01*
X148159414Y-95504672D01*
X148036928Y-95382186D01*
X147896788Y-95280368D01*
X147742445Y-95201727D01*
X147577701Y-95148198D01*
X147577699Y-95148197D01*
X147577698Y-95148197D01*
X147446271Y-95127381D01*
X147406611Y-95121100D01*
X147233389Y-95121100D01*
X147193728Y-95127381D01*
X147062302Y-95148197D01*
X146897552Y-95201728D01*
X146743211Y-95280368D01*
X146663256Y-95338459D01*
X146603072Y-95382186D01*
X146603070Y-95382188D01*
X146603069Y-95382188D01*
X146480588Y-95504669D01*
X146480588Y-95504670D01*
X146480586Y-95504672D01*
X146480350Y-95504997D01*
X146378768Y-95644811D01*
X146300128Y-95799152D01*
X146246597Y-95963902D01*
X146219500Y-96134989D01*
X146219500Y-97108211D01*
X146246598Y-97279301D01*
X146300127Y-97444045D01*
X146378768Y-97598388D01*
X146480586Y-97738528D01*
X146480588Y-97738530D01*
X146503954Y-97761896D01*
X146537439Y-97823219D01*
X146532455Y-97892911D01*
X146490583Y-97948844D01*
X146487398Y-97951151D01*
X146423201Y-97996103D01*
X146423195Y-97996108D01*
X146256105Y-98163197D01*
X146126175Y-98348758D01*
X146071598Y-98392383D01*
X146002100Y-98399577D01*
X145939745Y-98368054D01*
X145923025Y-98348758D01*
X145793094Y-98163197D01*
X145626005Y-97996108D01*
X145591681Y-97972074D01*
X145548056Y-97917497D01*
X145540864Y-97847998D01*
X145572386Y-97785644D01*
X145575124Y-97782818D01*
X145596046Y-97761896D01*
X145619414Y-97738528D01*
X145721232Y-97598388D01*
X145799873Y-97444045D01*
X145853402Y-97279301D01*
X145880500Y-97108211D01*
X145880500Y-96134989D01*
X145853402Y-95963899D01*
X145799873Y-95799155D01*
X145721232Y-95644812D01*
X145619414Y-95504672D01*
X145496928Y-95382186D01*
X145356788Y-95280368D01*
X145202445Y-95201727D01*
X145037701Y-95148198D01*
X145037699Y-95148197D01*
X145037698Y-95148197D01*
X144906271Y-95127381D01*
X144866611Y-95121100D01*
X144693389Y-95121100D01*
X144653728Y-95127381D01*
X144522302Y-95148197D01*
X144357552Y-95201728D01*
X144203211Y-95280368D01*
X144123256Y-95338459D01*
X144063072Y-95382186D01*
X144063070Y-95382188D01*
X144063069Y-95382188D01*
X143940588Y-95504669D01*
X143940588Y-95504670D01*
X143940586Y-95504672D01*
X143940350Y-95504997D01*
X143838768Y-95644811D01*
X143760128Y-95799152D01*
X143706597Y-95963902D01*
X143679500Y-96134989D01*
X143679500Y-97108211D01*
X143706598Y-97279301D01*
X143760127Y-97444045D01*
X143838768Y-97598388D01*
X143940586Y-97738528D01*
X143940588Y-97738530D01*
X143963954Y-97761896D01*
X143997439Y-97823219D01*
X143992455Y-97892911D01*
X143950583Y-97948844D01*
X143947398Y-97951151D01*
X143883201Y-97996103D01*
X143883195Y-97996108D01*
X143716105Y-98163197D01*
X143586175Y-98348758D01*
X143531598Y-98392383D01*
X143462100Y-98399577D01*
X143399745Y-98368054D01*
X143383025Y-98348758D01*
X143253094Y-98163197D01*
X143086005Y-97996108D01*
X143051681Y-97972074D01*
X143008056Y-97917497D01*
X143000864Y-97847998D01*
X143032386Y-97785644D01*
X143035124Y-97782818D01*
X143056046Y-97761896D01*
X143079414Y-97738528D01*
X143181232Y-97598388D01*
X143259873Y-97444045D01*
X143313402Y-97279301D01*
X143340500Y-97108211D01*
X143340500Y-96134989D01*
X143313402Y-95963899D01*
X143259873Y-95799155D01*
X143181232Y-95644812D01*
X143079414Y-95504672D01*
X142956928Y-95382186D01*
X142816788Y-95280368D01*
X142662445Y-95201727D01*
X142497701Y-95148198D01*
X142497699Y-95148197D01*
X142497698Y-95148197D01*
X142366271Y-95127381D01*
X142326611Y-95121100D01*
X142153389Y-95121100D01*
X142113728Y-95127381D01*
X141982302Y-95148197D01*
X141817552Y-95201728D01*
X141663211Y-95280368D01*
X141583256Y-95338459D01*
X141523072Y-95382186D01*
X141523070Y-95382188D01*
X141523069Y-95382188D01*
X141400588Y-95504669D01*
X141400588Y-95504670D01*
X141400586Y-95504672D01*
X141400350Y-95504997D01*
X141298768Y-95644811D01*
X141220128Y-95799152D01*
X141166597Y-95963902D01*
X141139500Y-96134989D01*
X141139500Y-97108211D01*
X141166598Y-97279301D01*
X141220127Y-97444045D01*
X141298768Y-97598388D01*
X141400586Y-97738528D01*
X141400588Y-97738530D01*
X141423954Y-97761896D01*
X141457439Y-97823219D01*
X141452455Y-97892911D01*
X141410583Y-97948844D01*
X141407398Y-97951151D01*
X141343201Y-97996103D01*
X141343195Y-97996108D01*
X141176105Y-98163197D01*
X141046175Y-98348758D01*
X140991598Y-98392383D01*
X140922100Y-98399577D01*
X140859745Y-98368054D01*
X140843025Y-98348758D01*
X140713094Y-98163197D01*
X140546005Y-97996108D01*
X140511681Y-97972074D01*
X140468056Y-97917497D01*
X140460864Y-97847998D01*
X140492386Y-97785644D01*
X140495124Y-97782818D01*
X140516046Y-97761896D01*
X140539414Y-97738528D01*
X140641232Y-97598388D01*
X140719873Y-97444045D01*
X140773402Y-97279301D01*
X140800500Y-97108211D01*
X140800500Y-96134989D01*
X140773402Y-95963899D01*
X140719873Y-95799155D01*
X140641232Y-95644812D01*
X140539414Y-95504672D01*
X140416928Y-95382186D01*
X140276788Y-95280368D01*
X140122445Y-95201727D01*
X139957701Y-95148198D01*
X139957699Y-95148197D01*
X139957698Y-95148197D01*
X139826271Y-95127381D01*
X139786611Y-95121100D01*
X139613389Y-95121100D01*
X139573728Y-95127381D01*
X139442302Y-95148197D01*
X139277552Y-95201728D01*
X139123211Y-95280368D01*
X139043256Y-95338459D01*
X138983072Y-95382186D01*
X138983070Y-95382188D01*
X138983069Y-95382188D01*
X138860588Y-95504669D01*
X138860588Y-95504670D01*
X138860586Y-95504672D01*
X138860350Y-95504997D01*
X138758768Y-95644811D01*
X138680128Y-95799152D01*
X138626597Y-95963902D01*
X138599500Y-96134989D01*
X138599500Y-97108211D01*
X138626598Y-97279301D01*
X138680127Y-97444045D01*
X138758768Y-97598388D01*
X138860586Y-97738528D01*
X138860588Y-97738530D01*
X138883954Y-97761896D01*
X138917439Y-97823219D01*
X138912455Y-97892911D01*
X138870583Y-97948844D01*
X138867398Y-97951151D01*
X138803201Y-97996103D01*
X138803195Y-97996108D01*
X138636105Y-98163197D01*
X138506175Y-98348758D01*
X138451598Y-98392383D01*
X138382100Y-98399577D01*
X138319745Y-98368054D01*
X138303025Y-98348758D01*
X138173094Y-98163197D01*
X138006005Y-97996108D01*
X137971681Y-97972074D01*
X137928056Y-97917497D01*
X137920864Y-97847998D01*
X137952386Y-97785644D01*
X137955124Y-97782818D01*
X137976046Y-97761896D01*
X137999414Y-97738528D01*
X138101232Y-97598388D01*
X138179873Y-97444045D01*
X138233402Y-97279301D01*
X138260500Y-97108211D01*
X138260500Y-96134989D01*
X138233402Y-95963899D01*
X138179873Y-95799155D01*
X138101232Y-95644812D01*
X137999414Y-95504672D01*
X137876928Y-95382186D01*
X137736788Y-95280368D01*
X137582445Y-95201727D01*
X137417701Y-95148198D01*
X137417699Y-95148197D01*
X137417698Y-95148197D01*
X137286271Y-95127381D01*
X137246611Y-95121100D01*
X137073389Y-95121100D01*
X137033728Y-95127381D01*
X136902302Y-95148197D01*
X136737552Y-95201728D01*
X136583211Y-95280368D01*
X136503256Y-95338459D01*
X136443072Y-95382186D01*
X136443070Y-95382188D01*
X136443069Y-95382188D01*
X136320588Y-95504669D01*
X136320588Y-95504670D01*
X136320586Y-95504672D01*
X136320350Y-95504997D01*
X136218768Y-95644811D01*
X136140128Y-95799152D01*
X136086597Y-95963902D01*
X136059500Y-96134989D01*
X136059500Y-97108211D01*
X136086598Y-97279301D01*
X136140127Y-97444045D01*
X136218768Y-97598388D01*
X136320586Y-97738528D01*
X136320588Y-97738530D01*
X136343954Y-97761896D01*
X136377439Y-97823219D01*
X136372455Y-97892911D01*
X136330583Y-97948844D01*
X136327398Y-97951151D01*
X136263201Y-97996103D01*
X136263195Y-97996108D01*
X136096105Y-98163197D01*
X135966175Y-98348758D01*
X135911598Y-98392383D01*
X135842100Y-98399577D01*
X135779745Y-98368054D01*
X135763025Y-98348758D01*
X135633094Y-98163197D01*
X135466005Y-97996108D01*
X135431681Y-97972074D01*
X135388056Y-97917497D01*
X135380864Y-97847998D01*
X135412386Y-97785644D01*
X135415124Y-97782818D01*
X135436046Y-97761896D01*
X135459414Y-97738528D01*
X135561232Y-97598388D01*
X135639873Y-97444045D01*
X135693402Y-97279301D01*
X135720500Y-97108211D01*
X135720500Y-96134989D01*
X135693402Y-95963899D01*
X135639873Y-95799155D01*
X135561232Y-95644812D01*
X135459414Y-95504672D01*
X135336928Y-95382186D01*
X135196788Y-95280368D01*
X135042445Y-95201727D01*
X134877701Y-95148198D01*
X134877699Y-95148197D01*
X134877698Y-95148197D01*
X134746271Y-95127381D01*
X134706611Y-95121100D01*
X134533389Y-95121100D01*
X134493728Y-95127381D01*
X134362302Y-95148197D01*
X134197552Y-95201728D01*
X134043211Y-95280368D01*
X133963256Y-95338459D01*
X133903072Y-95382186D01*
X133903070Y-95382188D01*
X133903069Y-95382188D01*
X133780588Y-95504669D01*
X133780588Y-95504670D01*
X133780586Y-95504672D01*
X133780350Y-95504997D01*
X133678768Y-95644811D01*
X133600128Y-95799152D01*
X133546597Y-95963902D01*
X133519500Y-96134989D01*
X133519500Y-97108211D01*
X133546598Y-97279301D01*
X133600127Y-97444045D01*
X133678768Y-97598388D01*
X133780586Y-97738528D01*
X133780588Y-97738530D01*
X133803954Y-97761896D01*
X133837439Y-97823219D01*
X133832455Y-97892911D01*
X133790583Y-97948844D01*
X133787398Y-97951151D01*
X133723201Y-97996103D01*
X133723195Y-97996108D01*
X133556105Y-98163197D01*
X133426175Y-98348758D01*
X133371598Y-98392383D01*
X133302100Y-98399577D01*
X133239745Y-98368054D01*
X133223025Y-98348758D01*
X133093094Y-98163197D01*
X132926005Y-97996108D01*
X132891681Y-97972074D01*
X132848056Y-97917497D01*
X132840864Y-97847998D01*
X132872386Y-97785644D01*
X132875124Y-97782818D01*
X132896046Y-97761896D01*
X132919414Y-97738528D01*
X133021232Y-97598388D01*
X133099873Y-97444045D01*
X133153402Y-97279301D01*
X133180500Y-97108211D01*
X133180500Y-96134989D01*
X133153402Y-95963899D01*
X133099873Y-95799155D01*
X133021232Y-95644812D01*
X132919414Y-95504672D01*
X132796928Y-95382186D01*
X132656788Y-95280368D01*
X132502445Y-95201727D01*
X132337701Y-95148198D01*
X132337699Y-95148197D01*
X132337698Y-95148197D01*
X132206271Y-95127381D01*
X132166611Y-95121100D01*
X131993389Y-95121100D01*
X131953728Y-95127381D01*
X131822302Y-95148197D01*
X131657552Y-95201728D01*
X131503211Y-95280368D01*
X131423256Y-95338459D01*
X131363072Y-95382186D01*
X131363070Y-95382188D01*
X131363069Y-95382188D01*
X131240588Y-95504669D01*
X131240588Y-95504670D01*
X131240586Y-95504672D01*
X131240350Y-95504997D01*
X131138768Y-95644811D01*
X131060128Y-95799152D01*
X131006597Y-95963902D01*
X130979500Y-96134989D01*
X130979500Y-97108211D01*
X131006598Y-97279301D01*
X131060127Y-97444045D01*
X131138768Y-97598388D01*
X131240586Y-97738528D01*
X131240588Y-97738530D01*
X131263954Y-97761896D01*
X131297439Y-97823219D01*
X131292455Y-97892911D01*
X131250583Y-97948844D01*
X131247398Y-97951151D01*
X131183201Y-97996103D01*
X131183195Y-97996108D01*
X131016108Y-98163194D01*
X130885869Y-98349195D01*
X130831292Y-98392819D01*
X130761793Y-98400012D01*
X130699439Y-98368490D01*
X130682719Y-98349194D01*
X130552713Y-98163526D01*
X130552708Y-98163520D01*
X130385678Y-97996490D01*
X130350905Y-97972142D01*
X130307280Y-97917564D01*
X130300088Y-97848066D01*
X130331610Y-97785711D01*
X130334349Y-97782885D01*
X130379033Y-97738201D01*
X130480804Y-97598124D01*
X130559408Y-97443857D01*
X130612914Y-97279184D01*
X130640000Y-97108171D01*
X130640000Y-96871600D01*
X129855686Y-96871600D01*
X129860080Y-96867206D01*
X129912741Y-96775994D01*
X129940000Y-96674261D01*
X129940000Y-96568939D01*
X129912741Y-96467206D01*
X129860080Y-96375994D01*
X129855686Y-96371600D01*
X130640000Y-96371600D01*
X130640000Y-96135028D01*
X130612914Y-95964015D01*
X130559408Y-95799342D01*
X130480804Y-95645075D01*
X130379032Y-95504997D01*
X130256602Y-95382567D01*
X130116524Y-95280795D01*
X129962257Y-95202191D01*
X129797589Y-95148687D01*
X129797581Y-95148685D01*
X129790000Y-95147484D01*
X129790000Y-96305914D01*
X129785606Y-96301520D01*
X129694394Y-96248859D01*
X129592661Y-96221600D01*
X129487339Y-96221600D01*
X129385606Y-96248859D01*
X129294394Y-96301520D01*
X129290000Y-96305914D01*
X129290000Y-95147484D01*
X129289999Y-95147484D01*
X129282418Y-95148685D01*
X129282410Y-95148687D01*
X129117742Y-95202191D01*
X128963475Y-95280795D01*
X128823397Y-95382567D01*
X128700967Y-95504997D01*
X128599195Y-95645075D01*
X128520591Y-95799342D01*
X128467085Y-95964015D01*
X128440000Y-96135028D01*
X128440000Y-96371600D01*
X129224314Y-96371600D01*
X129219920Y-96375994D01*
X129167259Y-96467206D01*
X129140000Y-96568939D01*
X129140000Y-96674261D01*
X129167259Y-96775994D01*
X129219920Y-96867206D01*
X129224314Y-96871600D01*
X128440000Y-96871600D01*
X128440000Y-97108171D01*
X128467085Y-97279184D01*
X128520591Y-97443857D01*
X128599195Y-97598124D01*
X128700967Y-97738202D01*
X128724729Y-97761964D01*
X128758214Y-97823287D01*
X128753230Y-97892979D01*
X128711358Y-97948912D01*
X128708174Y-97951218D01*
X128643526Y-97996486D01*
X128643518Y-97996493D01*
X128476491Y-98163520D01*
X128476490Y-98163522D01*
X128346175Y-98349631D01*
X128291598Y-98393255D01*
X128222099Y-98400448D01*
X128159745Y-98368926D01*
X128143025Y-98349631D01*
X128012709Y-98163522D01*
X128012708Y-98163520D01*
X127845678Y-97996490D01*
X127810905Y-97972142D01*
X127767280Y-97917564D01*
X127760088Y-97848066D01*
X127791610Y-97785711D01*
X127794349Y-97782885D01*
X127839033Y-97738201D01*
X127940804Y-97598124D01*
X128019408Y-97443857D01*
X128072914Y-97279184D01*
X128100000Y-97108171D01*
X128100000Y-96871600D01*
X127315686Y-96871600D01*
X127320080Y-96867206D01*
X127372741Y-96775994D01*
X127400000Y-96674261D01*
X127400000Y-96568939D01*
X127372741Y-96467206D01*
X127320080Y-96375994D01*
X127315686Y-96371600D01*
X128100000Y-96371600D01*
X128100000Y-96135028D01*
X128072914Y-95964015D01*
X128019408Y-95799342D01*
X127940804Y-95645075D01*
X127839032Y-95504997D01*
X127716602Y-95382567D01*
X127576524Y-95280795D01*
X127422257Y-95202191D01*
X127257589Y-95148687D01*
X127257581Y-95148685D01*
X127250000Y-95147484D01*
X127250000Y-96305914D01*
X127245606Y-96301520D01*
X127154394Y-96248859D01*
X127052661Y-96221600D01*
X126947339Y-96221600D01*
X126845606Y-96248859D01*
X126754394Y-96301520D01*
X126750000Y-96305914D01*
X126750000Y-95147484D01*
X126749999Y-95147484D01*
X126742418Y-95148685D01*
X126742410Y-95148687D01*
X126577742Y-95202191D01*
X126423475Y-95280795D01*
X126283397Y-95382567D01*
X126160967Y-95504997D01*
X126059195Y-95645075D01*
X125980591Y-95799342D01*
X125927085Y-95964015D01*
X125900000Y-96135028D01*
X125900000Y-96371600D01*
X126684314Y-96371600D01*
X126679920Y-96375994D01*
X126627259Y-96467206D01*
X126600000Y-96568939D01*
X126600000Y-96674261D01*
X126627259Y-96775994D01*
X126679920Y-96867206D01*
X126684314Y-96871600D01*
X125900000Y-96871600D01*
X125900000Y-97108171D01*
X125927085Y-97279184D01*
X125980591Y-97443857D01*
X126059195Y-97598124D01*
X126160967Y-97738202D01*
X126184729Y-97761964D01*
X126218214Y-97823287D01*
X126213230Y-97892979D01*
X126171358Y-97948912D01*
X126168174Y-97951218D01*
X126103526Y-97996486D01*
X126103518Y-97996493D01*
X125936491Y-98163520D01*
X125936486Y-98163526D01*
X125801000Y-98357020D01*
X125800999Y-98357022D01*
X125701170Y-98571107D01*
X125701167Y-98571113D01*
X125643964Y-98784599D01*
X125643964Y-98784600D01*
X126541588Y-98784600D01*
X126508675Y-98841607D01*
X126474600Y-98968774D01*
X126474600Y-99100426D01*
X126508675Y-99227593D01*
X126541588Y-99284600D01*
X125643964Y-99284600D01*
X125701167Y-99498086D01*
X125701170Y-99498092D01*
X125800999Y-99712178D01*
X125936494Y-99905682D01*
X126103517Y-100072705D01*
X126297021Y-100208200D01*
X126511107Y-100308029D01*
X126511116Y-100308033D01*
X126724600Y-100365234D01*
X126724600Y-99467612D01*
X126781607Y-99500525D01*
X126908774Y-99534600D01*
X127040426Y-99534600D01*
X127167593Y-99500525D01*
X127224600Y-99467612D01*
X127224600Y-100365233D01*
X127438083Y-100308033D01*
X127438092Y-100308029D01*
X127652178Y-100208200D01*
X127845682Y-100072705D01*
X128012705Y-99905682D01*
X128143025Y-99719568D01*
X128197602Y-99675944D01*
X128267101Y-99668751D01*
X128329455Y-99700273D01*
X128346175Y-99719568D01*
X128476494Y-99905682D01*
X128643517Y-100072705D01*
X128837021Y-100208200D01*
X129051107Y-100308029D01*
X129051116Y-100308033D01*
X129264600Y-100365234D01*
X129264600Y-99467612D01*
X129321607Y-99500525D01*
X129448774Y-99534600D01*
X129580426Y-99534600D01*
X129707593Y-99500525D01*
X129764600Y-99467612D01*
X129764600Y-100365233D01*
X129978083Y-100308033D01*
X129978092Y-100308029D01*
X130192178Y-100208200D01*
X130385682Y-100072705D01*
X130552705Y-99905682D01*
X130682719Y-99720005D01*
X130737296Y-99676381D01*
X130806795Y-99669188D01*
X130869149Y-99700710D01*
X130885869Y-99720005D01*
X131016105Y-99906001D01*
X131183199Y-100073095D01*
X131259738Y-100126688D01*
X131376765Y-100208632D01*
X131376767Y-100208633D01*
X131376770Y-100208635D01*
X131590937Y-100308503D01*
X131819192Y-100369663D01*
X131989919Y-100384600D01*
X132054599Y-100390259D01*
X132054600Y-100390259D01*
X132054601Y-100390259D01*
X132119281Y-100384600D01*
X132290008Y-100369663D01*
X132518263Y-100308503D01*
X132732430Y-100208635D01*
X132926001Y-100073095D01*
X133093095Y-99906001D01*
X133223025Y-99720442D01*
X133277602Y-99676817D01*
X133347100Y-99669623D01*
X133409455Y-99701146D01*
X133426175Y-99720442D01*
X133555881Y-99905682D01*
X133556105Y-99906001D01*
X133723199Y-100073095D01*
X133799738Y-100126688D01*
X133916765Y-100208632D01*
X133916767Y-100208633D01*
X133916770Y-100208635D01*
X134130937Y-100308503D01*
X134359192Y-100369663D01*
X134529919Y-100384600D01*
X134594599Y-100390259D01*
X134594600Y-100390259D01*
X134594601Y-100390259D01*
X134659281Y-100384600D01*
X134830008Y-100369663D01*
X135058263Y-100308503D01*
X135272430Y-100208635D01*
X135466001Y-100073095D01*
X135633095Y-99906001D01*
X135763025Y-99720442D01*
X135817602Y-99676817D01*
X135887100Y-99669623D01*
X135949455Y-99701146D01*
X135966175Y-99720442D01*
X136095881Y-99905682D01*
X136096105Y-99906001D01*
X136263199Y-100073095D01*
X136339738Y-100126688D01*
X136456765Y-100208632D01*
X136456767Y-100208633D01*
X136456770Y-100208635D01*
X136670937Y-100308503D01*
X136899192Y-100369663D01*
X137069919Y-100384600D01*
X137134599Y-100390259D01*
X137134600Y-100390259D01*
X137134601Y-100390259D01*
X137199281Y-100384600D01*
X137370008Y-100369663D01*
X137598263Y-100308503D01*
X137812430Y-100208635D01*
X138006001Y-100073095D01*
X138173095Y-99906001D01*
X138303025Y-99720442D01*
X138357602Y-99676817D01*
X138427100Y-99669623D01*
X138489455Y-99701146D01*
X138506175Y-99720442D01*
X138635881Y-99905682D01*
X138636105Y-99906001D01*
X138803199Y-100073095D01*
X138879738Y-100126688D01*
X138996765Y-100208632D01*
X138996767Y-100208633D01*
X138996770Y-100208635D01*
X139210937Y-100308503D01*
X139439192Y-100369663D01*
X139609919Y-100384600D01*
X139674599Y-100390259D01*
X139674600Y-100390259D01*
X139674601Y-100390259D01*
X139739281Y-100384600D01*
X139910008Y-100369663D01*
X140138263Y-100308503D01*
X140352430Y-100208635D01*
X140546001Y-100073095D01*
X140713095Y-99906001D01*
X140843025Y-99720442D01*
X140897602Y-99676817D01*
X140967100Y-99669623D01*
X141029455Y-99701146D01*
X141046175Y-99720442D01*
X141175881Y-99905682D01*
X141176105Y-99906001D01*
X141343199Y-100073095D01*
X141419738Y-100126688D01*
X141536765Y-100208632D01*
X141536767Y-100208633D01*
X141536770Y-100208635D01*
X141750937Y-100308503D01*
X141979192Y-100369663D01*
X142149919Y-100384600D01*
X142214599Y-100390259D01*
X142214600Y-100390259D01*
X142214601Y-100390259D01*
X142279281Y-100384600D01*
X142450008Y-100369663D01*
X142678263Y-100308503D01*
X142892430Y-100208635D01*
X143086001Y-100073095D01*
X143253095Y-99906001D01*
X143383025Y-99720442D01*
X143437602Y-99676817D01*
X143507100Y-99669623D01*
X143569455Y-99701146D01*
X143586175Y-99720442D01*
X143715881Y-99905682D01*
X143716105Y-99906001D01*
X143883199Y-100073095D01*
X143959738Y-100126688D01*
X144076765Y-100208632D01*
X144076767Y-100208633D01*
X144076770Y-100208635D01*
X144290937Y-100308503D01*
X144519192Y-100369663D01*
X144689919Y-100384600D01*
X144754599Y-100390259D01*
X144754600Y-100390259D01*
X144754601Y-100390259D01*
X144819281Y-100384600D01*
X144990008Y-100369663D01*
X145218263Y-100308503D01*
X145432430Y-100208635D01*
X145626001Y-100073095D01*
X145793095Y-99906001D01*
X145923025Y-99720442D01*
X145977602Y-99676817D01*
X146047100Y-99669623D01*
X146109455Y-99701146D01*
X146126175Y-99720442D01*
X146255881Y-99905682D01*
X146256105Y-99906001D01*
X146423199Y-100073095D01*
X146499738Y-100126688D01*
X146616765Y-100208632D01*
X146616767Y-100208633D01*
X146616770Y-100208635D01*
X146830937Y-100308503D01*
X147059192Y-100369663D01*
X147229919Y-100384600D01*
X147294599Y-100390259D01*
X147294600Y-100390259D01*
X147294601Y-100390259D01*
X147359281Y-100384600D01*
X147530008Y-100369663D01*
X147758263Y-100308503D01*
X147972430Y-100208635D01*
X148166001Y-100073095D01*
X148333095Y-99906001D01*
X148463025Y-99720442D01*
X148517602Y-99676817D01*
X148587100Y-99669623D01*
X148649455Y-99701146D01*
X148666175Y-99720442D01*
X148795881Y-99905682D01*
X148796105Y-99906001D01*
X148963199Y-100073095D01*
X149039738Y-100126688D01*
X149156765Y-100208632D01*
X149156767Y-100208633D01*
X149156770Y-100208635D01*
X149370937Y-100308503D01*
X149599192Y-100369663D01*
X149769919Y-100384600D01*
X149834599Y-100390259D01*
X149834600Y-100390259D01*
X149834601Y-100390259D01*
X149899281Y-100384600D01*
X150070008Y-100369663D01*
X150298263Y-100308503D01*
X150512430Y-100208635D01*
X150706001Y-100073095D01*
X150873095Y-99906001D01*
X151003025Y-99720442D01*
X151057602Y-99676817D01*
X151127100Y-99669623D01*
X151189455Y-99701146D01*
X151206175Y-99720442D01*
X151335881Y-99905682D01*
X151336105Y-99906001D01*
X151503199Y-100073095D01*
X151579738Y-100126688D01*
X151696765Y-100208632D01*
X151696767Y-100208633D01*
X151696770Y-100208635D01*
X151910937Y-100308503D01*
X152139192Y-100369663D01*
X152309919Y-100384600D01*
X152374599Y-100390259D01*
X152374600Y-100390259D01*
X152374601Y-100390259D01*
X152439281Y-100384600D01*
X152610008Y-100369663D01*
X152838263Y-100308503D01*
X153052430Y-100208635D01*
X153246001Y-100073095D01*
X153413095Y-99906001D01*
X153543025Y-99720442D01*
X153597602Y-99676817D01*
X153667100Y-99669623D01*
X153729455Y-99701146D01*
X153746175Y-99720442D01*
X153875881Y-99905682D01*
X153876105Y-99906001D01*
X154043199Y-100073095D01*
X154119738Y-100126688D01*
X154236765Y-100208632D01*
X154236767Y-100208633D01*
X154236770Y-100208635D01*
X154450937Y-100308503D01*
X154679192Y-100369663D01*
X154849919Y-100384600D01*
X154914599Y-100390259D01*
X154914600Y-100390259D01*
X154914601Y-100390259D01*
X154979281Y-100384600D01*
X155150008Y-100369663D01*
X155378263Y-100308503D01*
X155592430Y-100208635D01*
X155786001Y-100073095D01*
X155953095Y-99906001D01*
X156083025Y-99720442D01*
X156137602Y-99676817D01*
X156207100Y-99669623D01*
X156269455Y-99701146D01*
X156286175Y-99720442D01*
X156415881Y-99905682D01*
X156416105Y-99906001D01*
X156583199Y-100073095D01*
X156659738Y-100126688D01*
X156776765Y-100208632D01*
X156776767Y-100208633D01*
X156776770Y-100208635D01*
X156990937Y-100308503D01*
X157219192Y-100369663D01*
X157389919Y-100384600D01*
X157454599Y-100390259D01*
X157454600Y-100390259D01*
X157454601Y-100390259D01*
X157519281Y-100384600D01*
X157690008Y-100369663D01*
X157918263Y-100308503D01*
X158132430Y-100208635D01*
X158326001Y-100073095D01*
X158493095Y-99906001D01*
X158623025Y-99720442D01*
X158677602Y-99676817D01*
X158747100Y-99669623D01*
X158809455Y-99701146D01*
X158826175Y-99720442D01*
X158955881Y-99905682D01*
X158956105Y-99906001D01*
X159123199Y-100073095D01*
X159199738Y-100126688D01*
X159316765Y-100208632D01*
X159316767Y-100208633D01*
X159316770Y-100208635D01*
X159530937Y-100308503D01*
X159759192Y-100369663D01*
X159929919Y-100384600D01*
X159994599Y-100390259D01*
X159994600Y-100390259D01*
X159994601Y-100390259D01*
X160059281Y-100384600D01*
X160230008Y-100369663D01*
X160458263Y-100308503D01*
X160672430Y-100208635D01*
X160866001Y-100073095D01*
X161033095Y-99906001D01*
X161163025Y-99720442D01*
X161217602Y-99676817D01*
X161287100Y-99669623D01*
X161349455Y-99701146D01*
X161366175Y-99720442D01*
X161495881Y-99905682D01*
X161496105Y-99906001D01*
X161663199Y-100073095D01*
X161739738Y-100126688D01*
X161856765Y-100208632D01*
X161856767Y-100208633D01*
X161856770Y-100208635D01*
X162070937Y-100308503D01*
X162299192Y-100369663D01*
X162469919Y-100384600D01*
X162534599Y-100390259D01*
X162534600Y-100390259D01*
X162534601Y-100390259D01*
X162599281Y-100384600D01*
X162770008Y-100369663D01*
X162998263Y-100308503D01*
X163212430Y-100208635D01*
X163406001Y-100073095D01*
X163573095Y-99906001D01*
X163703025Y-99720442D01*
X163757602Y-99676817D01*
X163827100Y-99669623D01*
X163889455Y-99701146D01*
X163906175Y-99720442D01*
X164035881Y-99905682D01*
X164036105Y-99906001D01*
X164203199Y-100073095D01*
X164279738Y-100126688D01*
X164396765Y-100208632D01*
X164396767Y-100208633D01*
X164396770Y-100208635D01*
X164610937Y-100308503D01*
X164839192Y-100369663D01*
X165009919Y-100384600D01*
X165074599Y-100390259D01*
X165074600Y-100390259D01*
X165074601Y-100390259D01*
X165139281Y-100384600D01*
X165310008Y-100369663D01*
X165538263Y-100308503D01*
X165752430Y-100208635D01*
X165946001Y-100073095D01*
X166113095Y-99906001D01*
X166243025Y-99720442D01*
X166297602Y-99676817D01*
X166367100Y-99669623D01*
X166429455Y-99701146D01*
X166446175Y-99720442D01*
X166575881Y-99905682D01*
X166576105Y-99906001D01*
X166743199Y-100073095D01*
X166819738Y-100126688D01*
X166936765Y-100208632D01*
X166936767Y-100208633D01*
X166936770Y-100208635D01*
X167150937Y-100308503D01*
X167379192Y-100369663D01*
X167549919Y-100384600D01*
X167614599Y-100390259D01*
X167614600Y-100390259D01*
X167614601Y-100390259D01*
X167679281Y-100384600D01*
X167850008Y-100369663D01*
X168078263Y-100308503D01*
X168292430Y-100208635D01*
X168486001Y-100073095D01*
X168653095Y-99906001D01*
X168783025Y-99720442D01*
X168837602Y-99676817D01*
X168907100Y-99669623D01*
X168969455Y-99701146D01*
X168986175Y-99720442D01*
X169115881Y-99905682D01*
X169116105Y-99906001D01*
X169283199Y-100073095D01*
X169359738Y-100126688D01*
X169476765Y-100208632D01*
X169476767Y-100208633D01*
X169476770Y-100208635D01*
X169690937Y-100308503D01*
X169919192Y-100369663D01*
X170089919Y-100384600D01*
X170154599Y-100390259D01*
X170154600Y-100390259D01*
X170154601Y-100390259D01*
X170219281Y-100384600D01*
X170390008Y-100369663D01*
X170618263Y-100308503D01*
X170832430Y-100208635D01*
X171026001Y-100073095D01*
X171193095Y-99906001D01*
X171323025Y-99720442D01*
X171377602Y-99676817D01*
X171447100Y-99669623D01*
X171509455Y-99701146D01*
X171526175Y-99720442D01*
X171655881Y-99905682D01*
X171656105Y-99906001D01*
X171823199Y-100073095D01*
X171899738Y-100126688D01*
X172016765Y-100208632D01*
X172016767Y-100208633D01*
X172016770Y-100208635D01*
X172230937Y-100308503D01*
X172459192Y-100369663D01*
X172629919Y-100384600D01*
X172694599Y-100390259D01*
X172694600Y-100390259D01*
X172694601Y-100390259D01*
X172759281Y-100384600D01*
X172930008Y-100369663D01*
X173158263Y-100308503D01*
X173372430Y-100208635D01*
X173566001Y-100073095D01*
X173733095Y-99906001D01*
X173863025Y-99720442D01*
X173917602Y-99676817D01*
X173987100Y-99669623D01*
X174049455Y-99701146D01*
X174066175Y-99720442D01*
X174195881Y-99905682D01*
X174196105Y-99906001D01*
X174363199Y-100073095D01*
X174439738Y-100126688D01*
X174556765Y-100208632D01*
X174556767Y-100208633D01*
X174556770Y-100208635D01*
X174770937Y-100308503D01*
X174999192Y-100369663D01*
X175169919Y-100384600D01*
X175234599Y-100390259D01*
X175234600Y-100390259D01*
X175234601Y-100390259D01*
X175299281Y-100384600D01*
X175470008Y-100369663D01*
X175698263Y-100308503D01*
X175912430Y-100208635D01*
X176106001Y-100073095D01*
X176273095Y-99906001D01*
X176403025Y-99720442D01*
X176457602Y-99676817D01*
X176527100Y-99669623D01*
X176589455Y-99701146D01*
X176606175Y-99720442D01*
X176735881Y-99905682D01*
X176736105Y-99906001D01*
X176903199Y-100073095D01*
X176979738Y-100126688D01*
X177096765Y-100208632D01*
X177096767Y-100208633D01*
X177096770Y-100208635D01*
X177310937Y-100308503D01*
X177539192Y-100369663D01*
X177709919Y-100384600D01*
X177774599Y-100390259D01*
X177774600Y-100390259D01*
X177774601Y-100390259D01*
X177839281Y-100384600D01*
X178010008Y-100369663D01*
X178238263Y-100308503D01*
X178452430Y-100208635D01*
X178646001Y-100073095D01*
X178768317Y-99950778D01*
X178829636Y-99917296D01*
X178899328Y-99922280D01*
X178955262Y-99964151D01*
X178972177Y-99995128D01*
X179021246Y-100126688D01*
X179021249Y-100126693D01*
X179107409Y-100241787D01*
X179107412Y-100241790D01*
X179222506Y-100327950D01*
X179222513Y-100327954D01*
X179357220Y-100378196D01*
X179357227Y-100378198D01*
X179416755Y-100384599D01*
X179416772Y-100384600D01*
X180064600Y-100384600D01*
X180064600Y-99467612D01*
X180121607Y-99500525D01*
X180248774Y-99534600D01*
X180380426Y-99534600D01*
X180507593Y-99500525D01*
X180564600Y-99467612D01*
X180564600Y-100384600D01*
X180724000Y-100384600D01*
X180791039Y-100404285D01*
X180836794Y-100457089D01*
X180848000Y-100508600D01*
X180848000Y-102946201D01*
X180828315Y-103013240D01*
X180775511Y-103058995D01*
X180706353Y-103068939D01*
X180683738Y-103063483D01*
X180568189Y-103023815D01*
X180322993Y-102982900D01*
X180074407Y-102982900D01*
X179829206Y-103023816D01*
X179594096Y-103104530D01*
X179594090Y-103104532D01*
X179375461Y-103222849D01*
X179328642Y-103259288D01*
X179328642Y-103259290D01*
X180171253Y-104101900D01*
X180148540Y-104101900D01*
X180051639Y-104127864D01*
X179964760Y-104178024D01*
X179893824Y-104248960D01*
X179843664Y-104335839D01*
X179817700Y-104432740D01*
X179817700Y-104455452D01*
X178975264Y-103613016D01*
X178874967Y-103766532D01*
X178775112Y-103994182D01*
X178714087Y-104235161D01*
X178714085Y-104235170D01*
X178693559Y-104482894D01*
X178693559Y-104482905D01*
X178714085Y-104730629D01*
X178714087Y-104730638D01*
X178775112Y-104971617D01*
X178874966Y-105199264D01*
X178975264Y-105352782D01*
X179817700Y-104510346D01*
X179817700Y-104533060D01*
X179843664Y-104629961D01*
X179893824Y-104716840D01*
X179964760Y-104787776D01*
X180051639Y-104837936D01*
X180148540Y-104863900D01*
X180171251Y-104863900D01*
X179313885Y-105721266D01*
X179310702Y-105735265D01*
X179278598Y-105772667D01*
X179128158Y-105889760D01*
X178959733Y-106072717D01*
X178823726Y-106280893D01*
X178723836Y-106508618D01*
X178662792Y-106749675D01*
X178662790Y-106749687D01*
X178642257Y-106997494D01*
X178642257Y-106997505D01*
X178662790Y-107245312D01*
X178662792Y-107245324D01*
X178723836Y-107486381D01*
X178823726Y-107714106D01*
X178959733Y-107922282D01*
X178959736Y-107922285D01*
X179128156Y-108105238D01*
X179188910Y-108152525D01*
X179214525Y-108172462D01*
X179255338Y-108229172D01*
X179259012Y-108298945D01*
X179224380Y-108359628D01*
X179214525Y-108368168D01*
X179102758Y-108455160D01*
X178934333Y-108638117D01*
X178798326Y-108846293D01*
X178698436Y-109074018D01*
X178637392Y-109315075D01*
X178637390Y-109315087D01*
X178616857Y-109562894D01*
X178616857Y-109562905D01*
X178637390Y-109810712D01*
X178637392Y-109810724D01*
X178698436Y-110051781D01*
X178798326Y-110279506D01*
X178934333Y-110487682D01*
X178934336Y-110487685D01*
X179102756Y-110670638D01*
X179230842Y-110770331D01*
X179271654Y-110827041D01*
X179275329Y-110896814D01*
X179240697Y-110957497D01*
X179230842Y-110966037D01*
X179128158Y-111045960D01*
X178959733Y-111228917D01*
X178823726Y-111437093D01*
X178723836Y-111664818D01*
X178662792Y-111905875D01*
X178662790Y-111905887D01*
X178642257Y-112153694D01*
X178642257Y-112153705D01*
X178662790Y-112401512D01*
X178662792Y-112401524D01*
X178723836Y-112642581D01*
X178823726Y-112870306D01*
X178959733Y-113078482D01*
X178959736Y-113078485D01*
X179128156Y-113261438D01*
X179324391Y-113414174D01*
X179543090Y-113532528D01*
X179778286Y-113613271D01*
X180023565Y-113654200D01*
X180272235Y-113654200D01*
X180517514Y-113613271D01*
X180683738Y-113556205D01*
X180753535Y-113553056D01*
X180813957Y-113588142D01*
X180845817Y-113650324D01*
X180848000Y-113673487D01*
X180848000Y-118375500D01*
X180828315Y-118442539D01*
X180775511Y-118488294D01*
X180724000Y-118499500D01*
X103125188Y-118499500D01*
X103058149Y-118479815D01*
X103012394Y-118427011D01*
X103002450Y-118357853D01*
X103031475Y-118294297D01*
X103045478Y-118280513D01*
X103062558Y-118266183D01*
X103302412Y-118011953D01*
X103511130Y-117731596D01*
X103685889Y-117428904D01*
X103824326Y-117107971D01*
X103924569Y-116773136D01*
X103948875Y-116635292D01*
X103985260Y-116428938D01*
X103985259Y-116428938D01*
X103985262Y-116428927D01*
X104005585Y-116080000D01*
X103985262Y-115731073D01*
X103979344Y-115697508D01*
X103924571Y-115386872D01*
X103924569Y-115386865D01*
X103838599Y-115099705D01*
X103824326Y-115052029D01*
X103685889Y-114731096D01*
X103511130Y-114428404D01*
X103511129Y-114428402D01*
X103302415Y-114148050D01*
X103302410Y-114148044D01*
X103186433Y-114025117D01*
X103062558Y-113893817D01*
X102816021Y-113686948D01*
X102794813Y-113669152D01*
X102794805Y-113669146D01*
X102502796Y-113477088D01*
X102190458Y-113320226D01*
X102190452Y-113320223D01*
X101862012Y-113200681D01*
X101862009Y-113200680D01*
X101521915Y-113120077D01*
X101478519Y-113115004D01*
X101174759Y-113079500D01*
X100825241Y-113079500D01*
X100521480Y-113115004D01*
X100478085Y-113120077D01*
X100478083Y-113120077D01*
X100137990Y-113200680D01*
X100137987Y-113200681D01*
X99809547Y-113320223D01*
X99809541Y-113320226D01*
X99497203Y-113477088D01*
X99205194Y-113669146D01*
X99205189Y-113669150D01*
X99204204Y-113669977D01*
X99203900Y-113670109D01*
X99202295Y-113671305D01*
X99202018Y-113670933D01*
X99140195Y-113697989D01*
X99071204Y-113686948D01*
X99019133Y-113640360D01*
X99000500Y-113574986D01*
X99000500Y-109805735D01*
X115830100Y-109805735D01*
X115830100Y-112901470D01*
X115830101Y-112901476D01*
X115836508Y-112961083D01*
X115886802Y-113095928D01*
X115886806Y-113095935D01*
X115973052Y-113211144D01*
X115973055Y-113211147D01*
X116088264Y-113297393D01*
X116088271Y-113297397D01*
X116223117Y-113347691D01*
X116223116Y-113347691D01*
X116230044Y-113348435D01*
X116282727Y-113354100D01*
X119378472Y-113354099D01*
X119438083Y-113347691D01*
X119572931Y-113297396D01*
X119688146Y-113211146D01*
X119774396Y-113095931D01*
X119824691Y-112961083D01*
X119831100Y-112901473D01*
X119831099Y-111353598D01*
X120905491Y-111353598D01*
X120905491Y-111353601D01*
X120925900Y-111638962D01*
X120986709Y-111918495D01*
X121086691Y-112186558D01*
X121223791Y-112437638D01*
X121223796Y-112437646D01*
X121330482Y-112580161D01*
X121330483Y-112580162D01*
X122225367Y-111685277D01*
X122237097Y-111713595D01*
X122320270Y-111838072D01*
X122426128Y-111943930D01*
X122550605Y-112027103D01*
X122578920Y-112038831D01*
X121684036Y-112933715D01*
X121826560Y-113040407D01*
X121826561Y-113040408D01*
X122077642Y-113177508D01*
X122077641Y-113177508D01*
X122345704Y-113277490D01*
X122625237Y-113338299D01*
X122910599Y-113358709D01*
X122910601Y-113358709D01*
X123195962Y-113338299D01*
X123475495Y-113277490D01*
X123743558Y-113177508D01*
X123994647Y-113040403D01*
X124137161Y-112933716D01*
X124137162Y-112933715D01*
X123242279Y-112038831D01*
X123270595Y-112027103D01*
X123395072Y-111943930D01*
X123500930Y-111838072D01*
X123584103Y-111713595D01*
X123595831Y-111685278D01*
X124490715Y-112580162D01*
X124490716Y-112580161D01*
X124597403Y-112437647D01*
X124734508Y-112186558D01*
X124834490Y-111918495D01*
X124895299Y-111638962D01*
X124915709Y-111353601D01*
X124915709Y-111353598D01*
X125984990Y-111353598D01*
X125984990Y-111353601D01*
X126005404Y-111639033D01*
X126066228Y-111918637D01*
X126066230Y-111918643D01*
X126066231Y-111918646D01*
X126128052Y-112084393D01*
X126166235Y-112186766D01*
X126303370Y-112437909D01*
X126303375Y-112437917D01*
X126474854Y-112666987D01*
X126474870Y-112667005D01*
X126677194Y-112869329D01*
X126677212Y-112869345D01*
X126906282Y-113040824D01*
X126906290Y-113040829D01*
X127157433Y-113177964D01*
X127157432Y-113177964D01*
X127157436Y-113177965D01*
X127157439Y-113177967D01*
X127425554Y-113277969D01*
X127425560Y-113277970D01*
X127425562Y-113277971D01*
X127705166Y-113338795D01*
X127705168Y-113338795D01*
X127705172Y-113338796D01*
X127958820Y-113356937D01*
X127990599Y-113359210D01*
X127990600Y-113359210D01*
X127990601Y-113359210D01*
X128019195Y-113357164D01*
X128276028Y-113338796D01*
X128466342Y-113297396D01*
X128555637Y-113277971D01*
X128555637Y-113277970D01*
X128555646Y-113277969D01*
X128823761Y-113177967D01*
X129074915Y-113040826D01*
X129303995Y-112869339D01*
X129506339Y-112666995D01*
X129677826Y-112437915D01*
X129814967Y-112186761D01*
X129914969Y-111918646D01*
X129975796Y-111639028D01*
X129996210Y-111353600D01*
X129996210Y-111353598D01*
X131064990Y-111353598D01*
X131064990Y-111353601D01*
X131085404Y-111639033D01*
X131146228Y-111918637D01*
X131146230Y-111918643D01*
X131146231Y-111918646D01*
X131208052Y-112084393D01*
X131246235Y-112186766D01*
X131383370Y-112437909D01*
X131383375Y-112437917D01*
X131554854Y-112666987D01*
X131554870Y-112667005D01*
X131757194Y-112869329D01*
X131757212Y-112869345D01*
X131986282Y-113040824D01*
X131986290Y-113040829D01*
X132237433Y-113177964D01*
X132237432Y-113177964D01*
X132237436Y-113177965D01*
X132237439Y-113177967D01*
X132505554Y-113277969D01*
X132505560Y-113277970D01*
X132505562Y-113277971D01*
X132785166Y-113338795D01*
X132785168Y-113338795D01*
X132785172Y-113338796D01*
X133038820Y-113356937D01*
X133070599Y-113359210D01*
X133070600Y-113359210D01*
X133070601Y-113359210D01*
X133099195Y-113357164D01*
X133356028Y-113338796D01*
X133546342Y-113297396D01*
X133635637Y-113277971D01*
X133635637Y-113277970D01*
X133635646Y-113277969D01*
X133903761Y-113177967D01*
X134154915Y-113040826D01*
X134383995Y-112869339D01*
X134586339Y-112666995D01*
X134757826Y-112437915D01*
X134894967Y-112186761D01*
X134994969Y-111918646D01*
X135055796Y-111639028D01*
X135076210Y-111353600D01*
X135055796Y-111068172D01*
X135033815Y-110967128D01*
X134994971Y-110788562D01*
X134994970Y-110788560D01*
X134994969Y-110788554D01*
X134894967Y-110520439D01*
X134890951Y-110513085D01*
X134757829Y-110269290D01*
X134757824Y-110269282D01*
X134586345Y-110040212D01*
X134586329Y-110040194D01*
X134384005Y-109837870D01*
X134383987Y-109837854D01*
X134154917Y-109666375D01*
X134154909Y-109666370D01*
X133903766Y-109529235D01*
X133903767Y-109529235D01*
X133796515Y-109489232D01*
X133635646Y-109429231D01*
X133635643Y-109429230D01*
X133635637Y-109429228D01*
X133468171Y-109392798D01*
X137708732Y-109392798D01*
X137708732Y-109392801D01*
X137728564Y-109619486D01*
X137728566Y-109619497D01*
X137787458Y-109839288D01*
X137787461Y-109839297D01*
X137883631Y-110045532D01*
X137883632Y-110045534D01*
X138014154Y-110231941D01*
X138175058Y-110392845D01*
X138175061Y-110392847D01*
X138361466Y-110523368D01*
X138567704Y-110619539D01*
X138787508Y-110678435D01*
X138949430Y-110692601D01*
X139014198Y-110698268D01*
X139014200Y-110698268D01*
X139014202Y-110698268D01*
X139070873Y-110693309D01*
X139240892Y-110678435D01*
X139460696Y-110619539D01*
X139666934Y-110523368D01*
X139853339Y-110392847D01*
X140014247Y-110231939D01*
X140144768Y-110045534D01*
X140240939Y-109839296D01*
X140299835Y-109619492D01*
X140319668Y-109392800D01*
X140315791Y-109348491D01*
X140313001Y-109316598D01*
X150840532Y-109316598D01*
X150840532Y-109316601D01*
X150860364Y-109543286D01*
X150860366Y-109543297D01*
X150919258Y-109763088D01*
X150919261Y-109763097D01*
X151015431Y-109969332D01*
X151015432Y-109969334D01*
X151145954Y-110155741D01*
X151306858Y-110316645D01*
X151306861Y-110316647D01*
X151493266Y-110447168D01*
X151699504Y-110543339D01*
X151919308Y-110602235D01*
X152081230Y-110616401D01*
X152145998Y-110622068D01*
X152146000Y-110622068D01*
X152146002Y-110622068D01*
X152202673Y-110617109D01*
X152372692Y-110602235D01*
X152592496Y-110543339D01*
X152798734Y-110447168D01*
X152985139Y-110316647D01*
X153146047Y-110155739D01*
X153276568Y-109969334D01*
X153372739Y-109763096D01*
X153431635Y-109543292D01*
X153444802Y-109392798D01*
X156047532Y-109392798D01*
X156047532Y-109392801D01*
X156067364Y-109619486D01*
X156067366Y-109619497D01*
X156126258Y-109839288D01*
X156126261Y-109839297D01*
X156222431Y-110045532D01*
X156222432Y-110045534D01*
X156352954Y-110231941D01*
X156513858Y-110392845D01*
X156513861Y-110392847D01*
X156700266Y-110523368D01*
X156906504Y-110619539D01*
X157126308Y-110678435D01*
X157288230Y-110692601D01*
X157352998Y-110698268D01*
X157353000Y-110698268D01*
X157353002Y-110698268D01*
X157409673Y-110693309D01*
X157579692Y-110678435D01*
X157799496Y-110619539D01*
X158005734Y-110523368D01*
X158192139Y-110392847D01*
X158353047Y-110231939D01*
X158483568Y-110045534D01*
X158579739Y-109839296D01*
X158638635Y-109619492D01*
X158658468Y-109392800D01*
X158654591Y-109348491D01*
X158638635Y-109166113D01*
X158638635Y-109166108D01*
X158579739Y-108946304D01*
X158483568Y-108740066D01*
X158353047Y-108553661D01*
X158353045Y-108553658D01*
X158192141Y-108392754D01*
X158005734Y-108262232D01*
X158005732Y-108262231D01*
X157799497Y-108166061D01*
X157799488Y-108166058D01*
X157579697Y-108107166D01*
X157579693Y-108107165D01*
X157579692Y-108107165D01*
X157579691Y-108107164D01*
X157579686Y-108107164D01*
X157353002Y-108087332D01*
X157352998Y-108087332D01*
X157126313Y-108107164D01*
X157126302Y-108107166D01*
X156906511Y-108166058D01*
X156906502Y-108166061D01*
X156700267Y-108262231D01*
X156700265Y-108262232D01*
X156513858Y-108392754D01*
X156352954Y-108553658D01*
X156222432Y-108740065D01*
X156222431Y-108740067D01*
X156126261Y-108946302D01*
X156126258Y-108946311D01*
X156067366Y-109166102D01*
X156067364Y-109166113D01*
X156047532Y-109392798D01*
X153444802Y-109392798D01*
X153451468Y-109316600D01*
X153431635Y-109089908D01*
X153372739Y-108870104D01*
X153276568Y-108663866D01*
X153146047Y-108477461D01*
X153146045Y-108477458D01*
X152985141Y-108316554D01*
X152798734Y-108186032D01*
X152798732Y-108186031D01*
X152592497Y-108089861D01*
X152592488Y-108089858D01*
X152372697Y-108030966D01*
X152372693Y-108030965D01*
X152372692Y-108030965D01*
X152372691Y-108030964D01*
X152372686Y-108030964D01*
X152146002Y-108011132D01*
X152145998Y-108011132D01*
X151919313Y-108030964D01*
X151919302Y-108030966D01*
X151699511Y-108089858D01*
X151699502Y-108089861D01*
X151493267Y-108186031D01*
X151493265Y-108186032D01*
X151306858Y-108316554D01*
X151145954Y-108477458D01*
X151015432Y-108663865D01*
X151015431Y-108663867D01*
X150919261Y-108870102D01*
X150919258Y-108870111D01*
X150860366Y-109089902D01*
X150860364Y-109089913D01*
X150840532Y-109316598D01*
X140313001Y-109316598D01*
X140299835Y-109166113D01*
X140299835Y-109166108D01*
X140240939Y-108946304D01*
X140144768Y-108740066D01*
X140014247Y-108553661D01*
X140014245Y-108553658D01*
X139853341Y-108392754D01*
X139666934Y-108262232D01*
X139666932Y-108262231D01*
X139460697Y-108166061D01*
X139460688Y-108166058D01*
X139240897Y-108107166D01*
X139240893Y-108107165D01*
X139240892Y-108107165D01*
X139240891Y-108107164D01*
X139240886Y-108107164D01*
X139014202Y-108087332D01*
X139014198Y-108087332D01*
X138787513Y-108107164D01*
X138787502Y-108107166D01*
X138567711Y-108166058D01*
X138567702Y-108166061D01*
X138361467Y-108262231D01*
X138361465Y-108262232D01*
X138175058Y-108392754D01*
X138014154Y-108553658D01*
X137883632Y-108740065D01*
X137883631Y-108740067D01*
X137787461Y-108946302D01*
X137787458Y-108946311D01*
X137728566Y-109166102D01*
X137728564Y-109166113D01*
X137708732Y-109392798D01*
X133468171Y-109392798D01*
X133356033Y-109368404D01*
X133070601Y-109347990D01*
X133070599Y-109347990D01*
X132785166Y-109368404D01*
X132505562Y-109429228D01*
X132237433Y-109529235D01*
X131986290Y-109666370D01*
X131986282Y-109666375D01*
X131757212Y-109837854D01*
X131757194Y-109837870D01*
X131554870Y-110040194D01*
X131554854Y-110040212D01*
X131383375Y-110269282D01*
X131383370Y-110269290D01*
X131246235Y-110520433D01*
X131146228Y-110788562D01*
X131085404Y-111068166D01*
X131064990Y-111353598D01*
X129996210Y-111353598D01*
X129975796Y-111068172D01*
X129953815Y-110967128D01*
X129914971Y-110788562D01*
X129914970Y-110788560D01*
X129914969Y-110788554D01*
X129814967Y-110520439D01*
X129810951Y-110513085D01*
X129677829Y-110269290D01*
X129677824Y-110269282D01*
X129506345Y-110040212D01*
X129506329Y-110040194D01*
X129304005Y-109837870D01*
X129303987Y-109837854D01*
X129074917Y-109666375D01*
X129074909Y-109666370D01*
X128823766Y-109529235D01*
X128823767Y-109529235D01*
X128716515Y-109489232D01*
X128555646Y-109429231D01*
X128555643Y-109429230D01*
X128555637Y-109429228D01*
X128276033Y-109368404D01*
X127990601Y-109347990D01*
X127990599Y-109347990D01*
X127705166Y-109368404D01*
X127425562Y-109429228D01*
X127157433Y-109529235D01*
X126906290Y-109666370D01*
X126906282Y-109666375D01*
X126677212Y-109837854D01*
X126677194Y-109837870D01*
X126474870Y-110040194D01*
X126474854Y-110040212D01*
X126303375Y-110269282D01*
X126303370Y-110269290D01*
X126166235Y-110520433D01*
X126066228Y-110788562D01*
X126005404Y-111068166D01*
X125984990Y-111353598D01*
X124915709Y-111353598D01*
X124895299Y-111068237D01*
X124834490Y-110788704D01*
X124734508Y-110520641D01*
X124597408Y-110269561D01*
X124597407Y-110269560D01*
X124490715Y-110127036D01*
X123595831Y-111021920D01*
X123584103Y-110993605D01*
X123500930Y-110869128D01*
X123395072Y-110763270D01*
X123270595Y-110680097D01*
X123242278Y-110668367D01*
X124137162Y-109773483D01*
X124137161Y-109773482D01*
X123994646Y-109666796D01*
X123994638Y-109666791D01*
X123743557Y-109529691D01*
X123743558Y-109529691D01*
X123475495Y-109429709D01*
X123195962Y-109368900D01*
X122910601Y-109348491D01*
X122910599Y-109348491D01*
X122625237Y-109368900D01*
X122345704Y-109429709D01*
X122077641Y-109529691D01*
X121826561Y-109666791D01*
X121826553Y-109666796D01*
X121684037Y-109773482D01*
X121684036Y-109773483D01*
X122578921Y-110668367D01*
X122550605Y-110680097D01*
X122426128Y-110763270D01*
X122320270Y-110869128D01*
X122237097Y-110993605D01*
X122225368Y-111021921D01*
X121330483Y-110127036D01*
X121330482Y-110127037D01*
X121223796Y-110269553D01*
X121223791Y-110269561D01*
X121086691Y-110520641D01*
X120986709Y-110788704D01*
X120925900Y-111068237D01*
X120905491Y-111353598D01*
X119831099Y-111353598D01*
X119831099Y-109805728D01*
X119824691Y-109746117D01*
X119795106Y-109666796D01*
X119774397Y-109611271D01*
X119774393Y-109611264D01*
X119688147Y-109496055D01*
X119688144Y-109496052D01*
X119572935Y-109409806D01*
X119572928Y-109409802D01*
X119438082Y-109359508D01*
X119438083Y-109359508D01*
X119378483Y-109353101D01*
X119378481Y-109353100D01*
X119378473Y-109353100D01*
X119378464Y-109353100D01*
X116282729Y-109353100D01*
X116282723Y-109353101D01*
X116223116Y-109359508D01*
X116088271Y-109409802D01*
X116088264Y-109409806D01*
X115973055Y-109496052D01*
X115973052Y-109496055D01*
X115886806Y-109611264D01*
X115886802Y-109611271D01*
X115836508Y-109746117D01*
X115830101Y-109805716D01*
X115830101Y-109805723D01*
X115830100Y-109805735D01*
X99000500Y-109805735D01*
X99000500Y-106997494D01*
X159516057Y-106997494D01*
X159516057Y-106997505D01*
X159536590Y-107245312D01*
X159536592Y-107245324D01*
X159597636Y-107486381D01*
X159697526Y-107714106D01*
X159833533Y-107922282D01*
X159833536Y-107922285D01*
X160001956Y-108105238D01*
X160130042Y-108204931D01*
X160170854Y-108261641D01*
X160174529Y-108331414D01*
X160139897Y-108392097D01*
X160130042Y-108400637D01*
X160027358Y-108480560D01*
X159858933Y-108663517D01*
X159722926Y-108871693D01*
X159623036Y-109099418D01*
X159561992Y-109340475D01*
X159561990Y-109340487D01*
X159541457Y-109588294D01*
X159541457Y-109588305D01*
X159561990Y-109836112D01*
X159561992Y-109836124D01*
X159623036Y-110077181D01*
X159722926Y-110304906D01*
X159858933Y-110513082D01*
X159858936Y-110513085D01*
X160027356Y-110696038D01*
X160223591Y-110848774D01*
X160442290Y-110967128D01*
X160677486Y-111047871D01*
X160922765Y-111088800D01*
X161171435Y-111088800D01*
X161416714Y-111047871D01*
X161651910Y-110967128D01*
X161870609Y-110848774D01*
X162066844Y-110696038D01*
X162235264Y-110513085D01*
X162371273Y-110304907D01*
X162471163Y-110077181D01*
X162532208Y-109836121D01*
X162532209Y-109836112D01*
X162552743Y-109588305D01*
X162552743Y-109588294D01*
X162532209Y-109340487D01*
X162532207Y-109340475D01*
X162471163Y-109099418D01*
X162371273Y-108871693D01*
X162235266Y-108663517D01*
X162216114Y-108642713D01*
X162066844Y-108480562D01*
X162066839Y-108480558D01*
X162066837Y-108480556D01*
X161938758Y-108380868D01*
X161897945Y-108324158D01*
X161894270Y-108254385D01*
X161928902Y-108193702D01*
X161938748Y-108185168D01*
X162041444Y-108105238D01*
X162209864Y-107922285D01*
X162345873Y-107714107D01*
X162445763Y-107486381D01*
X162506808Y-107245321D01*
X162527343Y-106997500D01*
X162506808Y-106749679D01*
X162445763Y-106508619D01*
X162345873Y-106280893D01*
X162209866Y-106072717D01*
X162188257Y-106049244D01*
X162041444Y-105889762D01*
X161845209Y-105737026D01*
X161845207Y-105737025D01*
X161845206Y-105737024D01*
X161626511Y-105618672D01*
X161626502Y-105618669D01*
X161391316Y-105537929D01*
X161146035Y-105497000D01*
X160897365Y-105497000D01*
X160652083Y-105537929D01*
X160416897Y-105618669D01*
X160416888Y-105618672D01*
X160198193Y-105737024D01*
X160001957Y-105889761D01*
X159833533Y-106072717D01*
X159697526Y-106280893D01*
X159597636Y-106508618D01*
X159536592Y-106749675D01*
X159536590Y-106749687D01*
X159516057Y-106997494D01*
X99000500Y-106997494D01*
X99000500Y-101166799D01*
X101491500Y-101166799D01*
X101491500Y-104166802D01*
X101496644Y-104238740D01*
X101537182Y-104376794D01*
X101614967Y-104497830D01*
X101614971Y-104497834D01*
X101723700Y-104592049D01*
X101723706Y-104592054D01*
X101751222Y-104604620D01*
X101854580Y-104651823D01*
X101854583Y-104651823D01*
X101854584Y-104651824D01*
X101997000Y-104672300D01*
X101997003Y-104672300D01*
X103997000Y-104672300D01*
X104068940Y-104667155D01*
X104206992Y-104626619D01*
X104215580Y-104621099D01*
X104282618Y-104601412D01*
X104334135Y-104612618D01*
X104419981Y-104651823D01*
X104419982Y-104651823D01*
X104419984Y-104651824D01*
X104562400Y-104672300D01*
X104562403Y-104672300D01*
X106562400Y-104672300D01*
X106634340Y-104667155D01*
X106772392Y-104626619D01*
X106893432Y-104548831D01*
X106987654Y-104440094D01*
X107045787Y-104312801D01*
X107047423Y-104309219D01*
X107047424Y-104309214D01*
X107047444Y-104309074D01*
X107067900Y-104166800D01*
X107067900Y-101192201D01*
X111626600Y-101192201D01*
X111626600Y-102442200D01*
X112842784Y-102442200D01*
X112826724Y-102458260D01*
X112776564Y-102545139D01*
X112750600Y-102642040D01*
X112750600Y-102742360D01*
X112776564Y-102839261D01*
X112826724Y-102926140D01*
X112842784Y-102942200D01*
X111626600Y-102942200D01*
X111626600Y-104192202D01*
X111631740Y-104264070D01*
X111672234Y-104401981D01*
X111749945Y-104522903D01*
X111858576Y-104617032D01*
X111858577Y-104617033D01*
X111989321Y-104676743D01*
X111989325Y-104676744D01*
X112131601Y-104697199D01*
X112131603Y-104697200D01*
X112881600Y-104697200D01*
X112881600Y-102981016D01*
X112897660Y-102997076D01*
X112984539Y-103047236D01*
X113081440Y-103073200D01*
X113181760Y-103073200D01*
X113278661Y-103047236D01*
X113365540Y-102997076D01*
X113381600Y-102981016D01*
X113381600Y-104697200D01*
X114131600Y-104697200D01*
X114131602Y-104697199D01*
X114203469Y-104692060D01*
X114341384Y-104651563D01*
X114341389Y-104651561D01*
X114383798Y-104624306D01*
X114450837Y-104604620D01*
X114502351Y-104615826D01*
X114580121Y-104651343D01*
X114580125Y-104651344D01*
X114722401Y-104671799D01*
X114722403Y-104671800D01*
X115472400Y-104671800D01*
X115472400Y-102955616D01*
X115488460Y-102971676D01*
X115575339Y-103021836D01*
X115672240Y-103047800D01*
X115772560Y-103047800D01*
X115869461Y-103021836D01*
X115956340Y-102971676D01*
X115972400Y-102955616D01*
X115972400Y-104671800D01*
X116722400Y-104671800D01*
X116722402Y-104671799D01*
X116794270Y-104666659D01*
X116932181Y-104626165D01*
X117053103Y-104548454D01*
X117147232Y-104439823D01*
X117147233Y-104439822D01*
X117205244Y-104312798D01*
X137708732Y-104312798D01*
X137708732Y-104312801D01*
X137728564Y-104539486D01*
X137728566Y-104539497D01*
X137787458Y-104759288D01*
X137787461Y-104759297D01*
X137883631Y-104965532D01*
X137883632Y-104965534D01*
X138014154Y-105151941D01*
X138175058Y-105312845D01*
X138175061Y-105312847D01*
X138361466Y-105443368D01*
X138567704Y-105539539D01*
X138787508Y-105598435D01*
X138949430Y-105612601D01*
X139014198Y-105618268D01*
X139014200Y-105618268D01*
X139014202Y-105618268D01*
X139070873Y-105613309D01*
X139240892Y-105598435D01*
X139460696Y-105539539D01*
X139666934Y-105443368D01*
X139853339Y-105312847D01*
X140014247Y-105151939D01*
X140144768Y-104965534D01*
X140240939Y-104759296D01*
X140299835Y-104539492D01*
X140319668Y-104312800D01*
X140319354Y-104309216D01*
X140313001Y-104236598D01*
X150840532Y-104236598D01*
X150840532Y-104236601D01*
X150860364Y-104463286D01*
X150860366Y-104463297D01*
X150919258Y-104683088D01*
X150919261Y-104683097D01*
X151015431Y-104889332D01*
X151015432Y-104889334D01*
X151145954Y-105075741D01*
X151306858Y-105236645D01*
X151306861Y-105236647D01*
X151493266Y-105367168D01*
X151699504Y-105463339D01*
X151919308Y-105522235D01*
X152081230Y-105536401D01*
X152145998Y-105542068D01*
X152146000Y-105542068D01*
X152146002Y-105542068D01*
X152202673Y-105537109D01*
X152372692Y-105522235D01*
X152592496Y-105463339D01*
X152798734Y-105367168D01*
X152985139Y-105236647D01*
X153146047Y-105075739D01*
X153276568Y-104889334D01*
X153372739Y-104683096D01*
X153431635Y-104463292D01*
X153444802Y-104312798D01*
X156047532Y-104312798D01*
X156047532Y-104312801D01*
X156067364Y-104539486D01*
X156067366Y-104539497D01*
X156126258Y-104759288D01*
X156126261Y-104759297D01*
X156222431Y-104965532D01*
X156222432Y-104965534D01*
X156352954Y-105151941D01*
X156513858Y-105312845D01*
X156513861Y-105312847D01*
X156700266Y-105443368D01*
X156906504Y-105539539D01*
X157126308Y-105598435D01*
X157288230Y-105612601D01*
X157352998Y-105618268D01*
X157353000Y-105618268D01*
X157353002Y-105618268D01*
X157409673Y-105613309D01*
X157579692Y-105598435D01*
X157799496Y-105539539D01*
X158005734Y-105443368D01*
X158192139Y-105312847D01*
X158353047Y-105151939D01*
X158483568Y-104965534D01*
X158579739Y-104759296D01*
X158638635Y-104539492D01*
X158658468Y-104312800D01*
X158658154Y-104309216D01*
X158647917Y-104192202D01*
X158638635Y-104086108D01*
X158579739Y-103866304D01*
X158483568Y-103660066D01*
X158353047Y-103473661D01*
X158353045Y-103473658D01*
X158192141Y-103312754D01*
X158005734Y-103182232D01*
X158005732Y-103182231D01*
X157799497Y-103086061D01*
X157799488Y-103086058D01*
X157579697Y-103027166D01*
X157579693Y-103027165D01*
X157579692Y-103027165D01*
X157579691Y-103027164D01*
X157579686Y-103027164D01*
X157353002Y-103007332D01*
X157352998Y-103007332D01*
X157126313Y-103027164D01*
X157126302Y-103027166D01*
X156906511Y-103086058D01*
X156906502Y-103086061D01*
X156700267Y-103182231D01*
X156700265Y-103182232D01*
X156513858Y-103312754D01*
X156352954Y-103473658D01*
X156222432Y-103660065D01*
X156222431Y-103660067D01*
X156126261Y-103866302D01*
X156126258Y-103866311D01*
X156067366Y-104086102D01*
X156067364Y-104086113D01*
X156047532Y-104312798D01*
X153444802Y-104312798D01*
X153451468Y-104236600D01*
X153431635Y-104009908D01*
X153372739Y-103790104D01*
X153276568Y-103583866D01*
X153146047Y-103397461D01*
X153146045Y-103397458D01*
X152985141Y-103236554D01*
X152798734Y-103106032D01*
X152798732Y-103106031D01*
X152592497Y-103009861D01*
X152592488Y-103009858D01*
X152372697Y-102950966D01*
X152372693Y-102950965D01*
X152372692Y-102950965D01*
X152372691Y-102950964D01*
X152372686Y-102950964D01*
X152146002Y-102931132D01*
X152145998Y-102931132D01*
X151919313Y-102950964D01*
X151919302Y-102950966D01*
X151699511Y-103009858D01*
X151699502Y-103009861D01*
X151493267Y-103106031D01*
X151493265Y-103106032D01*
X151306858Y-103236554D01*
X151145954Y-103397458D01*
X151015432Y-103583865D01*
X151015431Y-103583867D01*
X150919261Y-103790102D01*
X150919258Y-103790111D01*
X150860366Y-104009902D01*
X150860364Y-104009913D01*
X150840532Y-104236598D01*
X140313001Y-104236598D01*
X140309117Y-104192202D01*
X140299835Y-104086108D01*
X140240939Y-103866304D01*
X140144768Y-103660066D01*
X140014247Y-103473661D01*
X140014245Y-103473658D01*
X139853341Y-103312754D01*
X139666934Y-103182232D01*
X139666932Y-103182231D01*
X139460697Y-103086061D01*
X139460688Y-103086058D01*
X139240897Y-103027166D01*
X139240893Y-103027165D01*
X139240892Y-103027165D01*
X139240891Y-103027164D01*
X139240886Y-103027164D01*
X139014202Y-103007332D01*
X139014198Y-103007332D01*
X138787513Y-103027164D01*
X138787502Y-103027166D01*
X138567711Y-103086058D01*
X138567702Y-103086061D01*
X138361467Y-103182231D01*
X138361465Y-103182232D01*
X138175058Y-103312754D01*
X138014154Y-103473658D01*
X137883632Y-103660065D01*
X137883631Y-103660067D01*
X137787461Y-103866302D01*
X137787458Y-103866311D01*
X137728566Y-104086102D01*
X137728564Y-104086113D01*
X137708732Y-104312798D01*
X117205244Y-104312798D01*
X117206943Y-104309078D01*
X117206944Y-104309074D01*
X117227399Y-104166798D01*
X117227400Y-104166797D01*
X117227400Y-102916800D01*
X116011216Y-102916800D01*
X116027276Y-102900740D01*
X116077436Y-102813861D01*
X116103400Y-102716960D01*
X116103400Y-102616640D01*
X116077436Y-102519739D01*
X116027276Y-102432860D01*
X116011216Y-102416800D01*
X117227400Y-102416800D01*
X117227400Y-101166800D01*
X117227399Y-101166797D01*
X117222259Y-101094929D01*
X117181765Y-100957018D01*
X117104054Y-100836096D01*
X116995423Y-100741967D01*
X116995422Y-100741966D01*
X116864678Y-100682256D01*
X116864674Y-100682255D01*
X116722398Y-100661800D01*
X115972400Y-100661800D01*
X115972400Y-102377984D01*
X115956340Y-102361924D01*
X115869461Y-102311764D01*
X115772560Y-102285800D01*
X115672240Y-102285800D01*
X115575339Y-102311764D01*
X115488460Y-102361924D01*
X115472400Y-102377984D01*
X115472400Y-100661800D01*
X114722397Y-100661800D01*
X114650529Y-100666940D01*
X114512616Y-100707435D01*
X114470198Y-100734695D01*
X114403158Y-100754379D01*
X114351649Y-100743174D01*
X114273875Y-100707656D01*
X114273874Y-100707655D01*
X114131598Y-100687200D01*
X113381600Y-100687200D01*
X113381600Y-102403384D01*
X113365540Y-102387324D01*
X113278661Y-102337164D01*
X113181760Y-102311200D01*
X113081440Y-102311200D01*
X112984539Y-102337164D01*
X112897660Y-102387324D01*
X112881600Y-102403384D01*
X112881600Y-100687200D01*
X112131597Y-100687200D01*
X112059729Y-100692340D01*
X111921818Y-100732834D01*
X111800896Y-100810545D01*
X111706767Y-100919176D01*
X111706766Y-100919177D01*
X111647056Y-101049921D01*
X111647055Y-101049925D01*
X111626600Y-101192201D01*
X107067900Y-101192201D01*
X107067900Y-101166800D01*
X107062755Y-101094860D01*
X107022219Y-100956808D01*
X106944431Y-100835768D01*
X106915322Y-100810545D01*
X106835699Y-100741550D01*
X106835697Y-100741548D01*
X106835694Y-100741546D01*
X106835690Y-100741544D01*
X106704819Y-100681776D01*
X106704814Y-100681775D01*
X106562400Y-100661300D01*
X104562400Y-100661300D01*
X104562397Y-100661300D01*
X104490458Y-100666445D01*
X104352410Y-100706979D01*
X104352402Y-100706983D01*
X104343810Y-100712505D01*
X104276770Y-100732187D01*
X104225263Y-100720981D01*
X104139418Y-100681776D01*
X104139414Y-100681775D01*
X103997000Y-100661300D01*
X101997000Y-100661300D01*
X101996997Y-100661300D01*
X101925059Y-100666444D01*
X101787005Y-100706982D01*
X101665969Y-100784767D01*
X101665965Y-100784771D01*
X101571750Y-100893500D01*
X101571744Y-100893509D01*
X101511976Y-101024380D01*
X101511975Y-101024385D01*
X101491500Y-101166799D01*
X99000500Y-101166799D01*
X99000500Y-96297681D01*
X99020185Y-96230642D01*
X99072989Y-96184887D01*
X99142147Y-96174943D01*
X99176901Y-96185297D01*
X99358337Y-96269903D01*
X99586592Y-96331063D01*
X99774918Y-96347539D01*
X99821999Y-96351659D01*
X99822000Y-96351659D01*
X99822001Y-96351659D01*
X99861234Y-96348226D01*
X100057408Y-96331063D01*
X100285663Y-96269903D01*
X100499830Y-96170035D01*
X100693401Y-96034495D01*
X100860495Y-95867401D01*
X100996035Y-95673830D01*
X101095903Y-95459663D01*
X101157063Y-95231408D01*
X101177659Y-94996000D01*
X101157063Y-94760592D01*
X101095903Y-94532337D01*
X100996035Y-94318171D01*
X100860495Y-94124599D01*
X100860494Y-94124597D01*
X100693402Y-93957506D01*
X100693396Y-93957501D01*
X100507842Y-93827575D01*
X100464217Y-93772998D01*
X100457023Y-93703500D01*
X100488546Y-93641145D01*
X100507842Y-93624425D01*
X100643500Y-93529436D01*
X100693401Y-93494495D01*
X100860495Y-93327401D01*
X100996035Y-93133830D01*
X101095903Y-92919663D01*
X101157063Y-92691408D01*
X101177659Y-92456000D01*
X101157063Y-92220592D01*
X101095903Y-91992337D01*
X100996035Y-91778171D01*
X100864536Y-91590369D01*
X100860494Y-91584597D01*
X100693402Y-91417506D01*
X100693396Y-91417501D01*
X100507842Y-91287575D01*
X100464217Y-91232998D01*
X100457023Y-91163500D01*
X100488546Y-91101145D01*
X100507842Y-91084425D01*
X100650899Y-90984255D01*
X100693401Y-90954495D01*
X100860495Y-90787401D01*
X100996035Y-90593830D01*
X101095903Y-90379663D01*
X101157063Y-90151408D01*
X101177659Y-89916000D01*
X101157063Y-89680592D01*
X101095903Y-89452337D01*
X100996035Y-89238171D01*
X100860495Y-89044599D01*
X100738567Y-88922671D01*
X100705084Y-88861351D01*
X100710068Y-88791659D01*
X100751939Y-88735725D01*
X100782915Y-88718810D01*
X100914331Y-88669796D01*
X101029546Y-88583546D01*
X101115796Y-88468331D01*
X101166091Y-88333483D01*
X101172500Y-88273873D01*
X101172499Y-86478128D01*
X101166091Y-86418517D01*
X101115796Y-86283669D01*
X101115795Y-86283668D01*
X101115793Y-86283664D01*
X101029547Y-86168455D01*
X101029544Y-86168452D01*
X100914335Y-86082206D01*
X100914328Y-86082202D01*
X100779482Y-86031908D01*
X100779483Y-86031908D01*
X100719883Y-86025501D01*
X100719881Y-86025500D01*
X100719873Y-86025500D01*
X100719865Y-86025500D01*
X99124500Y-86025500D01*
X99057461Y-86005815D01*
X99011706Y-85953011D01*
X99000500Y-85901500D01*
X99000500Y-78332199D01*
X101516900Y-78332199D01*
X101516900Y-81332202D01*
X101522044Y-81404140D01*
X101562582Y-81542194D01*
X101640367Y-81663230D01*
X101640371Y-81663234D01*
X101749100Y-81757449D01*
X101749106Y-81757454D01*
X101776622Y-81770020D01*
X101879980Y-81817223D01*
X101879983Y-81817223D01*
X101879984Y-81817224D01*
X102022400Y-81837700D01*
X102022403Y-81837700D01*
X104022400Y-81837700D01*
X104094340Y-81832555D01*
X104232392Y-81792019D01*
X104240980Y-81786499D01*
X104308018Y-81766812D01*
X104359535Y-81778018D01*
X104445381Y-81817223D01*
X104445382Y-81817223D01*
X104445384Y-81817224D01*
X104587800Y-81837700D01*
X104587803Y-81837700D01*
X106587800Y-81837700D01*
X106659740Y-81832555D01*
X106797792Y-81792019D01*
X106918832Y-81714231D01*
X107013054Y-81605494D01*
X107072824Y-81474616D01*
X107093300Y-81332200D01*
X107093300Y-78357601D01*
X111652000Y-78357601D01*
X111652000Y-79607600D01*
X112868184Y-79607600D01*
X112852124Y-79623660D01*
X112801964Y-79710539D01*
X112776000Y-79807440D01*
X112776000Y-79907760D01*
X112801964Y-80004661D01*
X112852124Y-80091540D01*
X112868184Y-80107600D01*
X111652000Y-80107600D01*
X111652000Y-81357602D01*
X111657140Y-81429470D01*
X111697634Y-81567381D01*
X111775345Y-81688303D01*
X111883976Y-81782432D01*
X111883977Y-81782433D01*
X112014721Y-81842143D01*
X112014725Y-81842144D01*
X112157001Y-81862599D01*
X112157003Y-81862600D01*
X112907000Y-81862600D01*
X112907000Y-80146416D01*
X112923060Y-80162476D01*
X113009939Y-80212636D01*
X113106840Y-80238600D01*
X113207160Y-80238600D01*
X113304061Y-80212636D01*
X113390940Y-80162476D01*
X113407000Y-80146416D01*
X113407000Y-81862600D01*
X114157000Y-81862600D01*
X114157002Y-81862599D01*
X114228869Y-81857460D01*
X114366784Y-81816963D01*
X114366789Y-81816961D01*
X114409198Y-81789706D01*
X114476237Y-81770020D01*
X114527751Y-81781226D01*
X114605521Y-81816743D01*
X114605525Y-81816744D01*
X114747801Y-81837199D01*
X114747803Y-81837200D01*
X115497800Y-81837200D01*
X115497800Y-80121016D01*
X115513860Y-80137076D01*
X115600739Y-80187236D01*
X115697640Y-80213200D01*
X115797960Y-80213200D01*
X115894861Y-80187236D01*
X115981740Y-80137076D01*
X115997800Y-80121016D01*
X115997800Y-81837200D01*
X116747800Y-81837200D01*
X116747802Y-81837199D01*
X116819670Y-81832059D01*
X116957581Y-81791565D01*
X117078503Y-81713854D01*
X117172632Y-81605223D01*
X117172633Y-81605222D01*
X117232343Y-81474478D01*
X117232344Y-81474474D01*
X117252799Y-81332198D01*
X117252800Y-81332197D01*
X117252800Y-80082200D01*
X116036616Y-80082200D01*
X116052676Y-80066140D01*
X116102836Y-79979261D01*
X116128800Y-79882360D01*
X116128800Y-79782040D01*
X116102836Y-79685139D01*
X116099751Y-79679796D01*
X136354435Y-79679796D01*
X136354435Y-79679803D01*
X136374630Y-79859049D01*
X136374631Y-79859054D01*
X136434212Y-80029325D01*
X136440492Y-80039319D01*
X136459500Y-80105293D01*
X136459500Y-90379507D01*
X136440494Y-90445478D01*
X136434209Y-90455479D01*
X136374633Y-90625737D01*
X136374630Y-90625750D01*
X136354435Y-90804996D01*
X136354435Y-90805003D01*
X136374630Y-90984249D01*
X136374631Y-90984254D01*
X136434211Y-91154523D01*
X136514289Y-91281965D01*
X136530184Y-91307262D01*
X136657738Y-91434816D01*
X136810478Y-91530789D01*
X136964258Y-91584599D01*
X136980745Y-91590368D01*
X136980750Y-91590369D01*
X137159996Y-91610565D01*
X137160000Y-91610565D01*
X137160004Y-91610565D01*
X137339249Y-91590369D01*
X137339252Y-91590368D01*
X137339255Y-91590368D01*
X137509522Y-91530789D01*
X137662262Y-91434816D01*
X137789816Y-91307262D01*
X137885789Y-91154522D01*
X137945368Y-90984255D01*
X137948721Y-90954495D01*
X137965565Y-90805003D01*
X137965565Y-90804996D01*
X137945369Y-90625750D01*
X137945366Y-90625737D01*
X137885790Y-90455479D01*
X137879506Y-90445478D01*
X137860500Y-90379507D01*
X137860500Y-88137996D01*
X147784435Y-88137996D01*
X147784435Y-88138003D01*
X147804630Y-88317249D01*
X147804631Y-88317254D01*
X147864212Y-88487525D01*
X147870492Y-88497519D01*
X147889500Y-88563493D01*
X147889500Y-91827307D01*
X147870494Y-91893278D01*
X147864209Y-91903279D01*
X147804633Y-92073537D01*
X147804630Y-92073550D01*
X147784435Y-92252796D01*
X147784435Y-92252803D01*
X147804630Y-92432049D01*
X147804631Y-92432054D01*
X147864211Y-92602323D01*
X147960184Y-92755062D01*
X148087738Y-92882616D01*
X148240478Y-92978589D01*
X148410745Y-93038168D01*
X148410750Y-93038169D01*
X148589996Y-93058365D01*
X148590000Y-93058365D01*
X148590004Y-93058365D01*
X148769249Y-93038169D01*
X148769252Y-93038168D01*
X148769255Y-93038168D01*
X148939522Y-92978589D01*
X149092262Y-92882616D01*
X149219816Y-92755062D01*
X149315789Y-92602322D01*
X149375368Y-92432055D01*
X149395565Y-92252800D01*
X149391936Y-92220592D01*
X149375369Y-92073550D01*
X149375366Y-92073537D01*
X149315790Y-91903279D01*
X149309506Y-91893278D01*
X149290500Y-91827307D01*
X149290500Y-88563493D01*
X149309508Y-88497519D01*
X149315787Y-88487525D01*
X149315786Y-88487525D01*
X149315789Y-88487522D01*
X149375368Y-88317255D01*
X149395565Y-88138000D01*
X149375368Y-87958745D01*
X149315789Y-87788478D01*
X149219816Y-87635738D01*
X149092262Y-87508184D01*
X148939523Y-87412211D01*
X148769254Y-87352631D01*
X148769249Y-87352630D01*
X148590004Y-87332435D01*
X148589996Y-87332435D01*
X148410750Y-87352630D01*
X148410745Y-87352631D01*
X148240476Y-87412211D01*
X148087737Y-87508184D01*
X147960184Y-87635737D01*
X147864211Y-87788476D01*
X147804631Y-87958745D01*
X147804630Y-87958750D01*
X147784435Y-88137996D01*
X137860500Y-88137996D01*
X137860500Y-80105293D01*
X137879508Y-80039319D01*
X137885787Y-80029325D01*
X137885786Y-80029325D01*
X137885789Y-80029322D01*
X137945368Y-79859055D01*
X137951184Y-79807440D01*
X137965565Y-79679803D01*
X137965565Y-79679796D01*
X137945369Y-79500550D01*
X137945368Y-79500545D01*
X137930228Y-79457278D01*
X137892549Y-79349596D01*
X138843635Y-79349596D01*
X138843635Y-79349603D01*
X138863830Y-79528849D01*
X138863831Y-79528854D01*
X138923411Y-79699124D01*
X138980493Y-79789967D01*
X138999500Y-79855940D01*
X138999500Y-86188507D01*
X138980494Y-86254478D01*
X138974209Y-86264479D01*
X138914633Y-86434737D01*
X138914630Y-86434750D01*
X138894435Y-86613996D01*
X138894435Y-86614003D01*
X138914630Y-86793249D01*
X138914631Y-86793254D01*
X138974211Y-86963523D01*
X139070184Y-87116262D01*
X139197738Y-87243816D01*
X139350478Y-87339789D01*
X139520745Y-87399368D01*
X139520750Y-87399369D01*
X139699996Y-87419565D01*
X139700000Y-87419565D01*
X139700004Y-87419565D01*
X139879249Y-87399369D01*
X139879252Y-87399368D01*
X139879255Y-87399368D01*
X140049522Y-87339789D01*
X140202262Y-87243816D01*
X140329816Y-87116262D01*
X140425789Y-86963522D01*
X140485368Y-86793255D01*
X140505565Y-86614000D01*
X140490256Y-86478129D01*
X140485369Y-86434750D01*
X140485366Y-86434737D01*
X140425790Y-86264479D01*
X140419506Y-86254478D01*
X140400500Y-86188507D01*
X140400500Y-79781396D01*
X163964235Y-79781396D01*
X163964235Y-79781403D01*
X163984430Y-79960649D01*
X163984431Y-79960654D01*
X164044011Y-80130923D01*
X164139984Y-80283662D01*
X164267538Y-80411216D01*
X164420278Y-80507189D01*
X164590545Y-80566768D01*
X164590550Y-80566769D01*
X164769796Y-80586965D01*
X164769800Y-80586965D01*
X164769804Y-80586965D01*
X164949049Y-80566769D01*
X164949052Y-80566768D01*
X164949055Y-80566768D01*
X165099120Y-80514257D01*
X165140075Y-80507300D01*
X170973706Y-80507300D01*
X171039677Y-80526306D01*
X171049674Y-80532587D01*
X171049675Y-80532587D01*
X171049678Y-80532589D01*
X171205076Y-80586965D01*
X171219945Y-80592168D01*
X171219950Y-80592169D01*
X171399196Y-80612365D01*
X171399200Y-80612365D01*
X171399204Y-80612365D01*
X171578449Y-80592169D01*
X171578452Y-80592168D01*
X171578455Y-80592168D01*
X171748722Y-80532589D01*
X171901462Y-80436616D01*
X172029016Y-80309062D01*
X172124989Y-80156322D01*
X172184568Y-79986055D01*
X172184569Y-79986049D01*
X172204765Y-79806803D01*
X172204765Y-79806796D01*
X172184569Y-79627550D01*
X172184568Y-79627545D01*
X172177589Y-79607600D01*
X172124989Y-79457278D01*
X172029016Y-79304538D01*
X171901462Y-79176984D01*
X171861038Y-79151584D01*
X171748723Y-79081011D01*
X171578454Y-79021431D01*
X171578449Y-79021430D01*
X171399204Y-79001235D01*
X171399196Y-79001235D01*
X171219950Y-79021430D01*
X171219945Y-79021431D01*
X171049674Y-79081012D01*
X171039677Y-79087294D01*
X170973706Y-79106300D01*
X165235717Y-79106300D01*
X165169744Y-79087293D01*
X165119324Y-79055611D01*
X164949054Y-78996031D01*
X164949049Y-78996030D01*
X164769804Y-78975835D01*
X164769796Y-78975835D01*
X164590550Y-78996030D01*
X164590545Y-78996031D01*
X164420276Y-79055611D01*
X164267537Y-79151584D01*
X164139984Y-79279137D01*
X164044011Y-79431876D01*
X163984431Y-79602145D01*
X163984430Y-79602150D01*
X163964235Y-79781396D01*
X140400500Y-79781396D01*
X140400500Y-79647282D01*
X140407459Y-79606327D01*
X140408921Y-79602150D01*
X140434568Y-79528855D01*
X140454765Y-79349600D01*
X140435378Y-79177538D01*
X140434569Y-79170350D01*
X140434568Y-79170345D01*
X140382461Y-79021432D01*
X140374989Y-79000078D01*
X140372445Y-78996030D01*
X140308607Y-78894432D01*
X140279016Y-78847338D01*
X140151462Y-78719784D01*
X139998723Y-78623811D01*
X139828454Y-78564231D01*
X139828449Y-78564230D01*
X139649204Y-78544035D01*
X139649196Y-78544035D01*
X139469950Y-78564230D01*
X139469945Y-78564231D01*
X139299676Y-78623811D01*
X139146937Y-78719784D01*
X139019384Y-78847337D01*
X138923411Y-79000076D01*
X138863831Y-79170345D01*
X138863830Y-79170350D01*
X138843635Y-79349596D01*
X137892549Y-79349596D01*
X137885789Y-79330278D01*
X137869615Y-79304538D01*
X137789815Y-79177537D01*
X137662262Y-79049984D01*
X137509523Y-78954011D01*
X137339254Y-78894431D01*
X137339249Y-78894430D01*
X137160004Y-78874235D01*
X137159996Y-78874235D01*
X136980750Y-78894430D01*
X136980745Y-78894431D01*
X136810476Y-78954011D01*
X136657737Y-79049984D01*
X136530184Y-79177537D01*
X136434211Y-79330276D01*
X136374631Y-79500545D01*
X136374630Y-79500550D01*
X136354435Y-79679796D01*
X116099751Y-79679796D01*
X116052676Y-79598260D01*
X116036616Y-79582200D01*
X117252800Y-79582200D01*
X117252800Y-78332200D01*
X117252799Y-78332197D01*
X117247659Y-78260329D01*
X117207165Y-78122418D01*
X117129454Y-78001496D01*
X117020823Y-77907367D01*
X117020822Y-77907366D01*
X116890078Y-77847656D01*
X116890074Y-77847655D01*
X116747798Y-77827200D01*
X115997800Y-77827200D01*
X115997800Y-79543384D01*
X115981740Y-79527324D01*
X115894861Y-79477164D01*
X115797960Y-79451200D01*
X115697640Y-79451200D01*
X115600739Y-79477164D01*
X115513860Y-79527324D01*
X115497800Y-79543384D01*
X115497800Y-77827200D01*
X114747797Y-77827200D01*
X114675929Y-77832340D01*
X114538016Y-77872835D01*
X114495598Y-77900095D01*
X114428558Y-77919779D01*
X114377049Y-77908574D01*
X114299275Y-77873056D01*
X114299274Y-77873055D01*
X114156998Y-77852600D01*
X113407000Y-77852600D01*
X113407000Y-79568784D01*
X113390940Y-79552724D01*
X113304061Y-79502564D01*
X113207160Y-79476600D01*
X113106840Y-79476600D01*
X113009939Y-79502564D01*
X112923060Y-79552724D01*
X112907000Y-79568784D01*
X112907000Y-77852600D01*
X112156997Y-77852600D01*
X112085129Y-77857740D01*
X111947218Y-77898234D01*
X111826296Y-77975945D01*
X111732167Y-78084576D01*
X111732166Y-78084577D01*
X111672456Y-78215321D01*
X111672455Y-78215325D01*
X111652000Y-78357601D01*
X107093300Y-78357601D01*
X107093300Y-78332200D01*
X107088155Y-78260260D01*
X107047619Y-78122208D01*
X106969831Y-78001168D01*
X106940722Y-77975945D01*
X106861099Y-77906950D01*
X106861097Y-77906948D01*
X106861094Y-77906946D01*
X106861090Y-77906944D01*
X106730219Y-77847176D01*
X106730214Y-77847175D01*
X106587800Y-77826700D01*
X104587800Y-77826700D01*
X104587797Y-77826700D01*
X104515858Y-77831845D01*
X104377810Y-77872379D01*
X104377802Y-77872383D01*
X104369210Y-77877905D01*
X104302170Y-77897587D01*
X104250663Y-77886381D01*
X104164818Y-77847176D01*
X104164814Y-77847175D01*
X104022400Y-77826700D01*
X102022400Y-77826700D01*
X102022397Y-77826700D01*
X101950459Y-77831844D01*
X101812405Y-77872382D01*
X101691369Y-77950167D01*
X101691365Y-77950171D01*
X101597150Y-78058900D01*
X101597144Y-78058909D01*
X101537376Y-78189780D01*
X101537375Y-78189785D01*
X101516900Y-78332199D01*
X99000500Y-78332199D01*
X99000500Y-73271348D01*
X125902720Y-73271348D01*
X125902720Y-73507920D01*
X126687034Y-73507920D01*
X126682640Y-73512314D01*
X126629979Y-73603526D01*
X126602720Y-73705259D01*
X126602720Y-73810581D01*
X126629979Y-73912314D01*
X126682640Y-74003526D01*
X126687034Y-74007920D01*
X125902720Y-74007920D01*
X125902720Y-74244491D01*
X125929805Y-74415504D01*
X125983311Y-74580177D01*
X126061915Y-74734444D01*
X126163687Y-74874522D01*
X126286117Y-74996952D01*
X126426195Y-75098724D01*
X126580464Y-75177328D01*
X126745135Y-75230834D01*
X126745134Y-75230834D01*
X126752719Y-75232035D01*
X126752720Y-75232034D01*
X126752720Y-74073606D01*
X126757114Y-74078000D01*
X126848326Y-74130661D01*
X126950059Y-74157920D01*
X127055381Y-74157920D01*
X127157114Y-74130661D01*
X127248326Y-74078000D01*
X127252720Y-74073606D01*
X127252720Y-75232035D01*
X127260304Y-75230834D01*
X127424975Y-75177328D01*
X127579244Y-75098724D01*
X127719322Y-74996952D01*
X127841752Y-74874522D01*
X127943524Y-74734444D01*
X128022128Y-74580177D01*
X128075634Y-74415504D01*
X128102720Y-74244491D01*
X128102720Y-74007920D01*
X127318406Y-74007920D01*
X127322800Y-74003526D01*
X127375461Y-73912314D01*
X127402720Y-73810581D01*
X127402720Y-73705259D01*
X127375461Y-73603526D01*
X127322800Y-73512314D01*
X127318406Y-73507920D01*
X128102720Y-73507920D01*
X128102720Y-73271348D01*
X128102714Y-73271309D01*
X128442220Y-73271309D01*
X128442220Y-74244531D01*
X128469318Y-74415621D01*
X128522847Y-74580365D01*
X128601488Y-74734708D01*
X128703306Y-74874848D01*
X128825792Y-74997334D01*
X128965932Y-75099152D01*
X129120275Y-75177793D01*
X129285019Y-75231322D01*
X129456109Y-75258420D01*
X129456110Y-75258420D01*
X129629330Y-75258420D01*
X129629331Y-75258420D01*
X129800421Y-75231322D01*
X129965165Y-75177793D01*
X130119508Y-75099152D01*
X130259648Y-74997334D01*
X130382134Y-74874848D01*
X130483952Y-74734708D01*
X130562593Y-74580365D01*
X130616122Y-74415621D01*
X130643220Y-74244531D01*
X130643220Y-73271309D01*
X130982220Y-73271309D01*
X130982220Y-74244531D01*
X131009318Y-74415621D01*
X131062847Y-74580365D01*
X131141488Y-74734708D01*
X131243306Y-74874848D01*
X131365792Y-74997334D01*
X131505932Y-75099152D01*
X131660275Y-75177793D01*
X131825019Y-75231322D01*
X131996109Y-75258420D01*
X131996110Y-75258420D01*
X132169330Y-75258420D01*
X132169331Y-75258420D01*
X132340421Y-75231322D01*
X132505165Y-75177793D01*
X132659508Y-75099152D01*
X132799648Y-74997334D01*
X132922134Y-74874848D01*
X133023952Y-74734708D01*
X133102593Y-74580365D01*
X133156122Y-74415621D01*
X133183220Y-74244531D01*
X133183220Y-73274989D01*
X133519500Y-73274989D01*
X133519500Y-74248210D01*
X133546014Y-74415617D01*
X133546598Y-74419301D01*
X133600127Y-74584045D01*
X133678768Y-74738388D01*
X133780586Y-74878528D01*
X133903072Y-75001014D01*
X134043212Y-75102832D01*
X134197555Y-75181473D01*
X134362299Y-75235002D01*
X134533389Y-75262100D01*
X134533390Y-75262100D01*
X134706610Y-75262100D01*
X134706611Y-75262100D01*
X134877701Y-75235002D01*
X135042445Y-75181473D01*
X135196788Y-75102832D01*
X135336928Y-75001014D01*
X135459414Y-74878528D01*
X135561232Y-74738388D01*
X135639873Y-74584045D01*
X135693402Y-74419301D01*
X135720500Y-74248211D01*
X135720500Y-73274989D01*
X136059500Y-73274989D01*
X136059500Y-74248210D01*
X136086014Y-74415617D01*
X136086598Y-74419301D01*
X136140127Y-74584045D01*
X136218768Y-74738388D01*
X136320586Y-74878528D01*
X136443072Y-75001014D01*
X136583212Y-75102832D01*
X136737555Y-75181473D01*
X136902299Y-75235002D01*
X137073389Y-75262100D01*
X137073390Y-75262100D01*
X137246610Y-75262100D01*
X137246611Y-75262100D01*
X137417701Y-75235002D01*
X137582445Y-75181473D01*
X137736788Y-75102832D01*
X137876928Y-75001014D01*
X137999414Y-74878528D01*
X138101232Y-74738388D01*
X138179873Y-74584045D01*
X138233402Y-74419301D01*
X138260500Y-74248211D01*
X138260500Y-73274989D01*
X138599500Y-73274989D01*
X138599500Y-74248210D01*
X138626014Y-74415617D01*
X138626598Y-74419301D01*
X138680127Y-74584045D01*
X138758768Y-74738388D01*
X138860586Y-74878528D01*
X138983072Y-75001014D01*
X139123212Y-75102832D01*
X139277555Y-75181473D01*
X139442299Y-75235002D01*
X139613389Y-75262100D01*
X139613390Y-75262100D01*
X139786610Y-75262100D01*
X139786611Y-75262100D01*
X139957701Y-75235002D01*
X140122445Y-75181473D01*
X140276788Y-75102832D01*
X140416928Y-75001014D01*
X140539414Y-74878528D01*
X140641232Y-74738388D01*
X140719873Y-74584045D01*
X140773402Y-74419301D01*
X140800500Y-74248211D01*
X140800500Y-73274989D01*
X141139500Y-73274989D01*
X141139500Y-74248210D01*
X141166014Y-74415617D01*
X141166598Y-74419301D01*
X141220127Y-74584045D01*
X141298768Y-74738388D01*
X141400586Y-74878528D01*
X141523072Y-75001014D01*
X141663212Y-75102832D01*
X141817555Y-75181473D01*
X141982299Y-75235002D01*
X142153389Y-75262100D01*
X142153390Y-75262100D01*
X142326610Y-75262100D01*
X142326611Y-75262100D01*
X142497701Y-75235002D01*
X142662445Y-75181473D01*
X142816788Y-75102832D01*
X142956928Y-75001014D01*
X143079414Y-74878528D01*
X143181232Y-74738388D01*
X143259873Y-74584045D01*
X143313402Y-74419301D01*
X143340500Y-74248211D01*
X143340500Y-73274989D01*
X143679500Y-73274989D01*
X143679500Y-74248210D01*
X143706014Y-74415617D01*
X143706598Y-74419301D01*
X143760127Y-74584045D01*
X143838768Y-74738388D01*
X143940586Y-74878528D01*
X144063072Y-75001014D01*
X144203212Y-75102832D01*
X144357555Y-75181473D01*
X144522299Y-75235002D01*
X144693389Y-75262100D01*
X144693390Y-75262100D01*
X144866610Y-75262100D01*
X144866611Y-75262100D01*
X145037701Y-75235002D01*
X145202445Y-75181473D01*
X145356788Y-75102832D01*
X145496928Y-75001014D01*
X145619414Y-74878528D01*
X145721232Y-74738388D01*
X145799873Y-74584045D01*
X145853402Y-74419301D01*
X145880500Y-74248211D01*
X145880500Y-73274989D01*
X146219500Y-73274989D01*
X146219500Y-74248210D01*
X146246014Y-74415617D01*
X146246598Y-74419301D01*
X146300127Y-74584045D01*
X146378768Y-74738388D01*
X146480586Y-74878528D01*
X146603072Y-75001014D01*
X146743212Y-75102832D01*
X146897555Y-75181473D01*
X147062299Y-75235002D01*
X147233389Y-75262100D01*
X147233390Y-75262100D01*
X147406610Y-75262100D01*
X147406611Y-75262100D01*
X147577701Y-75235002D01*
X147742445Y-75181473D01*
X147896788Y-75102832D01*
X148036928Y-75001014D01*
X148159414Y-74878528D01*
X148261232Y-74738388D01*
X148339873Y-74584045D01*
X148393402Y-74419301D01*
X148420500Y-74248211D01*
X148420500Y-73274989D01*
X148759500Y-73274989D01*
X148759500Y-74248210D01*
X148786014Y-74415617D01*
X148786598Y-74419301D01*
X148840127Y-74584045D01*
X148918768Y-74738388D01*
X149020586Y-74878528D01*
X149143072Y-75001014D01*
X149283212Y-75102832D01*
X149437555Y-75181473D01*
X149602299Y-75235002D01*
X149773389Y-75262100D01*
X149773390Y-75262100D01*
X149946610Y-75262100D01*
X149946611Y-75262100D01*
X150117701Y-75235002D01*
X150282445Y-75181473D01*
X150436788Y-75102832D01*
X150576928Y-75001014D01*
X150699414Y-74878528D01*
X150801232Y-74738388D01*
X150879873Y-74584045D01*
X150933402Y-74419301D01*
X150960500Y-74248211D01*
X150960500Y-73274989D01*
X151299500Y-73274989D01*
X151299500Y-74248210D01*
X151326014Y-74415617D01*
X151326598Y-74419301D01*
X151380127Y-74584045D01*
X151458768Y-74738388D01*
X151560586Y-74878528D01*
X151683072Y-75001014D01*
X151823212Y-75102832D01*
X151977555Y-75181473D01*
X152142299Y-75235002D01*
X152313389Y-75262100D01*
X152313390Y-75262100D01*
X152486610Y-75262100D01*
X152486611Y-75262100D01*
X152657701Y-75235002D01*
X152822445Y-75181473D01*
X152976788Y-75102832D01*
X153116928Y-75001014D01*
X153239414Y-74878528D01*
X153341232Y-74738388D01*
X153419873Y-74584045D01*
X153473402Y-74419301D01*
X153500500Y-74248211D01*
X153500500Y-73274989D01*
X153839500Y-73274989D01*
X153839500Y-74248210D01*
X153866014Y-74415617D01*
X153866598Y-74419301D01*
X153920127Y-74584045D01*
X153998768Y-74738388D01*
X154100586Y-74878528D01*
X154223072Y-75001014D01*
X154363212Y-75102832D01*
X154517555Y-75181473D01*
X154682299Y-75235002D01*
X154853389Y-75262100D01*
X154853390Y-75262100D01*
X155026610Y-75262100D01*
X155026611Y-75262100D01*
X155197701Y-75235002D01*
X155362445Y-75181473D01*
X155516788Y-75102832D01*
X155656928Y-75001014D01*
X155779414Y-74878528D01*
X155881232Y-74738388D01*
X155959873Y-74584045D01*
X156013402Y-74419301D01*
X156040500Y-74248211D01*
X156040500Y-73274989D01*
X156379500Y-73274989D01*
X156379500Y-74248210D01*
X156406014Y-74415617D01*
X156406598Y-74419301D01*
X156460127Y-74584045D01*
X156538768Y-74738388D01*
X156640586Y-74878528D01*
X156763072Y-75001014D01*
X156903212Y-75102832D01*
X157057555Y-75181473D01*
X157222299Y-75235002D01*
X157393389Y-75262100D01*
X157393390Y-75262100D01*
X157566610Y-75262100D01*
X157566611Y-75262100D01*
X157737701Y-75235002D01*
X157902445Y-75181473D01*
X158056788Y-75102832D01*
X158196928Y-75001014D01*
X158319414Y-74878528D01*
X158421232Y-74738388D01*
X158499873Y-74584045D01*
X158553402Y-74419301D01*
X158580500Y-74248211D01*
X158580500Y-73274989D01*
X158919500Y-73274989D01*
X158919500Y-74248210D01*
X158946014Y-74415617D01*
X158946598Y-74419301D01*
X159000127Y-74584045D01*
X159078768Y-74738388D01*
X159180586Y-74878528D01*
X159303072Y-75001014D01*
X159443212Y-75102832D01*
X159597555Y-75181473D01*
X159762299Y-75235002D01*
X159933389Y-75262100D01*
X159933390Y-75262100D01*
X160106610Y-75262100D01*
X160106611Y-75262100D01*
X160277701Y-75235002D01*
X160442445Y-75181473D01*
X160596788Y-75102832D01*
X160736928Y-75001014D01*
X160859414Y-74878528D01*
X160961232Y-74738388D01*
X161039873Y-74584045D01*
X161093402Y-74419301D01*
X161120500Y-74248211D01*
X161120500Y-73274989D01*
X161459500Y-73274989D01*
X161459500Y-74248210D01*
X161486014Y-74415617D01*
X161486598Y-74419301D01*
X161540127Y-74584045D01*
X161618768Y-74738388D01*
X161720586Y-74878528D01*
X161843072Y-75001014D01*
X161983212Y-75102832D01*
X162137555Y-75181473D01*
X162302299Y-75235002D01*
X162473389Y-75262100D01*
X162473390Y-75262100D01*
X162646610Y-75262100D01*
X162646611Y-75262100D01*
X162817701Y-75235002D01*
X162982445Y-75181473D01*
X163136788Y-75102832D01*
X163276928Y-75001014D01*
X163399414Y-74878528D01*
X163501232Y-74738388D01*
X163579873Y-74584045D01*
X163633402Y-74419301D01*
X163660500Y-74248211D01*
X163660500Y-73274989D01*
X163999500Y-73274989D01*
X163999500Y-74248210D01*
X164026014Y-74415617D01*
X164026598Y-74419301D01*
X164080127Y-74584045D01*
X164158768Y-74738388D01*
X164260586Y-74878528D01*
X164383072Y-75001014D01*
X164523212Y-75102832D01*
X164677555Y-75181473D01*
X164842299Y-75235002D01*
X165013389Y-75262100D01*
X165013390Y-75262100D01*
X165186610Y-75262100D01*
X165186611Y-75262100D01*
X165357701Y-75235002D01*
X165522445Y-75181473D01*
X165676788Y-75102832D01*
X165816928Y-75001014D01*
X165939414Y-74878528D01*
X166041232Y-74738388D01*
X166119873Y-74584045D01*
X166173402Y-74419301D01*
X166200500Y-74248211D01*
X166200500Y-73274989D01*
X166539500Y-73274989D01*
X166539500Y-74248210D01*
X166566014Y-74415617D01*
X166566598Y-74419301D01*
X166620127Y-74584045D01*
X166698768Y-74738388D01*
X166800586Y-74878528D01*
X166923072Y-75001014D01*
X167063212Y-75102832D01*
X167217555Y-75181473D01*
X167382299Y-75235002D01*
X167553389Y-75262100D01*
X167553390Y-75262100D01*
X167726610Y-75262100D01*
X167726611Y-75262100D01*
X167897701Y-75235002D01*
X168062445Y-75181473D01*
X168216788Y-75102832D01*
X168356928Y-75001014D01*
X168479414Y-74878528D01*
X168581232Y-74738388D01*
X168659873Y-74584045D01*
X168713402Y-74419301D01*
X168740500Y-74248211D01*
X168740500Y-73274989D01*
X169079500Y-73274989D01*
X169079500Y-74248210D01*
X169106014Y-74415617D01*
X169106598Y-74419301D01*
X169160127Y-74584045D01*
X169238768Y-74738388D01*
X169340586Y-74878528D01*
X169463072Y-75001014D01*
X169603212Y-75102832D01*
X169757555Y-75181473D01*
X169922299Y-75235002D01*
X170093389Y-75262100D01*
X170093390Y-75262100D01*
X170266610Y-75262100D01*
X170266611Y-75262100D01*
X170437701Y-75235002D01*
X170602445Y-75181473D01*
X170756788Y-75102832D01*
X170896928Y-75001014D01*
X171019414Y-74878528D01*
X171121232Y-74738388D01*
X171199873Y-74584045D01*
X171253402Y-74419301D01*
X171280500Y-74248211D01*
X171280500Y-73274989D01*
X171619500Y-73274989D01*
X171619500Y-74248210D01*
X171646014Y-74415617D01*
X171646598Y-74419301D01*
X171700127Y-74584045D01*
X171778768Y-74738388D01*
X171880586Y-74878528D01*
X172003072Y-75001014D01*
X172143212Y-75102832D01*
X172297555Y-75181473D01*
X172462299Y-75235002D01*
X172633389Y-75262100D01*
X172633390Y-75262100D01*
X172806610Y-75262100D01*
X172806611Y-75262100D01*
X172977701Y-75235002D01*
X173142445Y-75181473D01*
X173296788Y-75102832D01*
X173436928Y-75001014D01*
X173559414Y-74878528D01*
X173661232Y-74738388D01*
X173739873Y-74584045D01*
X173793402Y-74419301D01*
X173820500Y-74248211D01*
X173820500Y-73274989D01*
X174159500Y-73274989D01*
X174159500Y-74248210D01*
X174186014Y-74415617D01*
X174186598Y-74419301D01*
X174240127Y-74584045D01*
X174318768Y-74738388D01*
X174420586Y-74878528D01*
X174543072Y-75001014D01*
X174683212Y-75102832D01*
X174837555Y-75181473D01*
X175002299Y-75235002D01*
X175173389Y-75262100D01*
X175173390Y-75262100D01*
X175346610Y-75262100D01*
X175346611Y-75262100D01*
X175517701Y-75235002D01*
X175682445Y-75181473D01*
X175836788Y-75102832D01*
X175976928Y-75001014D01*
X176099414Y-74878528D01*
X176201232Y-74738388D01*
X176279873Y-74584045D01*
X176333402Y-74419301D01*
X176360500Y-74248211D01*
X176360500Y-73274989D01*
X176699500Y-73274989D01*
X176699500Y-74248210D01*
X176726014Y-74415617D01*
X176726598Y-74419301D01*
X176780127Y-74584045D01*
X176858768Y-74738388D01*
X176960586Y-74878528D01*
X177083072Y-75001014D01*
X177223212Y-75102832D01*
X177377555Y-75181473D01*
X177542299Y-75235002D01*
X177713389Y-75262100D01*
X177713390Y-75262100D01*
X177886610Y-75262100D01*
X177886611Y-75262100D01*
X178057701Y-75235002D01*
X178222445Y-75181473D01*
X178376788Y-75102832D01*
X178516928Y-75001014D01*
X178639414Y-74878528D01*
X178741232Y-74738388D01*
X178819873Y-74584045D01*
X178873402Y-74419301D01*
X178900500Y-74248211D01*
X178900500Y-73274989D01*
X178873402Y-73103899D01*
X178819873Y-72939155D01*
X178741232Y-72784812D01*
X178639414Y-72644672D01*
X178516928Y-72522186D01*
X178376788Y-72420368D01*
X178222445Y-72341727D01*
X178057701Y-72288198D01*
X178057699Y-72288197D01*
X178057698Y-72288197D01*
X177926271Y-72267381D01*
X177886611Y-72261100D01*
X177713389Y-72261100D01*
X177673728Y-72267381D01*
X177542302Y-72288197D01*
X177377552Y-72341728D01*
X177223211Y-72420368D01*
X177143256Y-72478459D01*
X177083072Y-72522186D01*
X177083070Y-72522188D01*
X177083069Y-72522188D01*
X176960588Y-72644669D01*
X176960588Y-72644670D01*
X176960586Y-72644672D01*
X176953724Y-72654117D01*
X176858768Y-72784811D01*
X176780128Y-72939152D01*
X176726597Y-73103902D01*
X176699500Y-73274989D01*
X176360500Y-73274989D01*
X176333402Y-73103899D01*
X176279873Y-72939155D01*
X176201232Y-72784812D01*
X176099414Y-72644672D01*
X175976928Y-72522186D01*
X175836788Y-72420368D01*
X175682445Y-72341727D01*
X175517701Y-72288198D01*
X175517699Y-72288197D01*
X175517698Y-72288197D01*
X175386271Y-72267381D01*
X175346611Y-72261100D01*
X175173389Y-72261100D01*
X175133728Y-72267381D01*
X175002302Y-72288197D01*
X174837552Y-72341728D01*
X174683211Y-72420368D01*
X174603256Y-72478459D01*
X174543072Y-72522186D01*
X174543070Y-72522188D01*
X174543069Y-72522188D01*
X174420588Y-72644669D01*
X174420588Y-72644670D01*
X174420586Y-72644672D01*
X174413724Y-72654117D01*
X174318768Y-72784811D01*
X174240128Y-72939152D01*
X174186597Y-73103902D01*
X174159500Y-73274989D01*
X173820500Y-73274989D01*
X173793402Y-73103899D01*
X173739873Y-72939155D01*
X173661232Y-72784812D01*
X173559414Y-72644672D01*
X173436928Y-72522186D01*
X173296788Y-72420368D01*
X173142445Y-72341727D01*
X172977701Y-72288198D01*
X172977699Y-72288197D01*
X172977698Y-72288197D01*
X172846271Y-72267381D01*
X172806611Y-72261100D01*
X172633389Y-72261100D01*
X172593728Y-72267381D01*
X172462302Y-72288197D01*
X172297552Y-72341728D01*
X172143211Y-72420368D01*
X172063256Y-72478459D01*
X172003072Y-72522186D01*
X172003070Y-72522188D01*
X172003069Y-72522188D01*
X171880588Y-72644669D01*
X171880588Y-72644670D01*
X171880586Y-72644672D01*
X171873724Y-72654117D01*
X171778768Y-72784811D01*
X171700128Y-72939152D01*
X171646597Y-73103902D01*
X171619500Y-73274989D01*
X171280500Y-73274989D01*
X171253402Y-73103899D01*
X171199873Y-72939155D01*
X171121232Y-72784812D01*
X171019414Y-72644672D01*
X170896928Y-72522186D01*
X170756788Y-72420368D01*
X170602445Y-72341727D01*
X170437701Y-72288198D01*
X170437699Y-72288197D01*
X170437698Y-72288197D01*
X170306271Y-72267381D01*
X170266611Y-72261100D01*
X170093389Y-72261100D01*
X170053728Y-72267381D01*
X169922302Y-72288197D01*
X169757552Y-72341728D01*
X169603211Y-72420368D01*
X169523256Y-72478459D01*
X169463072Y-72522186D01*
X169463070Y-72522188D01*
X169463069Y-72522188D01*
X169340588Y-72644669D01*
X169340588Y-72644670D01*
X169340586Y-72644672D01*
X169333724Y-72654117D01*
X169238768Y-72784811D01*
X169160128Y-72939152D01*
X169106597Y-73103902D01*
X169079500Y-73274989D01*
X168740500Y-73274989D01*
X168713402Y-73103899D01*
X168659873Y-72939155D01*
X168581232Y-72784812D01*
X168479414Y-72644672D01*
X168356928Y-72522186D01*
X168216788Y-72420368D01*
X168184766Y-72404052D01*
X168062449Y-72341728D01*
X167902302Y-72289693D01*
X167844627Y-72250255D01*
X167817429Y-72185896D01*
X167829344Y-72117050D01*
X167874646Y-72066770D01*
X168015262Y-71978416D01*
X168142816Y-71850862D01*
X168238789Y-71698122D01*
X168298368Y-71527855D01*
X168318565Y-71348600D01*
X168298368Y-71169345D01*
X168298367Y-71169343D01*
X168298366Y-71169337D01*
X168238790Y-70999079D01*
X168232506Y-70989078D01*
X168213500Y-70923107D01*
X168213500Y-69437293D01*
X168232508Y-69371319D01*
X168238787Y-69361325D01*
X168238786Y-69361325D01*
X168238789Y-69361322D01*
X168298368Y-69191055D01*
X168298369Y-69191049D01*
X168318565Y-69011803D01*
X168318565Y-69011796D01*
X168298369Y-68832550D01*
X168298368Y-68832545D01*
X168289322Y-68806692D01*
X168238789Y-68662278D01*
X168217807Y-68628886D01*
X168187089Y-68579998D01*
X171384132Y-68579998D01*
X171384132Y-68580001D01*
X171403964Y-68806686D01*
X171403966Y-68806697D01*
X171462858Y-69026488D01*
X171462861Y-69026497D01*
X171559031Y-69232732D01*
X171559032Y-69232734D01*
X171689554Y-69419141D01*
X171850458Y-69580045D01*
X171851108Y-69580500D01*
X172036866Y-69710568D01*
X172243104Y-69806739D01*
X172462908Y-69865635D01*
X172624830Y-69879801D01*
X172689598Y-69885468D01*
X172689600Y-69885468D01*
X172689602Y-69885468D01*
X172746273Y-69880509D01*
X172916292Y-69865635D01*
X173136096Y-69806739D01*
X173342334Y-69710568D01*
X173528739Y-69580047D01*
X173689647Y-69419139D01*
X173820168Y-69232734D01*
X173916339Y-69026496D01*
X173975235Y-68806692D01*
X173995068Y-68580000D01*
X173995068Y-68579998D01*
X176464132Y-68579998D01*
X176464132Y-68580001D01*
X176483964Y-68806686D01*
X176483966Y-68806697D01*
X176542858Y-69026488D01*
X176542861Y-69026497D01*
X176639031Y-69232732D01*
X176639032Y-69232734D01*
X176769554Y-69419141D01*
X176930458Y-69580045D01*
X176931108Y-69580500D01*
X177116866Y-69710568D01*
X177323104Y-69806739D01*
X177542908Y-69865635D01*
X177704830Y-69879801D01*
X177769598Y-69885468D01*
X177769600Y-69885468D01*
X177769602Y-69885468D01*
X177826273Y-69880509D01*
X177996292Y-69865635D01*
X178216096Y-69806739D01*
X178422334Y-69710568D01*
X178608739Y-69580047D01*
X178769647Y-69419139D01*
X178900168Y-69232734D01*
X178996339Y-69026496D01*
X179055235Y-68806692D01*
X179075068Y-68580000D01*
X179055235Y-68353308D01*
X178996339Y-68133504D01*
X178900168Y-67927266D01*
X178769647Y-67740861D01*
X178769645Y-67740858D01*
X178608741Y-67579954D01*
X178422334Y-67449432D01*
X178422332Y-67449431D01*
X178216097Y-67353261D01*
X178216088Y-67353258D01*
X177996297Y-67294366D01*
X177996293Y-67294365D01*
X177996292Y-67294365D01*
X177996291Y-67294364D01*
X177996286Y-67294364D01*
X177769602Y-67274532D01*
X177769598Y-67274532D01*
X177542913Y-67294364D01*
X177542902Y-67294366D01*
X177323111Y-67353258D01*
X177323102Y-67353261D01*
X177116867Y-67449431D01*
X177116865Y-67449432D01*
X176930458Y-67579954D01*
X176769554Y-67740858D01*
X176639032Y-67927265D01*
X176639031Y-67927267D01*
X176542861Y-68133502D01*
X176542858Y-68133511D01*
X176483966Y-68353302D01*
X176483964Y-68353313D01*
X176464132Y-68579998D01*
X173995068Y-68579998D01*
X173975235Y-68353308D01*
X173916339Y-68133504D01*
X173820168Y-67927266D01*
X173689647Y-67740861D01*
X173689645Y-67740858D01*
X173528741Y-67579954D01*
X173342334Y-67449432D01*
X173342332Y-67449431D01*
X173136097Y-67353261D01*
X173136088Y-67353258D01*
X172916297Y-67294366D01*
X172916293Y-67294365D01*
X172916292Y-67294365D01*
X172916291Y-67294364D01*
X172916286Y-67294364D01*
X172689602Y-67274532D01*
X172689598Y-67274532D01*
X172462913Y-67294364D01*
X172462902Y-67294366D01*
X172243111Y-67353258D01*
X172243102Y-67353261D01*
X172036867Y-67449431D01*
X172036865Y-67449432D01*
X171850458Y-67579954D01*
X171689554Y-67740858D01*
X171559032Y-67927265D01*
X171559031Y-67927267D01*
X171462861Y-68133502D01*
X171462858Y-68133511D01*
X171403966Y-68353302D01*
X171403964Y-68353313D01*
X171384132Y-68579998D01*
X168187089Y-68579998D01*
X168142816Y-68509538D01*
X168015262Y-68381984D01*
X167862523Y-68286011D01*
X167692254Y-68226431D01*
X167692249Y-68226430D01*
X167513004Y-68206235D01*
X167512996Y-68206235D01*
X167333750Y-68226430D01*
X167333745Y-68226431D01*
X167163476Y-68286011D01*
X167010737Y-68381984D01*
X166883184Y-68509537D01*
X166787211Y-68662276D01*
X166727631Y-68832545D01*
X166727630Y-68832550D01*
X166707435Y-69011796D01*
X166707435Y-69011803D01*
X166727630Y-69191049D01*
X166727631Y-69191054D01*
X166787212Y-69361325D01*
X166793492Y-69371319D01*
X166812500Y-69437293D01*
X166812500Y-70923107D01*
X166793494Y-70989078D01*
X166787209Y-70999079D01*
X166727633Y-71169337D01*
X166727630Y-71169350D01*
X166707435Y-71348596D01*
X166707435Y-71348603D01*
X166727630Y-71527849D01*
X166727631Y-71527854D01*
X166787211Y-71698123D01*
X166883184Y-71850862D01*
X167010738Y-71978416D01*
X167163478Y-72074389D01*
X167163480Y-72074390D01*
X167238744Y-72100727D01*
X167295520Y-72141448D01*
X167321267Y-72206401D01*
X167307811Y-72274963D01*
X167259423Y-72325366D01*
X167236109Y-72335698D01*
X167217554Y-72341726D01*
X167063211Y-72420368D01*
X166983256Y-72478459D01*
X166923072Y-72522186D01*
X166923070Y-72522188D01*
X166923069Y-72522188D01*
X166800588Y-72644669D01*
X166800588Y-72644670D01*
X166800586Y-72644672D01*
X166793724Y-72654117D01*
X166698768Y-72784811D01*
X166620128Y-72939152D01*
X166566597Y-73103902D01*
X166539500Y-73274989D01*
X166200500Y-73274989D01*
X166173402Y-73103899D01*
X166119873Y-72939155D01*
X166041232Y-72784812D01*
X165939414Y-72644672D01*
X165816928Y-72522186D01*
X165676788Y-72420368D01*
X165522445Y-72341727D01*
X165357701Y-72288198D01*
X165357699Y-72288197D01*
X165357698Y-72288197D01*
X165226271Y-72267381D01*
X165186611Y-72261100D01*
X165013389Y-72261100D01*
X164973728Y-72267381D01*
X164842302Y-72288197D01*
X164677552Y-72341728D01*
X164523211Y-72420368D01*
X164443256Y-72478459D01*
X164383072Y-72522186D01*
X164383070Y-72522188D01*
X164383069Y-72522188D01*
X164260588Y-72644669D01*
X164260588Y-72644670D01*
X164260586Y-72644672D01*
X164253724Y-72654117D01*
X164158768Y-72784811D01*
X164080128Y-72939152D01*
X164026597Y-73103902D01*
X163999500Y-73274989D01*
X163660500Y-73274989D01*
X163633402Y-73103899D01*
X163579873Y-72939155D01*
X163501232Y-72784812D01*
X163399414Y-72644672D01*
X163276928Y-72522186D01*
X163136788Y-72420368D01*
X162982445Y-72341727D01*
X162817701Y-72288198D01*
X162817699Y-72288197D01*
X162817698Y-72288197D01*
X162686271Y-72267381D01*
X162646611Y-72261100D01*
X162473389Y-72261100D01*
X162433728Y-72267381D01*
X162302302Y-72288197D01*
X162137552Y-72341728D01*
X161983211Y-72420368D01*
X161903256Y-72478459D01*
X161843072Y-72522186D01*
X161843070Y-72522188D01*
X161843069Y-72522188D01*
X161720588Y-72644669D01*
X161720588Y-72644670D01*
X161720586Y-72644672D01*
X161713724Y-72654117D01*
X161618768Y-72784811D01*
X161540128Y-72939152D01*
X161486597Y-73103902D01*
X161459500Y-73274989D01*
X161120500Y-73274989D01*
X161093402Y-73103899D01*
X161039873Y-72939155D01*
X160961232Y-72784812D01*
X160859414Y-72644672D01*
X160736928Y-72522186D01*
X160596788Y-72420368D01*
X160442445Y-72341727D01*
X160277701Y-72288198D01*
X160277699Y-72288197D01*
X160277698Y-72288197D01*
X160146271Y-72267381D01*
X160106611Y-72261100D01*
X159933389Y-72261100D01*
X159893728Y-72267381D01*
X159762302Y-72288197D01*
X159597552Y-72341728D01*
X159443211Y-72420368D01*
X159363256Y-72478459D01*
X159303072Y-72522186D01*
X159303070Y-72522188D01*
X159303069Y-72522188D01*
X159180588Y-72644669D01*
X159180588Y-72644670D01*
X159180586Y-72644672D01*
X159173724Y-72654117D01*
X159078768Y-72784811D01*
X159000128Y-72939152D01*
X158946597Y-73103902D01*
X158919500Y-73274989D01*
X158580500Y-73274989D01*
X158553402Y-73103899D01*
X158499873Y-72939155D01*
X158421232Y-72784812D01*
X158319414Y-72644672D01*
X158196928Y-72522186D01*
X158056788Y-72420368D01*
X157902445Y-72341727D01*
X157737701Y-72288198D01*
X157737699Y-72288197D01*
X157737698Y-72288197D01*
X157606271Y-72267381D01*
X157566611Y-72261100D01*
X157393389Y-72261100D01*
X157353728Y-72267381D01*
X157222302Y-72288197D01*
X157057552Y-72341728D01*
X156903211Y-72420368D01*
X156823256Y-72478459D01*
X156763072Y-72522186D01*
X156763070Y-72522188D01*
X156763069Y-72522188D01*
X156640588Y-72644669D01*
X156640588Y-72644670D01*
X156640586Y-72644672D01*
X156633724Y-72654117D01*
X156538768Y-72784811D01*
X156460128Y-72939152D01*
X156406597Y-73103902D01*
X156379500Y-73274989D01*
X156040500Y-73274989D01*
X156013402Y-73103899D01*
X155959873Y-72939155D01*
X155881232Y-72784812D01*
X155779414Y-72644672D01*
X155656928Y-72522186D01*
X155516788Y-72420368D01*
X155362445Y-72341727D01*
X155197701Y-72288198D01*
X155197699Y-72288197D01*
X155197698Y-72288197D01*
X155066271Y-72267381D01*
X155026611Y-72261100D01*
X154853389Y-72261100D01*
X154813728Y-72267381D01*
X154682302Y-72288197D01*
X154517552Y-72341728D01*
X154363211Y-72420368D01*
X154283256Y-72478459D01*
X154223072Y-72522186D01*
X154223070Y-72522188D01*
X154223069Y-72522188D01*
X154100588Y-72644669D01*
X154100588Y-72644670D01*
X154100586Y-72644672D01*
X154093724Y-72654117D01*
X153998768Y-72784811D01*
X153920128Y-72939152D01*
X153866597Y-73103902D01*
X153839500Y-73274989D01*
X153500500Y-73274989D01*
X153473402Y-73103899D01*
X153419873Y-72939155D01*
X153341232Y-72784812D01*
X153239414Y-72644672D01*
X153116928Y-72522186D01*
X152976788Y-72420368D01*
X152822445Y-72341727D01*
X152657701Y-72288198D01*
X152657699Y-72288197D01*
X152657698Y-72288197D01*
X152526271Y-72267381D01*
X152486611Y-72261100D01*
X152313389Y-72261100D01*
X152273728Y-72267381D01*
X152142302Y-72288197D01*
X151977552Y-72341728D01*
X151823211Y-72420368D01*
X151743256Y-72478459D01*
X151683072Y-72522186D01*
X151683070Y-72522188D01*
X151683069Y-72522188D01*
X151560588Y-72644669D01*
X151560588Y-72644670D01*
X151560586Y-72644672D01*
X151553724Y-72654117D01*
X151458768Y-72784811D01*
X151380128Y-72939152D01*
X151326597Y-73103902D01*
X151299500Y-73274989D01*
X150960500Y-73274989D01*
X150933402Y-73103899D01*
X150879873Y-72939155D01*
X150801232Y-72784812D01*
X150699414Y-72644672D01*
X150576928Y-72522186D01*
X150436788Y-72420368D01*
X150282445Y-72341727D01*
X150117701Y-72288198D01*
X150117699Y-72288197D01*
X150117698Y-72288197D01*
X149986271Y-72267381D01*
X149946611Y-72261100D01*
X149773389Y-72261100D01*
X149733728Y-72267381D01*
X149602302Y-72288197D01*
X149437552Y-72341728D01*
X149283211Y-72420368D01*
X149203256Y-72478459D01*
X149143072Y-72522186D01*
X149143070Y-72522188D01*
X149143069Y-72522188D01*
X149020588Y-72644669D01*
X149020588Y-72644670D01*
X149020586Y-72644672D01*
X149013724Y-72654117D01*
X148918768Y-72784811D01*
X148840128Y-72939152D01*
X148786597Y-73103902D01*
X148759500Y-73274989D01*
X148420500Y-73274989D01*
X148393402Y-73103899D01*
X148339873Y-72939155D01*
X148261232Y-72784812D01*
X148159414Y-72644672D01*
X148036928Y-72522186D01*
X147896788Y-72420368D01*
X147742445Y-72341727D01*
X147577701Y-72288198D01*
X147577699Y-72288197D01*
X147577698Y-72288197D01*
X147446271Y-72267381D01*
X147406611Y-72261100D01*
X147233389Y-72261100D01*
X147193728Y-72267381D01*
X147062302Y-72288197D01*
X146897552Y-72341728D01*
X146743211Y-72420368D01*
X146663256Y-72478459D01*
X146603072Y-72522186D01*
X146603070Y-72522188D01*
X146603069Y-72522188D01*
X146480588Y-72644669D01*
X146480588Y-72644670D01*
X146480586Y-72644672D01*
X146473724Y-72654117D01*
X146378768Y-72784811D01*
X146300128Y-72939152D01*
X146246597Y-73103902D01*
X146219500Y-73274989D01*
X145880500Y-73274989D01*
X145853402Y-73103899D01*
X145799873Y-72939155D01*
X145721232Y-72784812D01*
X145619414Y-72644672D01*
X145496928Y-72522186D01*
X145356788Y-72420368D01*
X145202445Y-72341727D01*
X145037701Y-72288198D01*
X145037699Y-72288197D01*
X145037698Y-72288197D01*
X144906271Y-72267381D01*
X144866611Y-72261100D01*
X144693389Y-72261100D01*
X144653728Y-72267381D01*
X144522302Y-72288197D01*
X144357552Y-72341728D01*
X144203211Y-72420368D01*
X144123256Y-72478459D01*
X144063072Y-72522186D01*
X144063070Y-72522188D01*
X144063069Y-72522188D01*
X143940588Y-72644669D01*
X143940588Y-72644670D01*
X143940586Y-72644672D01*
X143933724Y-72654117D01*
X143838768Y-72784811D01*
X143760128Y-72939152D01*
X143706597Y-73103902D01*
X143679500Y-73274989D01*
X143340500Y-73274989D01*
X143313402Y-73103899D01*
X143259873Y-72939155D01*
X143181232Y-72784812D01*
X143079414Y-72644672D01*
X142956928Y-72522186D01*
X142816788Y-72420368D01*
X142662445Y-72341727D01*
X142497701Y-72288198D01*
X142497699Y-72288197D01*
X142497698Y-72288197D01*
X142366271Y-72267381D01*
X142326611Y-72261100D01*
X142153389Y-72261100D01*
X142113728Y-72267381D01*
X141982302Y-72288197D01*
X141817552Y-72341728D01*
X141663211Y-72420368D01*
X141583256Y-72478459D01*
X141523072Y-72522186D01*
X141523070Y-72522188D01*
X141523069Y-72522188D01*
X141400588Y-72644669D01*
X141400588Y-72644670D01*
X141400586Y-72644672D01*
X141393724Y-72654117D01*
X141298768Y-72784811D01*
X141220128Y-72939152D01*
X141166597Y-73103902D01*
X141139500Y-73274989D01*
X140800500Y-73274989D01*
X140773402Y-73103899D01*
X140719873Y-72939155D01*
X140641232Y-72784812D01*
X140539414Y-72644672D01*
X140416928Y-72522186D01*
X140276788Y-72420368D01*
X140122445Y-72341727D01*
X139957701Y-72288198D01*
X139957699Y-72288197D01*
X139957698Y-72288197D01*
X139826271Y-72267381D01*
X139786611Y-72261100D01*
X139613389Y-72261100D01*
X139573728Y-72267381D01*
X139442302Y-72288197D01*
X139277552Y-72341728D01*
X139123211Y-72420368D01*
X139043256Y-72478459D01*
X138983072Y-72522186D01*
X138983070Y-72522188D01*
X138983069Y-72522188D01*
X138860588Y-72644669D01*
X138860588Y-72644670D01*
X138860586Y-72644672D01*
X138853724Y-72654117D01*
X138758768Y-72784811D01*
X138680128Y-72939152D01*
X138626597Y-73103902D01*
X138599500Y-73274989D01*
X138260500Y-73274989D01*
X138233402Y-73103899D01*
X138179873Y-72939155D01*
X138101232Y-72784812D01*
X137999414Y-72644672D01*
X137876928Y-72522186D01*
X137736788Y-72420368D01*
X137582445Y-72341727D01*
X137417701Y-72288198D01*
X137417699Y-72288197D01*
X137417698Y-72288197D01*
X137286271Y-72267381D01*
X137246611Y-72261100D01*
X137073389Y-72261100D01*
X137033728Y-72267381D01*
X136902302Y-72288197D01*
X136737552Y-72341728D01*
X136583211Y-72420368D01*
X136503256Y-72478459D01*
X136443072Y-72522186D01*
X136443070Y-72522188D01*
X136443069Y-72522188D01*
X136320588Y-72644669D01*
X136320588Y-72644670D01*
X136320586Y-72644672D01*
X136313724Y-72654117D01*
X136218768Y-72784811D01*
X136140128Y-72939152D01*
X136086597Y-73103902D01*
X136059500Y-73274989D01*
X135720500Y-73274989D01*
X135693402Y-73103899D01*
X135639873Y-72939155D01*
X135561232Y-72784812D01*
X135459414Y-72644672D01*
X135336928Y-72522186D01*
X135196788Y-72420368D01*
X135042445Y-72341727D01*
X134877701Y-72288198D01*
X134877699Y-72288197D01*
X134877698Y-72288197D01*
X134746271Y-72267381D01*
X134706611Y-72261100D01*
X134533389Y-72261100D01*
X134493728Y-72267381D01*
X134362302Y-72288197D01*
X134197552Y-72341728D01*
X134043211Y-72420368D01*
X133963256Y-72478459D01*
X133903072Y-72522186D01*
X133903070Y-72522188D01*
X133903069Y-72522188D01*
X133780588Y-72644669D01*
X133780588Y-72644670D01*
X133780586Y-72644672D01*
X133773724Y-72654117D01*
X133678768Y-72784811D01*
X133600128Y-72939152D01*
X133546597Y-73103902D01*
X133519500Y-73274989D01*
X133183220Y-73274989D01*
X133183220Y-73271309D01*
X133156122Y-73100219D01*
X133102593Y-72935475D01*
X133023952Y-72781132D01*
X132922134Y-72640992D01*
X132799648Y-72518506D01*
X132659508Y-72416688D01*
X132512389Y-72341728D01*
X132505167Y-72338048D01*
X132505166Y-72338047D01*
X132505165Y-72338047D01*
X132340421Y-72284518D01*
X132340419Y-72284517D01*
X132340418Y-72284517D01*
X132192572Y-72261101D01*
X132169331Y-72257420D01*
X131996109Y-72257420D01*
X131972868Y-72261101D01*
X131825022Y-72284517D01*
X131660272Y-72338048D01*
X131505931Y-72416688D01*
X131425976Y-72474779D01*
X131365792Y-72518506D01*
X131365790Y-72518508D01*
X131365789Y-72518508D01*
X131243308Y-72640989D01*
X131243308Y-72640990D01*
X131243306Y-72640992D01*
X131199579Y-72701176D01*
X131141488Y-72781131D01*
X131062848Y-72935472D01*
X131009317Y-73100222D01*
X130982220Y-73271309D01*
X130643220Y-73271309D01*
X130616122Y-73100219D01*
X130562593Y-72935475D01*
X130483952Y-72781132D01*
X130382134Y-72640992D01*
X130259648Y-72518506D01*
X130119508Y-72416688D01*
X129972389Y-72341728D01*
X129965167Y-72338048D01*
X129965166Y-72338047D01*
X129965165Y-72338047D01*
X129800421Y-72284518D01*
X129800419Y-72284517D01*
X129800418Y-72284517D01*
X129652572Y-72261101D01*
X129629331Y-72257420D01*
X129456109Y-72257420D01*
X129432868Y-72261101D01*
X129285022Y-72284517D01*
X129120272Y-72338048D01*
X128965931Y-72416688D01*
X128885976Y-72474779D01*
X128825792Y-72518506D01*
X128825790Y-72518508D01*
X128825789Y-72518508D01*
X128703308Y-72640989D01*
X128703308Y-72640990D01*
X128703306Y-72640992D01*
X128659579Y-72701176D01*
X128601488Y-72781131D01*
X128522848Y-72935472D01*
X128469317Y-73100222D01*
X128442220Y-73271309D01*
X128102714Y-73271309D01*
X128075634Y-73100335D01*
X128022128Y-72935662D01*
X127943524Y-72781395D01*
X127841752Y-72641317D01*
X127719322Y-72518887D01*
X127579244Y-72417115D01*
X127424977Y-72338511D01*
X127260309Y-72285007D01*
X127260301Y-72285005D01*
X127252720Y-72283804D01*
X127252720Y-73442234D01*
X127248326Y-73437840D01*
X127157114Y-73385179D01*
X127055381Y-73357920D01*
X126950059Y-73357920D01*
X126848326Y-73385179D01*
X126757114Y-73437840D01*
X126752720Y-73442234D01*
X126752720Y-72283804D01*
X126752719Y-72283804D01*
X126745138Y-72285005D01*
X126745130Y-72285007D01*
X126580462Y-72338511D01*
X126426195Y-72417115D01*
X126286117Y-72518887D01*
X126163687Y-72641317D01*
X126061915Y-72781395D01*
X125983311Y-72935662D01*
X125929805Y-73100335D01*
X125902720Y-73271348D01*
X99000500Y-73271348D01*
X99000500Y-69085013D01*
X99020185Y-69017974D01*
X99072989Y-68972219D01*
X99142147Y-68962275D01*
X99202027Y-68989054D01*
X99202295Y-68988695D01*
X99203908Y-68989896D01*
X99204219Y-68990035D01*
X99205192Y-68990852D01*
X99205194Y-68990853D01*
X99497203Y-69182911D01*
X99497207Y-69182913D01*
X99809549Y-69339777D01*
X100137989Y-69459319D01*
X100478086Y-69539923D01*
X100825241Y-69580500D01*
X100825248Y-69580500D01*
X101174752Y-69580500D01*
X101174759Y-69580500D01*
X101521914Y-69539923D01*
X101862011Y-69459319D01*
X102190451Y-69339777D01*
X102502793Y-69182913D01*
X102794811Y-68990849D01*
X103062558Y-68766183D01*
X103238215Y-68579998D01*
X141005732Y-68579998D01*
X141005732Y-68580001D01*
X141025564Y-68806686D01*
X141025566Y-68806697D01*
X141084458Y-69026488D01*
X141084461Y-69026497D01*
X141180631Y-69232732D01*
X141180632Y-69232734D01*
X141311154Y-69419141D01*
X141472058Y-69580045D01*
X141472708Y-69580500D01*
X141658466Y-69710568D01*
X141864704Y-69806739D01*
X142084508Y-69865635D01*
X142246430Y-69879801D01*
X142311198Y-69885468D01*
X142311200Y-69885468D01*
X142311202Y-69885468D01*
X142367873Y-69880509D01*
X142537892Y-69865635D01*
X142757696Y-69806739D01*
X142963934Y-69710568D01*
X143150339Y-69580047D01*
X143311247Y-69419139D01*
X143441768Y-69232734D01*
X143537939Y-69026496D01*
X143596835Y-68806692D01*
X143616668Y-68580000D01*
X143616668Y-68579998D01*
X146085732Y-68579998D01*
X146085732Y-68580001D01*
X146105564Y-68806686D01*
X146105566Y-68806697D01*
X146164458Y-69026488D01*
X146164461Y-69026497D01*
X146260631Y-69232732D01*
X146260632Y-69232734D01*
X146391154Y-69419141D01*
X146552058Y-69580045D01*
X146552708Y-69580500D01*
X146738466Y-69710568D01*
X146944704Y-69806739D01*
X147164508Y-69865635D01*
X147326430Y-69879801D01*
X147391198Y-69885468D01*
X147391200Y-69885468D01*
X147391202Y-69885468D01*
X147447873Y-69880509D01*
X147617892Y-69865635D01*
X147837696Y-69806739D01*
X148043934Y-69710568D01*
X148230339Y-69580047D01*
X148391247Y-69419139D01*
X148521768Y-69232734D01*
X148617939Y-69026496D01*
X148676835Y-68806692D01*
X148696668Y-68580000D01*
X148681112Y-68402198D01*
X156834932Y-68402198D01*
X156834932Y-68402201D01*
X156854764Y-68628886D01*
X156854766Y-68628897D01*
X156913658Y-68848688D01*
X156913661Y-68848697D01*
X157009831Y-69054932D01*
X157009832Y-69054934D01*
X157140354Y-69241341D01*
X157301258Y-69402245D01*
X157301261Y-69402247D01*
X157487666Y-69532768D01*
X157693904Y-69628939D01*
X157913708Y-69687835D01*
X158075630Y-69702001D01*
X158140398Y-69707668D01*
X158140400Y-69707668D01*
X158140402Y-69707668D01*
X158197073Y-69702709D01*
X158367092Y-69687835D01*
X158586896Y-69628939D01*
X158793134Y-69532768D01*
X158979539Y-69402247D01*
X159140447Y-69241339D01*
X159270968Y-69054934D01*
X159367139Y-68848696D01*
X159426035Y-68628892D01*
X159445868Y-68402200D01*
X159445868Y-68402198D01*
X161914932Y-68402198D01*
X161914932Y-68402201D01*
X161934764Y-68628886D01*
X161934766Y-68628897D01*
X161993658Y-68848688D01*
X161993661Y-68848697D01*
X162089831Y-69054932D01*
X162089832Y-69054934D01*
X162220354Y-69241341D01*
X162381258Y-69402245D01*
X162381261Y-69402247D01*
X162567666Y-69532768D01*
X162773904Y-69628939D01*
X162993708Y-69687835D01*
X163155630Y-69702001D01*
X163220398Y-69707668D01*
X163220400Y-69707668D01*
X163220402Y-69707668D01*
X163277073Y-69702709D01*
X163447092Y-69687835D01*
X163666896Y-69628939D01*
X163873134Y-69532768D01*
X164059539Y-69402247D01*
X164220447Y-69241339D01*
X164350968Y-69054934D01*
X164447139Y-68848696D01*
X164506035Y-68628892D01*
X164525868Y-68402200D01*
X164521590Y-68353308D01*
X164506035Y-68175513D01*
X164506035Y-68175508D01*
X164447139Y-67955704D01*
X164350968Y-67749466D01*
X164251893Y-67607971D01*
X164220445Y-67563058D01*
X164059541Y-67402154D01*
X163873134Y-67271632D01*
X163873132Y-67271631D01*
X163666897Y-67175461D01*
X163666888Y-67175458D01*
X163447097Y-67116566D01*
X163447093Y-67116565D01*
X163447092Y-67116565D01*
X163447091Y-67116564D01*
X163447086Y-67116564D01*
X163220402Y-67096732D01*
X163220398Y-67096732D01*
X162993713Y-67116564D01*
X162993702Y-67116566D01*
X162773911Y-67175458D01*
X162773902Y-67175461D01*
X162567667Y-67271631D01*
X162567665Y-67271632D01*
X162381258Y-67402154D01*
X162220354Y-67563058D01*
X162089832Y-67749465D01*
X162089831Y-67749467D01*
X161993661Y-67955702D01*
X161993658Y-67955711D01*
X161934766Y-68175502D01*
X161934764Y-68175513D01*
X161914932Y-68402198D01*
X159445868Y-68402198D01*
X159441590Y-68353308D01*
X159426035Y-68175513D01*
X159426035Y-68175508D01*
X159367139Y-67955704D01*
X159270968Y-67749466D01*
X159171893Y-67607971D01*
X159140445Y-67563058D01*
X158979541Y-67402154D01*
X158793134Y-67271632D01*
X158793132Y-67271631D01*
X158586897Y-67175461D01*
X158586888Y-67175458D01*
X158367097Y-67116566D01*
X158367093Y-67116565D01*
X158367092Y-67116565D01*
X158367091Y-67116564D01*
X158367086Y-67116564D01*
X158140402Y-67096732D01*
X158140398Y-67096732D01*
X157913713Y-67116564D01*
X157913702Y-67116566D01*
X157693911Y-67175458D01*
X157693902Y-67175461D01*
X157487667Y-67271631D01*
X157487665Y-67271632D01*
X157301258Y-67402154D01*
X157140354Y-67563058D01*
X157009832Y-67749465D01*
X157009831Y-67749467D01*
X156913661Y-67955702D01*
X156913658Y-67955711D01*
X156854766Y-68175502D01*
X156854764Y-68175513D01*
X156834932Y-68402198D01*
X148681112Y-68402198D01*
X148676835Y-68353308D01*
X148617939Y-68133504D01*
X148521768Y-67927266D01*
X148391247Y-67740861D01*
X148391245Y-67740858D01*
X148230341Y-67579954D01*
X148043934Y-67449432D01*
X148043932Y-67449431D01*
X147837697Y-67353261D01*
X147837688Y-67353258D01*
X147617897Y-67294366D01*
X147617893Y-67294365D01*
X147617892Y-67294365D01*
X147617891Y-67294364D01*
X147617886Y-67294364D01*
X147391202Y-67274532D01*
X147391198Y-67274532D01*
X147164513Y-67294364D01*
X147164502Y-67294366D01*
X146944711Y-67353258D01*
X146944702Y-67353261D01*
X146738467Y-67449431D01*
X146738465Y-67449432D01*
X146552058Y-67579954D01*
X146391154Y-67740858D01*
X146260632Y-67927265D01*
X146260631Y-67927267D01*
X146164461Y-68133502D01*
X146164458Y-68133511D01*
X146105566Y-68353302D01*
X146105564Y-68353313D01*
X146085732Y-68579998D01*
X143616668Y-68579998D01*
X143596835Y-68353308D01*
X143537939Y-68133504D01*
X143441768Y-67927266D01*
X143311247Y-67740861D01*
X143311245Y-67740858D01*
X143150341Y-67579954D01*
X142963934Y-67449432D01*
X142963932Y-67449431D01*
X142757697Y-67353261D01*
X142757688Y-67353258D01*
X142537897Y-67294366D01*
X142537893Y-67294365D01*
X142537892Y-67294365D01*
X142537891Y-67294364D01*
X142537886Y-67294364D01*
X142311202Y-67274532D01*
X142311198Y-67274532D01*
X142084513Y-67294364D01*
X142084502Y-67294366D01*
X141864711Y-67353258D01*
X141864702Y-67353261D01*
X141658467Y-67449431D01*
X141658465Y-67449432D01*
X141472058Y-67579954D01*
X141311154Y-67740858D01*
X141180632Y-67927265D01*
X141180631Y-67927267D01*
X141084461Y-68133502D01*
X141084458Y-68133511D01*
X141025566Y-68353302D01*
X141025564Y-68353313D01*
X141005732Y-68579998D01*
X103238215Y-68579998D01*
X103302412Y-68511953D01*
X103511130Y-68231596D01*
X103685889Y-67928904D01*
X103824326Y-67607971D01*
X103924569Y-67273136D01*
X103924835Y-67271632D01*
X103985260Y-66928938D01*
X103985259Y-66928938D01*
X103985262Y-66928927D01*
X104005585Y-66580000D01*
X103985262Y-66231073D01*
X103979344Y-66197508D01*
X103924571Y-65886872D01*
X103924569Y-65886865D01*
X103838599Y-65599705D01*
X103824326Y-65552029D01*
X103685889Y-65231096D01*
X103511130Y-64928404D01*
X103511129Y-64928402D01*
X103302415Y-64648050D01*
X103302410Y-64648044D01*
X103186433Y-64525117D01*
X103062558Y-64393817D01*
X103045481Y-64379488D01*
X103006780Y-64321318D01*
X103005672Y-64251457D01*
X103042509Y-64192087D01*
X103105596Y-64162058D01*
X103125188Y-64160500D01*
X180724000Y-64160500D01*
X180791039Y-64180185D01*
G37*
%TD.AperFunction*%
%TA.AperFunction,Conductor*%
G36*
X129048675Y-98841607D02*
G01*
X129014600Y-98968774D01*
X129014600Y-99100426D01*
X129048675Y-99227593D01*
X129081588Y-99284600D01*
X127407612Y-99284600D01*
X127440525Y-99227593D01*
X127474600Y-99100426D01*
X127474600Y-98968774D01*
X127440525Y-98841607D01*
X127407612Y-98784600D01*
X129081588Y-98784600D01*
X129048675Y-98841607D01*
G37*
%TD.AperFunction*%
%TA.AperFunction,Conductor*%
G36*
X127250000Y-98087838D02*
G01*
X127230315Y-98154877D01*
X127224600Y-98161969D01*
X127224600Y-98601588D01*
X127167593Y-98568675D01*
X127040426Y-98534600D01*
X126908774Y-98534600D01*
X126781607Y-98568675D01*
X126724600Y-98601588D01*
X126724600Y-97718362D01*
X126744285Y-97651323D01*
X126750000Y-97644230D01*
X126750000Y-96937286D01*
X126754394Y-96941680D01*
X126845606Y-96994341D01*
X126947339Y-97021600D01*
X127052661Y-97021600D01*
X127154394Y-96994341D01*
X127245606Y-96941680D01*
X127250000Y-96937286D01*
X127250000Y-98087838D01*
G37*
%TD.AperFunction*%
%TA.AperFunction,Conductor*%
G36*
X129790000Y-98087838D02*
G01*
X129770315Y-98154877D01*
X129764600Y-98161969D01*
X129764600Y-98601588D01*
X129707593Y-98568675D01*
X129580426Y-98534600D01*
X129448774Y-98534600D01*
X129321607Y-98568675D01*
X129264600Y-98601588D01*
X129264600Y-97718362D01*
X129284285Y-97651323D01*
X129290000Y-97644230D01*
X129290000Y-96937286D01*
X129294394Y-96941680D01*
X129385606Y-96994341D01*
X129487339Y-97021600D01*
X129592661Y-97021600D01*
X129694394Y-96994341D01*
X129785606Y-96941680D01*
X129790000Y-96937286D01*
X129790000Y-98087838D01*
G37*
%TD.AperFunction*%
%TA.AperFunction,Conductor*%
G36*
X180590000Y-98087838D02*
G01*
X180570315Y-98154877D01*
X180564600Y-98161969D01*
X180564600Y-98601588D01*
X180507593Y-98568675D01*
X180380426Y-98534600D01*
X180248774Y-98534600D01*
X180121607Y-98568675D01*
X180064600Y-98601588D01*
X180064600Y-97718362D01*
X180084285Y-97651323D01*
X180090000Y-97644230D01*
X180090000Y-96937286D01*
X180094394Y-96941680D01*
X180185606Y-96994341D01*
X180287339Y-97021600D01*
X180392661Y-97021600D01*
X180494394Y-96994341D01*
X180585606Y-96941680D01*
X180590000Y-96937286D01*
X180590000Y-98087838D01*
G37*
%TD.AperFunction*%
%TD*%
M02*
