%TF.GenerationSoftware,KiCad,Pcbnew,8.0.1-8.0.1-1~ubuntu22.04.1*%
%TF.CreationDate,2024-04-24T21:29:24+02:00*%
%TF.ProjectId,BmsMonitor,426d734d-6f6e-4697-946f-722e6b696361,rev?*%
%TF.SameCoordinates,Original*%
%TF.FileFunction,Legend,Bot*%
%TF.FilePolarity,Positive*%
%FSLAX46Y46*%
G04 Gerber Fmt 4.6, Leading zero omitted, Abs format (unit mm)*
G04 Created by KiCad (PCBNEW 8.0.1-8.0.1-1~ubuntu22.04.1) date 2024-04-24 21:29:24*
%MOMM*%
%LPD*%
G01*
G04 APERTURE LIST*
%ADD10C,0.100000*%
%ADD11C,0.150000*%
%ADD12C,0.120000*%
G04 APERTURE END LIST*
D10*
X128743734Y-34214856D02*
X128600877Y-34262475D01*
X128600877Y-34262475D02*
X128362782Y-34262475D01*
X128362782Y-34262475D02*
X128267544Y-34214856D01*
X128267544Y-34214856D02*
X128219925Y-34167236D01*
X128219925Y-34167236D02*
X128172306Y-34071998D01*
X128172306Y-34071998D02*
X128172306Y-33976760D01*
X128172306Y-33976760D02*
X128219925Y-33881522D01*
X128219925Y-33881522D02*
X128267544Y-33833903D01*
X128267544Y-33833903D02*
X128362782Y-33786284D01*
X128362782Y-33786284D02*
X128553258Y-33738665D01*
X128553258Y-33738665D02*
X128648496Y-33691046D01*
X128648496Y-33691046D02*
X128696115Y-33643427D01*
X128696115Y-33643427D02*
X128743734Y-33548189D01*
X128743734Y-33548189D02*
X128743734Y-33452951D01*
X128743734Y-33452951D02*
X128696115Y-33357713D01*
X128696115Y-33357713D02*
X128648496Y-33310094D01*
X128648496Y-33310094D02*
X128553258Y-33262475D01*
X128553258Y-33262475D02*
X128315163Y-33262475D01*
X128315163Y-33262475D02*
X128172306Y-33310094D01*
X127315163Y-33595808D02*
X127315163Y-34262475D01*
X127743734Y-33595808D02*
X127743734Y-34119617D01*
X127743734Y-34119617D02*
X127696115Y-34214856D01*
X127696115Y-34214856D02*
X127600877Y-34262475D01*
X127600877Y-34262475D02*
X127458020Y-34262475D01*
X127458020Y-34262475D02*
X127362782Y-34214856D01*
X127362782Y-34214856D02*
X127315163Y-34167236D01*
X126838972Y-33595808D02*
X126838972Y-34262475D01*
X126838972Y-33691046D02*
X126791353Y-33643427D01*
X126791353Y-33643427D02*
X126696115Y-33595808D01*
X126696115Y-33595808D02*
X126553258Y-33595808D01*
X126553258Y-33595808D02*
X126458020Y-33643427D01*
X126458020Y-33643427D02*
X126410401Y-33738665D01*
X126410401Y-33738665D02*
X126410401Y-34262475D01*
X125505639Y-34262475D02*
X125505639Y-33262475D01*
X125505639Y-34214856D02*
X125600877Y-34262475D01*
X125600877Y-34262475D02*
X125791353Y-34262475D01*
X125791353Y-34262475D02*
X125886591Y-34214856D01*
X125886591Y-34214856D02*
X125934210Y-34167236D01*
X125934210Y-34167236D02*
X125981829Y-34071998D01*
X125981829Y-34071998D02*
X125981829Y-33786284D01*
X125981829Y-33786284D02*
X125934210Y-33691046D01*
X125934210Y-33691046D02*
X125886591Y-33643427D01*
X125886591Y-33643427D02*
X125791353Y-33595808D01*
X125791353Y-33595808D02*
X125600877Y-33595808D01*
X125600877Y-33595808D02*
X125505639Y-33643427D01*
X124886591Y-34262475D02*
X124981829Y-34214856D01*
X124981829Y-34214856D02*
X125029448Y-34167236D01*
X125029448Y-34167236D02*
X125077067Y-34071998D01*
X125077067Y-34071998D02*
X125077067Y-33786284D01*
X125077067Y-33786284D02*
X125029448Y-33691046D01*
X125029448Y-33691046D02*
X124981829Y-33643427D01*
X124981829Y-33643427D02*
X124886591Y-33595808D01*
X124886591Y-33595808D02*
X124743734Y-33595808D01*
X124743734Y-33595808D02*
X124648496Y-33643427D01*
X124648496Y-33643427D02*
X124600877Y-33691046D01*
X124600877Y-33691046D02*
X124553258Y-33786284D01*
X124553258Y-33786284D02*
X124553258Y-34071998D01*
X124553258Y-34071998D02*
X124600877Y-34167236D01*
X124600877Y-34167236D02*
X124648496Y-34214856D01*
X124648496Y-34214856D02*
X124743734Y-34262475D01*
X124743734Y-34262475D02*
X124886591Y-34262475D01*
X124219924Y-33595808D02*
X124029448Y-34262475D01*
X124029448Y-34262475D02*
X123838972Y-33786284D01*
X123838972Y-33786284D02*
X123648496Y-34262475D01*
X123648496Y-34262475D02*
X123458020Y-33595808D01*
X123077067Y-33595808D02*
X123077067Y-34262475D01*
X123077067Y-33691046D02*
X123029448Y-33643427D01*
X123029448Y-33643427D02*
X122934210Y-33595808D01*
X122934210Y-33595808D02*
X122791353Y-33595808D01*
X122791353Y-33595808D02*
X122696115Y-33643427D01*
X122696115Y-33643427D02*
X122648496Y-33738665D01*
X122648496Y-33738665D02*
X122648496Y-34262475D01*
X122124686Y-33262475D02*
X122219924Y-33452951D01*
X121696115Y-34262475D02*
X121696115Y-33595808D01*
X121696115Y-33786284D02*
X121648496Y-33691046D01*
X121648496Y-33691046D02*
X121600877Y-33643427D01*
X121600877Y-33643427D02*
X121505639Y-33595808D01*
X121505639Y-33595808D02*
X121410401Y-33595808D01*
X128124687Y-35872419D02*
X128458020Y-35396228D01*
X128696115Y-35872419D02*
X128696115Y-34872419D01*
X128696115Y-34872419D02*
X128315163Y-34872419D01*
X128315163Y-34872419D02*
X128219925Y-34920038D01*
X128219925Y-34920038D02*
X128172306Y-34967657D01*
X128172306Y-34967657D02*
X128124687Y-35062895D01*
X128124687Y-35062895D02*
X128124687Y-35205752D01*
X128124687Y-35205752D02*
X128172306Y-35300990D01*
X128172306Y-35300990D02*
X128219925Y-35348609D01*
X128219925Y-35348609D02*
X128315163Y-35396228D01*
X128315163Y-35396228D02*
X128696115Y-35396228D01*
X127315163Y-35824800D02*
X127410401Y-35872419D01*
X127410401Y-35872419D02*
X127600877Y-35872419D01*
X127600877Y-35872419D02*
X127696115Y-35824800D01*
X127696115Y-35824800D02*
X127743734Y-35729561D01*
X127743734Y-35729561D02*
X127743734Y-35348609D01*
X127743734Y-35348609D02*
X127696115Y-35253371D01*
X127696115Y-35253371D02*
X127600877Y-35205752D01*
X127600877Y-35205752D02*
X127410401Y-35205752D01*
X127410401Y-35205752D02*
X127315163Y-35253371D01*
X127315163Y-35253371D02*
X127267544Y-35348609D01*
X127267544Y-35348609D02*
X127267544Y-35443847D01*
X127267544Y-35443847D02*
X127743734Y-35539085D01*
X126934210Y-35205752D02*
X126696115Y-35872419D01*
X126696115Y-35872419D02*
X126458020Y-35205752D01*
X124791353Y-35872419D02*
X125362781Y-35872419D01*
X125077067Y-35872419D02*
X125077067Y-34872419D01*
X125077067Y-34872419D02*
X125172305Y-35015276D01*
X125172305Y-35015276D02*
X125267543Y-35110514D01*
X125267543Y-35110514D02*
X125362781Y-35158133D01*
X124362781Y-35777180D02*
X124315162Y-35824800D01*
X124315162Y-35824800D02*
X124362781Y-35872419D01*
X124362781Y-35872419D02*
X124410400Y-35824800D01*
X124410400Y-35824800D02*
X124362781Y-35777180D01*
X124362781Y-35777180D02*
X124362781Y-35872419D01*
X123696115Y-34872419D02*
X123600877Y-34872419D01*
X123600877Y-34872419D02*
X123505639Y-34920038D01*
X123505639Y-34920038D02*
X123458020Y-34967657D01*
X123458020Y-34967657D02*
X123410401Y-35062895D01*
X123410401Y-35062895D02*
X123362782Y-35253371D01*
X123362782Y-35253371D02*
X123362782Y-35491466D01*
X123362782Y-35491466D02*
X123410401Y-35681942D01*
X123410401Y-35681942D02*
X123458020Y-35777180D01*
X123458020Y-35777180D02*
X123505639Y-35824800D01*
X123505639Y-35824800D02*
X123600877Y-35872419D01*
X123600877Y-35872419D02*
X123696115Y-35872419D01*
X123696115Y-35872419D02*
X123791353Y-35824800D01*
X123791353Y-35824800D02*
X123838972Y-35777180D01*
X123838972Y-35777180D02*
X123886591Y-35681942D01*
X123886591Y-35681942D02*
X123934210Y-35491466D01*
X123934210Y-35491466D02*
X123934210Y-35253371D01*
X123934210Y-35253371D02*
X123886591Y-35062895D01*
X123886591Y-35062895D02*
X123838972Y-34967657D01*
X123838972Y-34967657D02*
X123791353Y-34920038D01*
X123791353Y-34920038D02*
X123696115Y-34872419D01*
X143831904Y-106332819D02*
X143831904Y-107142342D01*
X143831904Y-107142342D02*
X143784285Y-107237580D01*
X143784285Y-107237580D02*
X143736666Y-107285200D01*
X143736666Y-107285200D02*
X143641428Y-107332819D01*
X143641428Y-107332819D02*
X143450952Y-107332819D01*
X143450952Y-107332819D02*
X143355714Y-107285200D01*
X143355714Y-107285200D02*
X143308095Y-107237580D01*
X143308095Y-107237580D02*
X143260476Y-107142342D01*
X143260476Y-107142342D02*
X143260476Y-106332819D01*
X142260476Y-107332819D02*
X142831904Y-107332819D01*
X142546190Y-107332819D02*
X142546190Y-106332819D01*
X142546190Y-106332819D02*
X142641428Y-106475676D01*
X142641428Y-106475676D02*
X142736666Y-106570914D01*
X142736666Y-106570914D02*
X142831904Y-106618533D01*
D11*
X120644819Y-59597295D02*
X121454342Y-59597295D01*
X121454342Y-59597295D02*
X121549580Y-59644914D01*
X121549580Y-59644914D02*
X121597200Y-59692533D01*
X121597200Y-59692533D02*
X121644819Y-59787771D01*
X121644819Y-59787771D02*
X121644819Y-59978247D01*
X121644819Y-59978247D02*
X121597200Y-60073485D01*
X121597200Y-60073485D02*
X121549580Y-60121104D01*
X121549580Y-60121104D02*
X121454342Y-60168723D01*
X121454342Y-60168723D02*
X120644819Y-60168723D01*
X120978152Y-61073485D02*
X121644819Y-61073485D01*
X120597200Y-60835390D02*
X121311485Y-60597295D01*
X121311485Y-60597295D02*
X121311485Y-61216342D01*
D10*
X152942600Y-36028265D02*
X152990219Y-36171122D01*
X152990219Y-36171122D02*
X152990219Y-36409217D01*
X152990219Y-36409217D02*
X152942600Y-36504455D01*
X152942600Y-36504455D02*
X152894980Y-36552074D01*
X152894980Y-36552074D02*
X152799742Y-36599693D01*
X152799742Y-36599693D02*
X152704504Y-36599693D01*
X152704504Y-36599693D02*
X152609266Y-36552074D01*
X152609266Y-36552074D02*
X152561647Y-36504455D01*
X152561647Y-36504455D02*
X152514028Y-36409217D01*
X152514028Y-36409217D02*
X152466409Y-36218741D01*
X152466409Y-36218741D02*
X152418790Y-36123503D01*
X152418790Y-36123503D02*
X152371171Y-36075884D01*
X152371171Y-36075884D02*
X152275933Y-36028265D01*
X152275933Y-36028265D02*
X152180695Y-36028265D01*
X152180695Y-36028265D02*
X152085457Y-36075884D01*
X152085457Y-36075884D02*
X152037838Y-36123503D01*
X152037838Y-36123503D02*
X151990219Y-36218741D01*
X151990219Y-36218741D02*
X151990219Y-36456836D01*
X151990219Y-36456836D02*
X152037838Y-36599693D01*
X152990219Y-37028265D02*
X151990219Y-37028265D01*
X151990219Y-37028265D02*
X151990219Y-37266360D01*
X151990219Y-37266360D02*
X152037838Y-37409217D01*
X152037838Y-37409217D02*
X152133076Y-37504455D01*
X152133076Y-37504455D02*
X152228314Y-37552074D01*
X152228314Y-37552074D02*
X152418790Y-37599693D01*
X152418790Y-37599693D02*
X152561647Y-37599693D01*
X152561647Y-37599693D02*
X152752123Y-37552074D01*
X152752123Y-37552074D02*
X152847361Y-37504455D01*
X152847361Y-37504455D02*
X152942600Y-37409217D01*
X152942600Y-37409217D02*
X152990219Y-37266360D01*
X152990219Y-37266360D02*
X152990219Y-37028265D01*
X152894980Y-39361598D02*
X152942600Y-39313979D01*
X152942600Y-39313979D02*
X152990219Y-39171122D01*
X152990219Y-39171122D02*
X152990219Y-39075884D01*
X152990219Y-39075884D02*
X152942600Y-38933027D01*
X152942600Y-38933027D02*
X152847361Y-38837789D01*
X152847361Y-38837789D02*
X152752123Y-38790170D01*
X152752123Y-38790170D02*
X152561647Y-38742551D01*
X152561647Y-38742551D02*
X152418790Y-38742551D01*
X152418790Y-38742551D02*
X152228314Y-38790170D01*
X152228314Y-38790170D02*
X152133076Y-38837789D01*
X152133076Y-38837789D02*
X152037838Y-38933027D01*
X152037838Y-38933027D02*
X151990219Y-39075884D01*
X151990219Y-39075884D02*
X151990219Y-39171122D01*
X151990219Y-39171122D02*
X152037838Y-39313979D01*
X152037838Y-39313979D02*
X152085457Y-39361598D01*
X152990219Y-40218741D02*
X152466409Y-40218741D01*
X152466409Y-40218741D02*
X152371171Y-40171122D01*
X152371171Y-40171122D02*
X152323552Y-40075884D01*
X152323552Y-40075884D02*
X152323552Y-39885408D01*
X152323552Y-39885408D02*
X152371171Y-39790170D01*
X152942600Y-40218741D02*
X152990219Y-40123503D01*
X152990219Y-40123503D02*
X152990219Y-39885408D01*
X152990219Y-39885408D02*
X152942600Y-39790170D01*
X152942600Y-39790170D02*
X152847361Y-39742551D01*
X152847361Y-39742551D02*
X152752123Y-39742551D01*
X152752123Y-39742551D02*
X152656885Y-39790170D01*
X152656885Y-39790170D02*
X152609266Y-39885408D01*
X152609266Y-39885408D02*
X152609266Y-40123503D01*
X152609266Y-40123503D02*
X152561647Y-40218741D01*
X152990219Y-40694932D02*
X152323552Y-40694932D01*
X152514028Y-40694932D02*
X152418790Y-40742551D01*
X152418790Y-40742551D02*
X152371171Y-40790170D01*
X152371171Y-40790170D02*
X152323552Y-40885408D01*
X152323552Y-40885408D02*
X152323552Y-40980646D01*
X152990219Y-41742551D02*
X151990219Y-41742551D01*
X152942600Y-41742551D02*
X152990219Y-41647313D01*
X152990219Y-41647313D02*
X152990219Y-41456837D01*
X152990219Y-41456837D02*
X152942600Y-41361599D01*
X152942600Y-41361599D02*
X152894980Y-41313980D01*
X152894980Y-41313980D02*
X152799742Y-41266361D01*
X152799742Y-41266361D02*
X152514028Y-41266361D01*
X152514028Y-41266361D02*
X152418790Y-41313980D01*
X152418790Y-41313980D02*
X152371171Y-41361599D01*
X152371171Y-41361599D02*
X152323552Y-41456837D01*
X152323552Y-41456837D02*
X152323552Y-41647313D01*
X152323552Y-41647313D02*
X152371171Y-41742551D01*
D11*
X152364819Y-90166666D02*
X153079104Y-90166666D01*
X153079104Y-90166666D02*
X153221961Y-90119047D01*
X153221961Y-90119047D02*
X153317200Y-90023809D01*
X153317200Y-90023809D02*
X153364819Y-89880952D01*
X153364819Y-89880952D02*
X153364819Y-89785714D01*
X152460057Y-90595238D02*
X152412438Y-90642857D01*
X152412438Y-90642857D02*
X152364819Y-90738095D01*
X152364819Y-90738095D02*
X152364819Y-90976190D01*
X152364819Y-90976190D02*
X152412438Y-91071428D01*
X152412438Y-91071428D02*
X152460057Y-91119047D01*
X152460057Y-91119047D02*
X152555295Y-91166666D01*
X152555295Y-91166666D02*
X152650533Y-91166666D01*
X152650533Y-91166666D02*
X152793390Y-91119047D01*
X152793390Y-91119047D02*
X153364819Y-90547619D01*
X153364819Y-90547619D02*
X153364819Y-91166666D01*
X152324819Y-100666666D02*
X153039104Y-100666666D01*
X153039104Y-100666666D02*
X153181961Y-100619047D01*
X153181961Y-100619047D02*
X153277200Y-100523809D01*
X153277200Y-100523809D02*
X153324819Y-100380952D01*
X153324819Y-100380952D02*
X153324819Y-100285714D01*
X153324819Y-101666666D02*
X153324819Y-101095238D01*
X153324819Y-101380952D02*
X152324819Y-101380952D01*
X152324819Y-101380952D02*
X152467676Y-101285714D01*
X152467676Y-101285714D02*
X152562914Y-101190476D01*
X152562914Y-101190476D02*
X152610533Y-101095238D01*
%TO.C,U1*%
D10*
X135792000Y-124120000D02*
X162182600Y-124120000D01*
X162182600Y-108880000D01*
X135792000Y-108880000D01*
X135792000Y-124120000D01*
X137747800Y-130876400D02*
X137951000Y-130876400D01*
X137951000Y-130597000D01*
X137747800Y-130597000D01*
X137747800Y-130876400D01*
X143183400Y-119802000D02*
X149762000Y-119802000D01*
X149762000Y-113223400D01*
X143183400Y-113223400D01*
X143183400Y-119802000D01*
X157661400Y-107457600D02*
X157813800Y-107457600D01*
X157813800Y-106975000D01*
X157661400Y-106975000D01*
X157661400Y-107457600D01*
%TO.C,U4*%
X117380000Y-31174600D02*
X117380000Y-127694600D01*
X117380000Y-127694600D02*
X180905400Y-127694600D01*
X180829200Y-31060300D02*
X117354600Y-31060300D01*
X180880000Y-84514600D02*
X180854600Y-31174600D01*
X180880000Y-99780000D02*
X180880000Y-84514600D01*
X180905400Y-127694600D02*
X180880000Y-99780000D01*
X157664400Y-44662000D02*
X147402800Y-44662000D01*
X147402800Y-31682600D01*
X157664400Y-31682600D01*
X157664400Y-44662000D01*
D12*
%TO.C,J2*%
X144170000Y-89170000D02*
X144170000Y-91830000D01*
X144170000Y-89170000D02*
X149310000Y-89170000D01*
X144170000Y-91830000D02*
X149310000Y-91830000D01*
X149310000Y-89170000D02*
X149310000Y-91830000D01*
X151910000Y-90500000D02*
X151910000Y-91830000D01*
X151910000Y-91830000D02*
X150580000Y-91830000D01*
%TO.C,J1*%
X144130000Y-99670000D02*
X144130000Y-102330000D01*
X144130000Y-99670000D02*
X149270000Y-99670000D01*
X144130000Y-102330000D02*
X149270000Y-102330000D01*
X149270000Y-99670000D02*
X149270000Y-102330000D01*
X151870000Y-101000000D02*
X151870000Y-102330000D01*
X151870000Y-102330000D02*
X150540000Y-102330000D01*
%TD*%
M02*
