%TF.GenerationSoftware,KiCad,Pcbnew,8.0.5-8.0.5-0~ubuntu24.04.1*%
%TF.CreationDate,2024-10-19T16:32:38+02:00*%
%TF.ProjectId,BmsMonitor,426d734d-6f6e-4697-946f-722e6b696361,rev?*%
%TF.SameCoordinates,Original*%
%TF.FileFunction,Legend,Top*%
%TF.FilePolarity,Positive*%
%FSLAX46Y46*%
G04 Gerber Fmt 4.6, Leading zero omitted, Abs format (unit mm)*
G04 Created by KiCad (PCBNEW 8.0.5-8.0.5-0~ubuntu24.04.1) date 2024-10-19 16:32:38*
%MOMM*%
%LPD*%
G01*
G04 APERTURE LIST*
%ADD10C,0.100000*%
%ADD11C,0.150000*%
%ADD12C,0.120000*%
G04 APERTURE END LIST*
D10*
X106682265Y-66158884D02*
X106825122Y-66230312D01*
X106825122Y-66230312D02*
X107063217Y-66230312D01*
X107063217Y-66230312D02*
X107158455Y-66158884D01*
X107158455Y-66158884D02*
X107206074Y-66087455D01*
X107206074Y-66087455D02*
X107253693Y-65944598D01*
X107253693Y-65944598D02*
X107253693Y-65801741D01*
X107253693Y-65801741D02*
X107206074Y-65658884D01*
X107206074Y-65658884D02*
X107158455Y-65587455D01*
X107158455Y-65587455D02*
X107063217Y-65516026D01*
X107063217Y-65516026D02*
X106872741Y-65444598D01*
X106872741Y-65444598D02*
X106777503Y-65373169D01*
X106777503Y-65373169D02*
X106729884Y-65301741D01*
X106729884Y-65301741D02*
X106682265Y-65158884D01*
X106682265Y-65158884D02*
X106682265Y-65016026D01*
X106682265Y-65016026D02*
X106729884Y-64873169D01*
X106729884Y-64873169D02*
X106777503Y-64801741D01*
X106777503Y-64801741D02*
X106872741Y-64730312D01*
X106872741Y-64730312D02*
X107110836Y-64730312D01*
X107110836Y-64730312D02*
X107253693Y-64801741D01*
X108110836Y-65230312D02*
X108110836Y-66230312D01*
X107682265Y-65230312D02*
X107682265Y-66016026D01*
X107682265Y-66016026D02*
X107729884Y-66158884D01*
X107729884Y-66158884D02*
X107825122Y-66230312D01*
X107825122Y-66230312D02*
X107967979Y-66230312D01*
X107967979Y-66230312D02*
X108063217Y-66158884D01*
X108063217Y-66158884D02*
X108110836Y-66087455D01*
X108587027Y-65230312D02*
X108587027Y-66230312D01*
X108587027Y-65373169D02*
X108634646Y-65301741D01*
X108634646Y-65301741D02*
X108729884Y-65230312D01*
X108729884Y-65230312D02*
X108872741Y-65230312D01*
X108872741Y-65230312D02*
X108967979Y-65301741D01*
X108967979Y-65301741D02*
X109015598Y-65444598D01*
X109015598Y-65444598D02*
X109015598Y-66230312D01*
X109920360Y-66230312D02*
X109920360Y-64730312D01*
X109920360Y-66158884D02*
X109825122Y-66230312D01*
X109825122Y-66230312D02*
X109634646Y-66230312D01*
X109634646Y-66230312D02*
X109539408Y-66158884D01*
X109539408Y-66158884D02*
X109491789Y-66087455D01*
X109491789Y-66087455D02*
X109444170Y-65944598D01*
X109444170Y-65944598D02*
X109444170Y-65516026D01*
X109444170Y-65516026D02*
X109491789Y-65373169D01*
X109491789Y-65373169D02*
X109539408Y-65301741D01*
X109539408Y-65301741D02*
X109634646Y-65230312D01*
X109634646Y-65230312D02*
X109825122Y-65230312D01*
X109825122Y-65230312D02*
X109920360Y-65301741D01*
X110539408Y-66230312D02*
X110444170Y-66158884D01*
X110444170Y-66158884D02*
X110396551Y-66087455D01*
X110396551Y-66087455D02*
X110348932Y-65944598D01*
X110348932Y-65944598D02*
X110348932Y-65516026D01*
X110348932Y-65516026D02*
X110396551Y-65373169D01*
X110396551Y-65373169D02*
X110444170Y-65301741D01*
X110444170Y-65301741D02*
X110539408Y-65230312D01*
X110539408Y-65230312D02*
X110682265Y-65230312D01*
X110682265Y-65230312D02*
X110777503Y-65301741D01*
X110777503Y-65301741D02*
X110825122Y-65373169D01*
X110825122Y-65373169D02*
X110872741Y-65516026D01*
X110872741Y-65516026D02*
X110872741Y-65944598D01*
X110872741Y-65944598D02*
X110825122Y-66087455D01*
X110825122Y-66087455D02*
X110777503Y-66158884D01*
X110777503Y-66158884D02*
X110682265Y-66230312D01*
X110682265Y-66230312D02*
X110539408Y-66230312D01*
X111206075Y-65230312D02*
X111396551Y-66230312D01*
X111396551Y-66230312D02*
X111587027Y-65516026D01*
X111587027Y-65516026D02*
X111777503Y-66230312D01*
X111777503Y-66230312D02*
X111967979Y-65230312D01*
X112348932Y-65230312D02*
X112348932Y-66230312D01*
X112348932Y-65373169D02*
X112396551Y-65301741D01*
X112396551Y-65301741D02*
X112491789Y-65230312D01*
X112491789Y-65230312D02*
X112634646Y-65230312D01*
X112634646Y-65230312D02*
X112729884Y-65301741D01*
X112729884Y-65301741D02*
X112777503Y-65444598D01*
X112777503Y-65444598D02*
X112777503Y-66230312D01*
X113301313Y-64730312D02*
X113206075Y-65016026D01*
X113729884Y-66230312D02*
X113729884Y-65230312D01*
X113729884Y-65516026D02*
X113777503Y-65373169D01*
X113777503Y-65373169D02*
X113825122Y-65301741D01*
X113825122Y-65301741D02*
X113920360Y-65230312D01*
X113920360Y-65230312D02*
X114015598Y-65230312D01*
X115110837Y-66230312D02*
X115110837Y-64730312D01*
X115110837Y-64730312D02*
X115348932Y-64730312D01*
X115348932Y-64730312D02*
X115491789Y-64801741D01*
X115491789Y-64801741D02*
X115587027Y-64944598D01*
X115587027Y-64944598D02*
X115634646Y-65087455D01*
X115634646Y-65087455D02*
X115682265Y-65373169D01*
X115682265Y-65373169D02*
X115682265Y-65587455D01*
X115682265Y-65587455D02*
X115634646Y-65873169D01*
X115634646Y-65873169D02*
X115587027Y-66016026D01*
X115587027Y-66016026D02*
X115491789Y-66158884D01*
X115491789Y-66158884D02*
X115348932Y-66230312D01*
X115348932Y-66230312D02*
X115110837Y-66230312D01*
X116491789Y-66158884D02*
X116396551Y-66230312D01*
X116396551Y-66230312D02*
X116206075Y-66230312D01*
X116206075Y-66230312D02*
X116110837Y-66158884D01*
X116110837Y-66158884D02*
X116063218Y-66016026D01*
X116063218Y-66016026D02*
X116063218Y-65444598D01*
X116063218Y-65444598D02*
X116110837Y-65301741D01*
X116110837Y-65301741D02*
X116206075Y-65230312D01*
X116206075Y-65230312D02*
X116396551Y-65230312D01*
X116396551Y-65230312D02*
X116491789Y-65301741D01*
X116491789Y-65301741D02*
X116539408Y-65444598D01*
X116539408Y-65444598D02*
X116539408Y-65587455D01*
X116539408Y-65587455D02*
X116063218Y-65730312D01*
X116872742Y-65230312D02*
X117110837Y-66230312D01*
X117110837Y-66230312D02*
X117348932Y-65230312D01*
X107063217Y-67859514D02*
X107206074Y-67930942D01*
X107206074Y-67930942D02*
X107253693Y-68002371D01*
X107253693Y-68002371D02*
X107301312Y-68145228D01*
X107301312Y-68145228D02*
X107301312Y-68359514D01*
X107301312Y-68359514D02*
X107253693Y-68502371D01*
X107253693Y-68502371D02*
X107206074Y-68573800D01*
X107206074Y-68573800D02*
X107110836Y-68645228D01*
X107110836Y-68645228D02*
X106729884Y-68645228D01*
X106729884Y-68645228D02*
X106729884Y-67145228D01*
X106729884Y-67145228D02*
X107063217Y-67145228D01*
X107063217Y-67145228D02*
X107158455Y-67216657D01*
X107158455Y-67216657D02*
X107206074Y-67288085D01*
X107206074Y-67288085D02*
X107253693Y-67430942D01*
X107253693Y-67430942D02*
X107253693Y-67573800D01*
X107253693Y-67573800D02*
X107206074Y-67716657D01*
X107206074Y-67716657D02*
X107158455Y-67788085D01*
X107158455Y-67788085D02*
X107063217Y-67859514D01*
X107063217Y-67859514D02*
X106729884Y-67859514D01*
X107729884Y-68645228D02*
X107729884Y-67145228D01*
X107729884Y-67145228D02*
X108063217Y-68216657D01*
X108063217Y-68216657D02*
X108396550Y-67145228D01*
X108396550Y-67145228D02*
X108396550Y-68645228D01*
X108825122Y-68573800D02*
X108967979Y-68645228D01*
X108967979Y-68645228D02*
X109206074Y-68645228D01*
X109206074Y-68645228D02*
X109301312Y-68573800D01*
X109301312Y-68573800D02*
X109348931Y-68502371D01*
X109348931Y-68502371D02*
X109396550Y-68359514D01*
X109396550Y-68359514D02*
X109396550Y-68216657D01*
X109396550Y-68216657D02*
X109348931Y-68073800D01*
X109348931Y-68073800D02*
X109301312Y-68002371D01*
X109301312Y-68002371D02*
X109206074Y-67930942D01*
X109206074Y-67930942D02*
X109015598Y-67859514D01*
X109015598Y-67859514D02*
X108920360Y-67788085D01*
X108920360Y-67788085D02*
X108872741Y-67716657D01*
X108872741Y-67716657D02*
X108825122Y-67573800D01*
X108825122Y-67573800D02*
X108825122Y-67430942D01*
X108825122Y-67430942D02*
X108872741Y-67288085D01*
X108872741Y-67288085D02*
X108920360Y-67216657D01*
X108920360Y-67216657D02*
X109015598Y-67145228D01*
X109015598Y-67145228D02*
X109253693Y-67145228D01*
X109253693Y-67145228D02*
X109396550Y-67216657D01*
X110587027Y-68645228D02*
X110587027Y-67145228D01*
X110587027Y-67145228D02*
X110920360Y-68216657D01*
X110920360Y-68216657D02*
X111253693Y-67145228D01*
X111253693Y-67145228D02*
X111253693Y-68645228D01*
X111872741Y-68645228D02*
X111777503Y-68573800D01*
X111777503Y-68573800D02*
X111729884Y-68502371D01*
X111729884Y-68502371D02*
X111682265Y-68359514D01*
X111682265Y-68359514D02*
X111682265Y-67930942D01*
X111682265Y-67930942D02*
X111729884Y-67788085D01*
X111729884Y-67788085D02*
X111777503Y-67716657D01*
X111777503Y-67716657D02*
X111872741Y-67645228D01*
X111872741Y-67645228D02*
X112015598Y-67645228D01*
X112015598Y-67645228D02*
X112110836Y-67716657D01*
X112110836Y-67716657D02*
X112158455Y-67788085D01*
X112158455Y-67788085D02*
X112206074Y-67930942D01*
X112206074Y-67930942D02*
X112206074Y-68359514D01*
X112206074Y-68359514D02*
X112158455Y-68502371D01*
X112158455Y-68502371D02*
X112110836Y-68573800D01*
X112110836Y-68573800D02*
X112015598Y-68645228D01*
X112015598Y-68645228D02*
X111872741Y-68645228D01*
X112634646Y-67645228D02*
X112634646Y-68645228D01*
X112634646Y-67788085D02*
X112682265Y-67716657D01*
X112682265Y-67716657D02*
X112777503Y-67645228D01*
X112777503Y-67645228D02*
X112920360Y-67645228D01*
X112920360Y-67645228D02*
X113015598Y-67716657D01*
X113015598Y-67716657D02*
X113063217Y-67859514D01*
X113063217Y-67859514D02*
X113063217Y-68645228D01*
X113539408Y-68645228D02*
X113539408Y-67645228D01*
X113539408Y-67145228D02*
X113491789Y-67216657D01*
X113491789Y-67216657D02*
X113539408Y-67288085D01*
X113539408Y-67288085D02*
X113587027Y-67216657D01*
X113587027Y-67216657D02*
X113539408Y-67145228D01*
X113539408Y-67145228D02*
X113539408Y-67288085D01*
X113872741Y-67645228D02*
X114253693Y-67645228D01*
X114015598Y-67145228D02*
X114015598Y-68430942D01*
X114015598Y-68430942D02*
X114063217Y-68573800D01*
X114063217Y-68573800D02*
X114158455Y-68645228D01*
X114158455Y-68645228D02*
X114253693Y-68645228D01*
X114729884Y-68645228D02*
X114634646Y-68573800D01*
X114634646Y-68573800D02*
X114587027Y-68502371D01*
X114587027Y-68502371D02*
X114539408Y-68359514D01*
X114539408Y-68359514D02*
X114539408Y-67930942D01*
X114539408Y-67930942D02*
X114587027Y-67788085D01*
X114587027Y-67788085D02*
X114634646Y-67716657D01*
X114634646Y-67716657D02*
X114729884Y-67645228D01*
X114729884Y-67645228D02*
X114872741Y-67645228D01*
X114872741Y-67645228D02*
X114967979Y-67716657D01*
X114967979Y-67716657D02*
X115015598Y-67788085D01*
X115015598Y-67788085D02*
X115063217Y-67930942D01*
X115063217Y-67930942D02*
X115063217Y-68359514D01*
X115063217Y-68359514D02*
X115015598Y-68502371D01*
X115015598Y-68502371D02*
X114967979Y-68573800D01*
X114967979Y-68573800D02*
X114872741Y-68645228D01*
X114872741Y-68645228D02*
X114729884Y-68645228D01*
X115491789Y-68645228D02*
X115491789Y-67645228D01*
X115491789Y-67930942D02*
X115539408Y-67788085D01*
X115539408Y-67788085D02*
X115587027Y-67716657D01*
X115587027Y-67716657D02*
X115682265Y-67645228D01*
X115682265Y-67645228D02*
X115777503Y-67645228D01*
X116825123Y-67288085D02*
X116872742Y-67216657D01*
X116872742Y-67216657D02*
X116967980Y-67145228D01*
X116967980Y-67145228D02*
X117206075Y-67145228D01*
X117206075Y-67145228D02*
X117301313Y-67216657D01*
X117301313Y-67216657D02*
X117348932Y-67288085D01*
X117348932Y-67288085D02*
X117396551Y-67430942D01*
X117396551Y-67430942D02*
X117396551Y-67573800D01*
X117396551Y-67573800D02*
X117348932Y-67788085D01*
X117348932Y-67788085D02*
X116777504Y-68645228D01*
X116777504Y-68645228D02*
X117396551Y-68645228D01*
X117825123Y-68502371D02*
X117872742Y-68573800D01*
X117872742Y-68573800D02*
X117825123Y-68645228D01*
X117825123Y-68645228D02*
X117777504Y-68573800D01*
X117777504Y-68573800D02*
X117825123Y-68502371D01*
X117825123Y-68502371D02*
X117825123Y-68645228D01*
X118491789Y-67145228D02*
X118587027Y-67145228D01*
X118587027Y-67145228D02*
X118682265Y-67216657D01*
X118682265Y-67216657D02*
X118729884Y-67288085D01*
X118729884Y-67288085D02*
X118777503Y-67430942D01*
X118777503Y-67430942D02*
X118825122Y-67716657D01*
X118825122Y-67716657D02*
X118825122Y-68073800D01*
X118825122Y-68073800D02*
X118777503Y-68359514D01*
X118777503Y-68359514D02*
X118729884Y-68502371D01*
X118729884Y-68502371D02*
X118682265Y-68573800D01*
X118682265Y-68573800D02*
X118587027Y-68645228D01*
X118587027Y-68645228D02*
X118491789Y-68645228D01*
X118491789Y-68645228D02*
X118396551Y-68573800D01*
X118396551Y-68573800D02*
X118348932Y-68502371D01*
X118348932Y-68502371D02*
X118301313Y-68359514D01*
X118301313Y-68359514D02*
X118253694Y-68073800D01*
X118253694Y-68073800D02*
X118253694Y-67716657D01*
X118253694Y-67716657D02*
X118301313Y-67430942D01*
X118301313Y-67430942D02*
X118348932Y-67288085D01*
X118348932Y-67288085D02*
X118396551Y-67216657D01*
X118396551Y-67216657D02*
X118491789Y-67145228D01*
D11*
X99488666Y-84500819D02*
X99488666Y-85215104D01*
X99488666Y-85215104D02*
X99441047Y-85357961D01*
X99441047Y-85357961D02*
X99345809Y-85453200D01*
X99345809Y-85453200D02*
X99202952Y-85500819D01*
X99202952Y-85500819D02*
X99107714Y-85500819D01*
X100488666Y-85500819D02*
X99917238Y-85500819D01*
X100202952Y-85500819D02*
X100202952Y-84500819D01*
X100202952Y-84500819D02*
X100107714Y-84643676D01*
X100107714Y-84643676D02*
X100012476Y-84738914D01*
X100012476Y-84738914D02*
X99917238Y-84786533D01*
D10*
X99205219Y-86094104D02*
X100014742Y-86094104D01*
X100014742Y-86094104D02*
X100109980Y-86046485D01*
X100109980Y-86046485D02*
X100157600Y-85998866D01*
X100157600Y-85998866D02*
X100205219Y-85903628D01*
X100205219Y-85903628D02*
X100205219Y-85713152D01*
X100205219Y-85713152D02*
X100157600Y-85617914D01*
X100157600Y-85617914D02*
X100109980Y-85570295D01*
X100109980Y-85570295D02*
X100014742Y-85522676D01*
X100014742Y-85522676D02*
X99205219Y-85522676D01*
X100205219Y-84522676D02*
X100205219Y-85094104D01*
X100205219Y-84808390D02*
X99205219Y-84808390D01*
X99205219Y-84808390D02*
X99348076Y-84903628D01*
X99348076Y-84903628D02*
X99443314Y-84998866D01*
X99443314Y-84998866D02*
X99490933Y-85094104D01*
D11*
X193421095Y-71504819D02*
X193421095Y-72314342D01*
X193421095Y-72314342D02*
X193468714Y-72409580D01*
X193468714Y-72409580D02*
X193516333Y-72457200D01*
X193516333Y-72457200D02*
X193611571Y-72504819D01*
X193611571Y-72504819D02*
X193802047Y-72504819D01*
X193802047Y-72504819D02*
X193897285Y-72457200D01*
X193897285Y-72457200D02*
X193944904Y-72409580D01*
X193944904Y-72409580D02*
X193992523Y-72314342D01*
X193992523Y-72314342D02*
X193992523Y-71504819D01*
X194944904Y-71504819D02*
X194468714Y-71504819D01*
X194468714Y-71504819D02*
X194421095Y-71981009D01*
X194421095Y-71981009D02*
X194468714Y-71933390D01*
X194468714Y-71933390D02*
X194563952Y-71885771D01*
X194563952Y-71885771D02*
X194802047Y-71885771D01*
X194802047Y-71885771D02*
X194897285Y-71933390D01*
X194897285Y-71933390D02*
X194944904Y-71981009D01*
X194944904Y-71981009D02*
X194992523Y-72076247D01*
X194992523Y-72076247D02*
X194992523Y-72314342D01*
X194992523Y-72314342D02*
X194944904Y-72409580D01*
X194944904Y-72409580D02*
X194897285Y-72457200D01*
X194897285Y-72457200D02*
X194802047Y-72504819D01*
X194802047Y-72504819D02*
X194563952Y-72504819D01*
X194563952Y-72504819D02*
X194468714Y-72457200D01*
X194468714Y-72457200D02*
X194421095Y-72409580D01*
X160513733Y-66337019D02*
X160180400Y-65860828D01*
X159942305Y-66337019D02*
X159942305Y-65337019D01*
X159942305Y-65337019D02*
X160323257Y-65337019D01*
X160323257Y-65337019D02*
X160418495Y-65384638D01*
X160418495Y-65384638D02*
X160466114Y-65432257D01*
X160466114Y-65432257D02*
X160513733Y-65527495D01*
X160513733Y-65527495D02*
X160513733Y-65670352D01*
X160513733Y-65670352D02*
X160466114Y-65765590D01*
X160466114Y-65765590D02*
X160418495Y-65813209D01*
X160418495Y-65813209D02*
X160323257Y-65860828D01*
X160323257Y-65860828D02*
X159942305Y-65860828D01*
X161370876Y-65337019D02*
X161180400Y-65337019D01*
X161180400Y-65337019D02*
X161085162Y-65384638D01*
X161085162Y-65384638D02*
X161037543Y-65432257D01*
X161037543Y-65432257D02*
X160942305Y-65575114D01*
X160942305Y-65575114D02*
X160894686Y-65765590D01*
X160894686Y-65765590D02*
X160894686Y-66146542D01*
X160894686Y-66146542D02*
X160942305Y-66241780D01*
X160942305Y-66241780D02*
X160989924Y-66289400D01*
X160989924Y-66289400D02*
X161085162Y-66337019D01*
X161085162Y-66337019D02*
X161275638Y-66337019D01*
X161275638Y-66337019D02*
X161370876Y-66289400D01*
X161370876Y-66289400D02*
X161418495Y-66241780D01*
X161418495Y-66241780D02*
X161466114Y-66146542D01*
X161466114Y-66146542D02*
X161466114Y-65908447D01*
X161466114Y-65908447D02*
X161418495Y-65813209D01*
X161418495Y-65813209D02*
X161370876Y-65765590D01*
X161370876Y-65765590D02*
X161275638Y-65717971D01*
X161275638Y-65717971D02*
X161085162Y-65717971D01*
X161085162Y-65717971D02*
X160989924Y-65765590D01*
X160989924Y-65765590D02*
X160942305Y-65813209D01*
X160942305Y-65813209D02*
X160894686Y-65908447D01*
X157249019Y-113323666D02*
X156772828Y-113656999D01*
X157249019Y-113895094D02*
X156249019Y-113895094D01*
X156249019Y-113895094D02*
X156249019Y-113514142D01*
X156249019Y-113514142D02*
X156296638Y-113418904D01*
X156296638Y-113418904D02*
X156344257Y-113371285D01*
X156344257Y-113371285D02*
X156439495Y-113323666D01*
X156439495Y-113323666D02*
X156582352Y-113323666D01*
X156582352Y-113323666D02*
X156677590Y-113371285D01*
X156677590Y-113371285D02*
X156725209Y-113418904D01*
X156725209Y-113418904D02*
X156772828Y-113514142D01*
X156772828Y-113514142D02*
X156772828Y-113895094D01*
X156249019Y-112990332D02*
X156249019Y-112371285D01*
X156249019Y-112371285D02*
X156629971Y-112704618D01*
X156629971Y-112704618D02*
X156629971Y-112561761D01*
X156629971Y-112561761D02*
X156677590Y-112466523D01*
X156677590Y-112466523D02*
X156725209Y-112418904D01*
X156725209Y-112418904D02*
X156820447Y-112371285D01*
X156820447Y-112371285D02*
X157058542Y-112371285D01*
X157058542Y-112371285D02*
X157153780Y-112418904D01*
X157153780Y-112418904D02*
X157201400Y-112466523D01*
X157201400Y-112466523D02*
X157249019Y-112561761D01*
X157249019Y-112561761D02*
X157249019Y-112847475D01*
X157249019Y-112847475D02*
X157201400Y-112942713D01*
X157201400Y-112942713D02*
X157153780Y-112990332D01*
X182099419Y-99367933D02*
X182813704Y-99367933D01*
X182813704Y-99367933D02*
X182956561Y-99415552D01*
X182956561Y-99415552D02*
X183051800Y-99510790D01*
X183051800Y-99510790D02*
X183099419Y-99653647D01*
X183099419Y-99653647D02*
X183099419Y-99748885D01*
X182194657Y-98939361D02*
X182147038Y-98891742D01*
X182147038Y-98891742D02*
X182099419Y-98796504D01*
X182099419Y-98796504D02*
X182099419Y-98558409D01*
X182099419Y-98558409D02*
X182147038Y-98463171D01*
X182147038Y-98463171D02*
X182194657Y-98415552D01*
X182194657Y-98415552D02*
X182289895Y-98367933D01*
X182289895Y-98367933D02*
X182385133Y-98367933D01*
X182385133Y-98367933D02*
X182527990Y-98415552D01*
X182527990Y-98415552D02*
X183099419Y-98986980D01*
X183099419Y-98986980D02*
X183099419Y-98367933D01*
X125097266Y-106008419D02*
X125097266Y-106722704D01*
X125097266Y-106722704D02*
X125049647Y-106865561D01*
X125049647Y-106865561D02*
X124954409Y-106960800D01*
X124954409Y-106960800D02*
X124811552Y-107008419D01*
X124811552Y-107008419D02*
X124716314Y-107008419D01*
X125478219Y-106008419D02*
X126097266Y-106008419D01*
X126097266Y-106008419D02*
X125763933Y-106389371D01*
X125763933Y-106389371D02*
X125906790Y-106389371D01*
X125906790Y-106389371D02*
X126002028Y-106436990D01*
X126002028Y-106436990D02*
X126049647Y-106484609D01*
X126049647Y-106484609D02*
X126097266Y-106579847D01*
X126097266Y-106579847D02*
X126097266Y-106817942D01*
X126097266Y-106817942D02*
X126049647Y-106913180D01*
X126049647Y-106913180D02*
X126002028Y-106960800D01*
X126002028Y-106960800D02*
X125906790Y-107008419D01*
X125906790Y-107008419D02*
X125621076Y-107008419D01*
X125621076Y-107008419D02*
X125525838Y-106960800D01*
X125525838Y-106960800D02*
X125478219Y-106913180D01*
X135117561Y-75892188D02*
X135165180Y-75796950D01*
X135165180Y-75796950D02*
X135165180Y-75654093D01*
X135165180Y-75654093D02*
X135117561Y-75511236D01*
X135117561Y-75511236D02*
X135022323Y-75415998D01*
X135022323Y-75415998D02*
X134927085Y-75368379D01*
X134927085Y-75368379D02*
X134736609Y-75320760D01*
X134736609Y-75320760D02*
X134593752Y-75320760D01*
X134593752Y-75320760D02*
X134403276Y-75368379D01*
X134403276Y-75368379D02*
X134308038Y-75415998D01*
X134308038Y-75415998D02*
X134212800Y-75511236D01*
X134212800Y-75511236D02*
X134165180Y-75654093D01*
X134165180Y-75654093D02*
X134165180Y-75749331D01*
X134165180Y-75749331D02*
X134212800Y-75892188D01*
X134212800Y-75892188D02*
X134260419Y-75939807D01*
X134260419Y-75939807D02*
X134593752Y-75939807D01*
X134593752Y-75939807D02*
X134593752Y-75749331D01*
X134165180Y-76368379D02*
X135165180Y-76368379D01*
X135165180Y-76368379D02*
X135165180Y-76749331D01*
X135165180Y-76749331D02*
X135117561Y-76844569D01*
X135117561Y-76844569D02*
X135069942Y-76892188D01*
X135069942Y-76892188D02*
X134974704Y-76939807D01*
X134974704Y-76939807D02*
X134831847Y-76939807D01*
X134831847Y-76939807D02*
X134736609Y-76892188D01*
X134736609Y-76892188D02*
X134688990Y-76844569D01*
X134688990Y-76844569D02*
X134641371Y-76749331D01*
X134641371Y-76749331D02*
X134641371Y-76368379D01*
X134165180Y-77368379D02*
X135165180Y-77368379D01*
X135165180Y-78035045D02*
X135165180Y-78225521D01*
X135165180Y-78225521D02*
X135117561Y-78320759D01*
X135117561Y-78320759D02*
X135022323Y-78415997D01*
X135022323Y-78415997D02*
X134831847Y-78463616D01*
X134831847Y-78463616D02*
X134498514Y-78463616D01*
X134498514Y-78463616D02*
X134308038Y-78415997D01*
X134308038Y-78415997D02*
X134212800Y-78320759D01*
X134212800Y-78320759D02*
X134165180Y-78225521D01*
X134165180Y-78225521D02*
X134165180Y-78035045D01*
X134165180Y-78035045D02*
X134212800Y-77939807D01*
X134212800Y-77939807D02*
X134308038Y-77844569D01*
X134308038Y-77844569D02*
X134498514Y-77796950D01*
X134498514Y-77796950D02*
X134831847Y-77796950D01*
X134831847Y-77796950D02*
X135022323Y-77844569D01*
X135022323Y-77844569D02*
X135117561Y-77939807D01*
X135117561Y-77939807D02*
X135165180Y-78035045D01*
X134165180Y-79415997D02*
X134165180Y-78844569D01*
X134165180Y-79130283D02*
X135165180Y-79130283D01*
X135165180Y-79130283D02*
X135022323Y-79035045D01*
X135022323Y-79035045D02*
X134927085Y-78939807D01*
X134927085Y-78939807D02*
X134879466Y-78844569D01*
X135165180Y-79749331D02*
X135165180Y-80368378D01*
X135165180Y-80368378D02*
X134784228Y-80035045D01*
X134784228Y-80035045D02*
X134784228Y-80177902D01*
X134784228Y-80177902D02*
X134736609Y-80273140D01*
X134736609Y-80273140D02*
X134688990Y-80320759D01*
X134688990Y-80320759D02*
X134593752Y-80368378D01*
X134593752Y-80368378D02*
X134355657Y-80368378D01*
X134355657Y-80368378D02*
X134260419Y-80320759D01*
X134260419Y-80320759D02*
X134212800Y-80273140D01*
X134212800Y-80273140D02*
X134165180Y-80177902D01*
X134165180Y-80177902D02*
X134165180Y-79892188D01*
X134165180Y-79892188D02*
X134212800Y-79796950D01*
X134212800Y-79796950D02*
X134260419Y-79749331D01*
X135117561Y-90586249D02*
X135165180Y-90491011D01*
X135165180Y-90491011D02*
X135165180Y-90348154D01*
X135165180Y-90348154D02*
X135117561Y-90205297D01*
X135117561Y-90205297D02*
X135022323Y-90110059D01*
X135022323Y-90110059D02*
X134927085Y-90062440D01*
X134927085Y-90062440D02*
X134736609Y-90014821D01*
X134736609Y-90014821D02*
X134593752Y-90014821D01*
X134593752Y-90014821D02*
X134403276Y-90062440D01*
X134403276Y-90062440D02*
X134308038Y-90110059D01*
X134308038Y-90110059D02*
X134212800Y-90205297D01*
X134212800Y-90205297D02*
X134165180Y-90348154D01*
X134165180Y-90348154D02*
X134165180Y-90443392D01*
X134165180Y-90443392D02*
X134212800Y-90586249D01*
X134212800Y-90586249D02*
X134260419Y-90633868D01*
X134260419Y-90633868D02*
X134593752Y-90633868D01*
X134593752Y-90633868D02*
X134593752Y-90443392D01*
X134165180Y-91062440D02*
X135165180Y-91062440D01*
X135165180Y-91062440D02*
X135165180Y-91443392D01*
X135165180Y-91443392D02*
X135117561Y-91538630D01*
X135117561Y-91538630D02*
X135069942Y-91586249D01*
X135069942Y-91586249D02*
X134974704Y-91633868D01*
X134974704Y-91633868D02*
X134831847Y-91633868D01*
X134831847Y-91633868D02*
X134736609Y-91586249D01*
X134736609Y-91586249D02*
X134688990Y-91538630D01*
X134688990Y-91538630D02*
X134641371Y-91443392D01*
X134641371Y-91443392D02*
X134641371Y-91062440D01*
X134165180Y-92062440D02*
X135165180Y-92062440D01*
X135165180Y-92729106D02*
X135165180Y-92919582D01*
X135165180Y-92919582D02*
X135117561Y-93014820D01*
X135117561Y-93014820D02*
X135022323Y-93110058D01*
X135022323Y-93110058D02*
X134831847Y-93157677D01*
X134831847Y-93157677D02*
X134498514Y-93157677D01*
X134498514Y-93157677D02*
X134308038Y-93110058D01*
X134308038Y-93110058D02*
X134212800Y-93014820D01*
X134212800Y-93014820D02*
X134165180Y-92919582D01*
X134165180Y-92919582D02*
X134165180Y-92729106D01*
X134165180Y-92729106D02*
X134212800Y-92633868D01*
X134212800Y-92633868D02*
X134308038Y-92538630D01*
X134308038Y-92538630D02*
X134498514Y-92491011D01*
X134498514Y-92491011D02*
X134831847Y-92491011D01*
X134831847Y-92491011D02*
X135022323Y-92538630D01*
X135022323Y-92538630D02*
X135117561Y-92633868D01*
X135117561Y-92633868D02*
X135165180Y-92729106D01*
X135069942Y-93538630D02*
X135117561Y-93586249D01*
X135117561Y-93586249D02*
X135165180Y-93681487D01*
X135165180Y-93681487D02*
X135165180Y-93919582D01*
X135165180Y-93919582D02*
X135117561Y-94014820D01*
X135117561Y-94014820D02*
X135069942Y-94062439D01*
X135069942Y-94062439D02*
X134974704Y-94110058D01*
X134974704Y-94110058D02*
X134879466Y-94110058D01*
X134879466Y-94110058D02*
X134736609Y-94062439D01*
X134736609Y-94062439D02*
X134165180Y-93491011D01*
X134165180Y-93491011D02*
X134165180Y-94110058D01*
X135165180Y-94729106D02*
X135165180Y-94824344D01*
X135165180Y-94824344D02*
X135117561Y-94919582D01*
X135117561Y-94919582D02*
X135069942Y-94967201D01*
X135069942Y-94967201D02*
X134974704Y-95014820D01*
X134974704Y-95014820D02*
X134784228Y-95062439D01*
X134784228Y-95062439D02*
X134546133Y-95062439D01*
X134546133Y-95062439D02*
X134355657Y-95014820D01*
X134355657Y-95014820D02*
X134260419Y-94967201D01*
X134260419Y-94967201D02*
X134212800Y-94919582D01*
X134212800Y-94919582D02*
X134165180Y-94824344D01*
X134165180Y-94824344D02*
X134165180Y-94729106D01*
X134165180Y-94729106D02*
X134212800Y-94633868D01*
X134212800Y-94633868D02*
X134260419Y-94586249D01*
X134260419Y-94586249D02*
X134355657Y-94538630D01*
X134355657Y-94538630D02*
X134546133Y-94491011D01*
X134546133Y-94491011D02*
X134784228Y-94491011D01*
X134784228Y-94491011D02*
X134974704Y-94538630D01*
X134974704Y-94538630D02*
X135069942Y-94586249D01*
X135069942Y-94586249D02*
X135117561Y-94633868D01*
X135117561Y-94633868D02*
X135165180Y-94729106D01*
X130087900Y-76094889D02*
X130087900Y-75618699D01*
X130087900Y-75618699D02*
X129611710Y-75571080D01*
X129611710Y-75571080D02*
X129659329Y-75618699D01*
X129659329Y-75618699D02*
X129706948Y-75713937D01*
X129706948Y-75713937D02*
X129706948Y-75952032D01*
X129706948Y-75952032D02*
X129659329Y-76047270D01*
X129659329Y-76047270D02*
X129611710Y-76094889D01*
X129611710Y-76094889D02*
X129516472Y-76142508D01*
X129516472Y-76142508D02*
X129278377Y-76142508D01*
X129278377Y-76142508D02*
X129183139Y-76094889D01*
X129183139Y-76094889D02*
X129135520Y-76047270D01*
X129135520Y-76047270D02*
X129087900Y-75952032D01*
X129087900Y-75952032D02*
X129087900Y-75713937D01*
X129087900Y-75713937D02*
X129135520Y-75618699D01*
X129135520Y-75618699D02*
X129183139Y-75571080D01*
X130087900Y-76428223D02*
X129087900Y-76761556D01*
X129087900Y-76761556D02*
X130087900Y-77094889D01*
X127497561Y-92967201D02*
X127545180Y-92871963D01*
X127545180Y-92871963D02*
X127545180Y-92729106D01*
X127545180Y-92729106D02*
X127497561Y-92586249D01*
X127497561Y-92586249D02*
X127402323Y-92491011D01*
X127402323Y-92491011D02*
X127307085Y-92443392D01*
X127307085Y-92443392D02*
X127116609Y-92395773D01*
X127116609Y-92395773D02*
X126973752Y-92395773D01*
X126973752Y-92395773D02*
X126783276Y-92443392D01*
X126783276Y-92443392D02*
X126688038Y-92491011D01*
X126688038Y-92491011D02*
X126592800Y-92586249D01*
X126592800Y-92586249D02*
X126545180Y-92729106D01*
X126545180Y-92729106D02*
X126545180Y-92824344D01*
X126545180Y-92824344D02*
X126592800Y-92967201D01*
X126592800Y-92967201D02*
X126640419Y-93014820D01*
X126640419Y-93014820D02*
X126973752Y-93014820D01*
X126973752Y-93014820D02*
X126973752Y-92824344D01*
X126545180Y-93443392D02*
X127545180Y-93443392D01*
X127545180Y-93443392D02*
X126545180Y-94014820D01*
X126545180Y-94014820D02*
X127545180Y-94014820D01*
X126545180Y-94491011D02*
X127545180Y-94491011D01*
X127545180Y-94491011D02*
X127545180Y-94729106D01*
X127545180Y-94729106D02*
X127497561Y-94871963D01*
X127497561Y-94871963D02*
X127402323Y-94967201D01*
X127402323Y-94967201D02*
X127307085Y-95014820D01*
X127307085Y-95014820D02*
X127116609Y-95062439D01*
X127116609Y-95062439D02*
X126973752Y-95062439D01*
X126973752Y-95062439D02*
X126783276Y-95014820D01*
X126783276Y-95014820D02*
X126688038Y-94967201D01*
X126688038Y-94967201D02*
X126592800Y-94871963D01*
X126592800Y-94871963D02*
X126545180Y-94729106D01*
X126545180Y-94729106D02*
X126545180Y-94491011D01*
X130037561Y-92967201D02*
X130085180Y-92871963D01*
X130085180Y-92871963D02*
X130085180Y-92729106D01*
X130085180Y-92729106D02*
X130037561Y-92586249D01*
X130037561Y-92586249D02*
X129942323Y-92491011D01*
X129942323Y-92491011D02*
X129847085Y-92443392D01*
X129847085Y-92443392D02*
X129656609Y-92395773D01*
X129656609Y-92395773D02*
X129513752Y-92395773D01*
X129513752Y-92395773D02*
X129323276Y-92443392D01*
X129323276Y-92443392D02*
X129228038Y-92491011D01*
X129228038Y-92491011D02*
X129132800Y-92586249D01*
X129132800Y-92586249D02*
X129085180Y-92729106D01*
X129085180Y-92729106D02*
X129085180Y-92824344D01*
X129085180Y-92824344D02*
X129132800Y-92967201D01*
X129132800Y-92967201D02*
X129180419Y-93014820D01*
X129180419Y-93014820D02*
X129513752Y-93014820D01*
X129513752Y-93014820D02*
X129513752Y-92824344D01*
X129085180Y-93443392D02*
X130085180Y-93443392D01*
X130085180Y-93443392D02*
X129085180Y-94014820D01*
X129085180Y-94014820D02*
X130085180Y-94014820D01*
X129085180Y-94491011D02*
X130085180Y-94491011D01*
X130085180Y-94491011D02*
X130085180Y-94729106D01*
X130085180Y-94729106D02*
X130037561Y-94871963D01*
X130037561Y-94871963D02*
X129942323Y-94967201D01*
X129942323Y-94967201D02*
X129847085Y-95014820D01*
X129847085Y-95014820D02*
X129656609Y-95062439D01*
X129656609Y-95062439D02*
X129513752Y-95062439D01*
X129513752Y-95062439D02*
X129323276Y-95014820D01*
X129323276Y-95014820D02*
X129228038Y-94967201D01*
X129228038Y-94967201D02*
X129132800Y-94871963D01*
X129132800Y-94871963D02*
X129085180Y-94729106D01*
X129085180Y-94729106D02*
X129085180Y-94491011D01*
X132577561Y-90586249D02*
X132625180Y-90491011D01*
X132625180Y-90491011D02*
X132625180Y-90348154D01*
X132625180Y-90348154D02*
X132577561Y-90205297D01*
X132577561Y-90205297D02*
X132482323Y-90110059D01*
X132482323Y-90110059D02*
X132387085Y-90062440D01*
X132387085Y-90062440D02*
X132196609Y-90014821D01*
X132196609Y-90014821D02*
X132053752Y-90014821D01*
X132053752Y-90014821D02*
X131863276Y-90062440D01*
X131863276Y-90062440D02*
X131768038Y-90110059D01*
X131768038Y-90110059D02*
X131672800Y-90205297D01*
X131672800Y-90205297D02*
X131625180Y-90348154D01*
X131625180Y-90348154D02*
X131625180Y-90443392D01*
X131625180Y-90443392D02*
X131672800Y-90586249D01*
X131672800Y-90586249D02*
X131720419Y-90633868D01*
X131720419Y-90633868D02*
X132053752Y-90633868D01*
X132053752Y-90633868D02*
X132053752Y-90443392D01*
X131625180Y-91062440D02*
X132625180Y-91062440D01*
X132625180Y-91062440D02*
X132625180Y-91443392D01*
X132625180Y-91443392D02*
X132577561Y-91538630D01*
X132577561Y-91538630D02*
X132529942Y-91586249D01*
X132529942Y-91586249D02*
X132434704Y-91633868D01*
X132434704Y-91633868D02*
X132291847Y-91633868D01*
X132291847Y-91633868D02*
X132196609Y-91586249D01*
X132196609Y-91586249D02*
X132148990Y-91538630D01*
X132148990Y-91538630D02*
X132101371Y-91443392D01*
X132101371Y-91443392D02*
X132101371Y-91062440D01*
X131625180Y-92062440D02*
X132625180Y-92062440D01*
X132625180Y-92729106D02*
X132625180Y-92919582D01*
X132625180Y-92919582D02*
X132577561Y-93014820D01*
X132577561Y-93014820D02*
X132482323Y-93110058D01*
X132482323Y-93110058D02*
X132291847Y-93157677D01*
X132291847Y-93157677D02*
X131958514Y-93157677D01*
X131958514Y-93157677D02*
X131768038Y-93110058D01*
X131768038Y-93110058D02*
X131672800Y-93014820D01*
X131672800Y-93014820D02*
X131625180Y-92919582D01*
X131625180Y-92919582D02*
X131625180Y-92729106D01*
X131625180Y-92729106D02*
X131672800Y-92633868D01*
X131672800Y-92633868D02*
X131768038Y-92538630D01*
X131768038Y-92538630D02*
X131958514Y-92491011D01*
X131958514Y-92491011D02*
X132291847Y-92491011D01*
X132291847Y-92491011D02*
X132482323Y-92538630D01*
X132482323Y-92538630D02*
X132577561Y-92633868D01*
X132577561Y-92633868D02*
X132625180Y-92729106D01*
X131625180Y-94110058D02*
X131625180Y-93538630D01*
X131625180Y-93824344D02*
X132625180Y-93824344D01*
X132625180Y-93824344D02*
X132482323Y-93729106D01*
X132482323Y-93729106D02*
X132387085Y-93633868D01*
X132387085Y-93633868D02*
X132339466Y-93538630D01*
X131625180Y-94586249D02*
X131625180Y-94776725D01*
X131625180Y-94776725D02*
X131672800Y-94871963D01*
X131672800Y-94871963D02*
X131720419Y-94919582D01*
X131720419Y-94919582D02*
X131863276Y-95014820D01*
X131863276Y-95014820D02*
X132053752Y-95062439D01*
X132053752Y-95062439D02*
X132434704Y-95062439D01*
X132434704Y-95062439D02*
X132529942Y-95014820D01*
X132529942Y-95014820D02*
X132577561Y-94967201D01*
X132577561Y-94967201D02*
X132625180Y-94871963D01*
X132625180Y-94871963D02*
X132625180Y-94681487D01*
X132625180Y-94681487D02*
X132577561Y-94586249D01*
X132577561Y-94586249D02*
X132529942Y-94538630D01*
X132529942Y-94538630D02*
X132434704Y-94491011D01*
X132434704Y-94491011D02*
X132196609Y-94491011D01*
X132196609Y-94491011D02*
X132101371Y-94538630D01*
X132101371Y-94538630D02*
X132053752Y-94586249D01*
X132053752Y-94586249D02*
X132006133Y-94681487D01*
X132006133Y-94681487D02*
X132006133Y-94871963D01*
X132006133Y-94871963D02*
X132053752Y-94967201D01*
X132053752Y-94967201D02*
X132101371Y-95014820D01*
X132101371Y-95014820D02*
X132196609Y-95062439D01*
X132577561Y-75892188D02*
X132625180Y-75796950D01*
X132625180Y-75796950D02*
X132625180Y-75654093D01*
X132625180Y-75654093D02*
X132577561Y-75511236D01*
X132577561Y-75511236D02*
X132482323Y-75415998D01*
X132482323Y-75415998D02*
X132387085Y-75368379D01*
X132387085Y-75368379D02*
X132196609Y-75320760D01*
X132196609Y-75320760D02*
X132053752Y-75320760D01*
X132053752Y-75320760D02*
X131863276Y-75368379D01*
X131863276Y-75368379D02*
X131768038Y-75415998D01*
X131768038Y-75415998D02*
X131672800Y-75511236D01*
X131672800Y-75511236D02*
X131625180Y-75654093D01*
X131625180Y-75654093D02*
X131625180Y-75749331D01*
X131625180Y-75749331D02*
X131672800Y-75892188D01*
X131672800Y-75892188D02*
X131720419Y-75939807D01*
X131720419Y-75939807D02*
X132053752Y-75939807D01*
X132053752Y-75939807D02*
X132053752Y-75749331D01*
X131625180Y-76368379D02*
X132625180Y-76368379D01*
X132625180Y-76368379D02*
X132625180Y-76749331D01*
X132625180Y-76749331D02*
X132577561Y-76844569D01*
X132577561Y-76844569D02*
X132529942Y-76892188D01*
X132529942Y-76892188D02*
X132434704Y-76939807D01*
X132434704Y-76939807D02*
X132291847Y-76939807D01*
X132291847Y-76939807D02*
X132196609Y-76892188D01*
X132196609Y-76892188D02*
X132148990Y-76844569D01*
X132148990Y-76844569D02*
X132101371Y-76749331D01*
X132101371Y-76749331D02*
X132101371Y-76368379D01*
X131625180Y-77368379D02*
X132625180Y-77368379D01*
X132625180Y-78035045D02*
X132625180Y-78225521D01*
X132625180Y-78225521D02*
X132577561Y-78320759D01*
X132577561Y-78320759D02*
X132482323Y-78415997D01*
X132482323Y-78415997D02*
X132291847Y-78463616D01*
X132291847Y-78463616D02*
X131958514Y-78463616D01*
X131958514Y-78463616D02*
X131768038Y-78415997D01*
X131768038Y-78415997D02*
X131672800Y-78320759D01*
X131672800Y-78320759D02*
X131625180Y-78225521D01*
X131625180Y-78225521D02*
X131625180Y-78035045D01*
X131625180Y-78035045D02*
X131672800Y-77939807D01*
X131672800Y-77939807D02*
X131768038Y-77844569D01*
X131768038Y-77844569D02*
X131958514Y-77796950D01*
X131958514Y-77796950D02*
X132291847Y-77796950D01*
X132291847Y-77796950D02*
X132482323Y-77844569D01*
X132482323Y-77844569D02*
X132577561Y-77939807D01*
X132577561Y-77939807D02*
X132625180Y-78035045D01*
X131625180Y-79415997D02*
X131625180Y-78844569D01*
X131625180Y-79130283D02*
X132625180Y-79130283D01*
X132625180Y-79130283D02*
X132482323Y-79035045D01*
X132482323Y-79035045D02*
X132387085Y-78939807D01*
X132387085Y-78939807D02*
X132339466Y-78844569D01*
X132291847Y-80273140D02*
X131625180Y-80273140D01*
X132672800Y-80035045D02*
X131958514Y-79796950D01*
X131958514Y-79796950D02*
X131958514Y-80415997D01*
X127500281Y-76142508D02*
X127547900Y-76047270D01*
X127547900Y-76047270D02*
X127547900Y-75904413D01*
X127547900Y-75904413D02*
X127500281Y-75761556D01*
X127500281Y-75761556D02*
X127405043Y-75666318D01*
X127405043Y-75666318D02*
X127309805Y-75618699D01*
X127309805Y-75618699D02*
X127119329Y-75571080D01*
X127119329Y-75571080D02*
X126976472Y-75571080D01*
X126976472Y-75571080D02*
X126785996Y-75618699D01*
X126785996Y-75618699D02*
X126690758Y-75666318D01*
X126690758Y-75666318D02*
X126595520Y-75761556D01*
X126595520Y-75761556D02*
X126547900Y-75904413D01*
X126547900Y-75904413D02*
X126547900Y-75999651D01*
X126547900Y-75999651D02*
X126595520Y-76142508D01*
X126595520Y-76142508D02*
X126643139Y-76190127D01*
X126643139Y-76190127D02*
X126976472Y-76190127D01*
X126976472Y-76190127D02*
X126976472Y-75999651D01*
X126547900Y-76618699D02*
X127547900Y-76618699D01*
X127547900Y-76618699D02*
X126547900Y-77190127D01*
X126547900Y-77190127D02*
X127547900Y-77190127D01*
X126547900Y-77666318D02*
X127547900Y-77666318D01*
X127547900Y-77666318D02*
X127547900Y-77904413D01*
X127547900Y-77904413D02*
X127500281Y-78047270D01*
X127500281Y-78047270D02*
X127405043Y-78142508D01*
X127405043Y-78142508D02*
X127309805Y-78190127D01*
X127309805Y-78190127D02*
X127119329Y-78237746D01*
X127119329Y-78237746D02*
X126976472Y-78237746D01*
X126976472Y-78237746D02*
X126785996Y-78190127D01*
X126785996Y-78190127D02*
X126690758Y-78142508D01*
X126690758Y-78142508D02*
X126595520Y-78047270D01*
X126595520Y-78047270D02*
X126547900Y-77904413D01*
X126547900Y-77904413D02*
X126547900Y-77666318D01*
X144684533Y-71554819D02*
X144351200Y-71078628D01*
X144113105Y-71554819D02*
X144113105Y-70554819D01*
X144113105Y-70554819D02*
X144494057Y-70554819D01*
X144494057Y-70554819D02*
X144589295Y-70602438D01*
X144589295Y-70602438D02*
X144636914Y-70650057D01*
X144636914Y-70650057D02*
X144684533Y-70745295D01*
X144684533Y-70745295D02*
X144684533Y-70888152D01*
X144684533Y-70888152D02*
X144636914Y-70983390D01*
X144636914Y-70983390D02*
X144589295Y-71031009D01*
X144589295Y-71031009D02*
X144494057Y-71078628D01*
X144494057Y-71078628D02*
X144113105Y-71078628D01*
X145636914Y-71554819D02*
X145065486Y-71554819D01*
X145351200Y-71554819D02*
X145351200Y-70554819D01*
X145351200Y-70554819D02*
X145255962Y-70697676D01*
X145255962Y-70697676D02*
X145160724Y-70792914D01*
X145160724Y-70792914D02*
X145065486Y-70840533D01*
D10*
X164681304Y-118373580D02*
X164681304Y-117564057D01*
X164681304Y-117564057D02*
X164633685Y-117468819D01*
X164633685Y-117468819D02*
X164586066Y-117421200D01*
X164586066Y-117421200D02*
X164490828Y-117373580D01*
X164490828Y-117373580D02*
X164300352Y-117373580D01*
X164300352Y-117373580D02*
X164205114Y-117421200D01*
X164205114Y-117421200D02*
X164157495Y-117468819D01*
X164157495Y-117468819D02*
X164109876Y-117564057D01*
X164109876Y-117564057D02*
X164109876Y-118373580D01*
X163728923Y-118373580D02*
X163109876Y-118373580D01*
X163109876Y-118373580D02*
X163443209Y-117992628D01*
X163443209Y-117992628D02*
X163300352Y-117992628D01*
X163300352Y-117992628D02*
X163205114Y-117945009D01*
X163205114Y-117945009D02*
X163157495Y-117897390D01*
X163157495Y-117897390D02*
X163109876Y-117802152D01*
X163109876Y-117802152D02*
X163109876Y-117564057D01*
X163109876Y-117564057D02*
X163157495Y-117468819D01*
X163157495Y-117468819D02*
X163205114Y-117421200D01*
X163205114Y-117421200D02*
X163300352Y-117373580D01*
X163300352Y-117373580D02*
X163586066Y-117373580D01*
X163586066Y-117373580D02*
X163681304Y-117421200D01*
X163681304Y-117421200D02*
X163728923Y-117468819D01*
D11*
X136949019Y-107019466D02*
X136472828Y-107352799D01*
X136949019Y-107590894D02*
X135949019Y-107590894D01*
X135949019Y-107590894D02*
X135949019Y-107209942D01*
X135949019Y-107209942D02*
X135996638Y-107114704D01*
X135996638Y-107114704D02*
X136044257Y-107067085D01*
X136044257Y-107067085D02*
X136139495Y-107019466D01*
X136139495Y-107019466D02*
X136282352Y-107019466D01*
X136282352Y-107019466D02*
X136377590Y-107067085D01*
X136377590Y-107067085D02*
X136425209Y-107114704D01*
X136425209Y-107114704D02*
X136472828Y-107209942D01*
X136472828Y-107209942D02*
X136472828Y-107590894D01*
X136282352Y-106162323D02*
X136949019Y-106162323D01*
X135901400Y-106400418D02*
X136615685Y-106638513D01*
X136615685Y-106638513D02*
X136615685Y-106019466D01*
X150080819Y-106943266D02*
X149604628Y-107276599D01*
X150080819Y-107514694D02*
X149080819Y-107514694D01*
X149080819Y-107514694D02*
X149080819Y-107133742D01*
X149080819Y-107133742D02*
X149128438Y-107038504D01*
X149128438Y-107038504D02*
X149176057Y-106990885D01*
X149176057Y-106990885D02*
X149271295Y-106943266D01*
X149271295Y-106943266D02*
X149414152Y-106943266D01*
X149414152Y-106943266D02*
X149509390Y-106990885D01*
X149509390Y-106990885D02*
X149557009Y-107038504D01*
X149557009Y-107038504D02*
X149604628Y-107133742D01*
X149604628Y-107133742D02*
X149604628Y-107514694D01*
X149080819Y-106038504D02*
X149080819Y-106514694D01*
X149080819Y-106514694D02*
X149557009Y-106562313D01*
X149557009Y-106562313D02*
X149509390Y-106514694D01*
X149509390Y-106514694D02*
X149461771Y-106419456D01*
X149461771Y-106419456D02*
X149461771Y-106181361D01*
X149461771Y-106181361D02*
X149509390Y-106086123D01*
X149509390Y-106086123D02*
X149557009Y-106038504D01*
X149557009Y-106038504D02*
X149652247Y-105990885D01*
X149652247Y-105990885D02*
X149890342Y-105990885D01*
X149890342Y-105990885D02*
X149985580Y-106038504D01*
X149985580Y-106038504D02*
X150033200Y-106086123D01*
X150033200Y-106086123D02*
X150080819Y-106181361D01*
X150080819Y-106181361D02*
X150080819Y-106419456D01*
X150080819Y-106419456D02*
X150033200Y-106514694D01*
X150033200Y-106514694D02*
X149985580Y-106562313D01*
D12*
%TO.C,J1*%
X98492000Y-86046000D02*
X99822000Y-86046000D01*
X98492000Y-87376000D02*
X98492000Y-86046000D01*
X98492000Y-88646000D02*
X98492000Y-96326000D01*
X98492000Y-88646000D02*
X101152000Y-88646000D01*
X98492000Y-96326000D02*
X101152000Y-96326000D01*
X101152000Y-88646000D02*
X101152000Y-96326000D01*
%TO.C,U1*%
D10*
X100330000Y-99923600D02*
X99847400Y-99923600D01*
X99847400Y-100076000D01*
X100330000Y-100076000D01*
X100330000Y-99923600D01*
X112674400Y-85445600D02*
X106095800Y-85445600D01*
X106095800Y-92024200D01*
X112674400Y-92024200D01*
X112674400Y-85445600D01*
X116992400Y-78054200D02*
X101752400Y-78054200D01*
X101752400Y-104444800D01*
X116992400Y-104444800D01*
X116992400Y-78054200D01*
X123748800Y-80010000D02*
X123469400Y-80010000D01*
X123469400Y-80213200D01*
X123748800Y-80213200D01*
X123748800Y-80010000D01*
D12*
%TO.C,R2*%
X170919600Y-69970000D02*
X170919600Y-67190000D01*
X179539600Y-67190000D02*
X170919600Y-67190000D01*
X179539600Y-69970000D02*
X170919600Y-69970000D01*
X179539600Y-69970000D02*
X179539600Y-67190000D01*
%TO.C,U5*%
X192853000Y-76090000D02*
X192853000Y-109170000D01*
X192853000Y-76090000D02*
X195513000Y-76090000D01*
X192853000Y-109170000D02*
X195513000Y-109170000D01*
X194183000Y-73490000D02*
X195513000Y-73490000D01*
X195513000Y-73490000D02*
X195513000Y-74820000D01*
X195513000Y-76090000D02*
X195513000Y-109170000D01*
%TO.C,R6*%
X156370400Y-67012200D02*
X156370400Y-69792200D01*
X156370400Y-67012200D02*
X164990400Y-67012200D01*
X156370400Y-69792200D02*
X164990400Y-69792200D01*
X164990400Y-67012200D02*
X164990400Y-69792200D01*
%TO.C,R3*%
X155963000Y-102542800D02*
X158743000Y-102542800D01*
X155963000Y-111162800D02*
X155963000Y-102542800D01*
X155963000Y-111162800D02*
X158743000Y-111162800D01*
X158743000Y-111162800D02*
X158743000Y-102542800D01*
%TO.C,J2*%
X125644600Y-97704600D02*
X125644600Y-100364600D01*
X179044600Y-97704600D02*
X125644600Y-97704600D01*
X179044600Y-97704600D02*
X179044600Y-100364600D01*
X179044600Y-100364600D02*
X125644600Y-100364600D01*
X180314600Y-97704600D02*
X181644600Y-97704600D01*
X181644600Y-97704600D02*
X181644600Y-99034600D01*
%TO.C,J3*%
X115290600Y-107543600D02*
X115290600Y-115163600D01*
X115290600Y-107543600D02*
X135610600Y-107543600D01*
X115290600Y-115163600D02*
X135610600Y-115163600D01*
X135610600Y-113893600D02*
X115290600Y-113893600D01*
X135610600Y-115163600D02*
X135610600Y-107543600D01*
%TO.C,U2*%
X117542720Y-72261600D02*
X117542720Y-98121599D01*
X117542720Y-98121599D02*
X181440000Y-98121600D01*
X181440000Y-72261601D02*
X117542720Y-72261600D01*
X181440000Y-98121600D02*
X181440000Y-72261601D01*
X181460320Y-76221720D02*
X187353120Y-76221720D01*
X187353120Y-76221720D02*
X187353120Y-94204920D01*
X187353120Y-94204920D02*
X181460320Y-94204920D01*
%TO.C,R1*%
X140541200Y-69970000D02*
X140541200Y-67190000D01*
X149161200Y-67190000D02*
X140541200Y-67190000D01*
X149161200Y-69970000D02*
X140541200Y-69970000D01*
X149161200Y-69970000D02*
X149161200Y-67190000D01*
%TO.C,U3*%
D10*
X177099900Y-107657900D02*
X174153500Y-107657900D01*
X174153500Y-104432100D01*
X177099900Y-104432100D01*
X177099900Y-107657900D01*
X181316300Y-113398300D02*
X159777100Y-113398300D01*
X159777100Y-103263700D01*
X181316300Y-103263700D01*
X181316300Y-113398300D01*
D12*
%TO.C,R4*%
X137624200Y-102542800D02*
X140404200Y-102542800D01*
X137624200Y-111162800D02*
X137624200Y-102542800D01*
X137624200Y-111162800D02*
X140404200Y-111162800D01*
X140404200Y-111162800D02*
X140404200Y-102542800D01*
%TO.C,R5*%
X150756000Y-102466600D02*
X153536000Y-102466600D01*
X150756000Y-111086600D02*
X150756000Y-102466600D01*
X150756000Y-111086600D02*
X153536000Y-111086600D01*
X153536000Y-111086600D02*
X153536000Y-102466600D01*
%TD*%
M02*
