%TF.GenerationSoftware,KiCad,Pcbnew,8.0.6-8.0.6-0~ubuntu24.04.1*%
%TF.CreationDate,2024-11-03T20:07:35+01:00*%
%TF.ProjectId,BmsMonitor,426d734d-6f6e-4697-946f-722e6b696361,rev?*%
%TF.SameCoordinates,Original*%
%TF.FileFunction,Legend,Bot*%
%TF.FilePolarity,Positive*%
%FSLAX46Y46*%
G04 Gerber Fmt 4.6, Leading zero omitted, Abs format (unit mm)*
G04 Created by KiCad (PCBNEW 8.0.6-8.0.6-0~ubuntu24.04.1) date 2024-11-03 20:07:35*
%MOMM*%
%LPD*%
G01*
G04 APERTURE LIST*
%ADD10C,0.100000*%
G04 APERTURE END LIST*
D10*
X106555265Y-67826116D02*
X106698122Y-67754687D01*
X106698122Y-67754687D02*
X106936217Y-67754687D01*
X106936217Y-67754687D02*
X107031455Y-67826116D01*
X107031455Y-67826116D02*
X107079074Y-67897544D01*
X107079074Y-67897544D02*
X107126693Y-68040401D01*
X107126693Y-68040401D02*
X107126693Y-68183258D01*
X107126693Y-68183258D02*
X107079074Y-68326116D01*
X107079074Y-68326116D02*
X107031455Y-68397544D01*
X107031455Y-68397544D02*
X106936217Y-68468973D01*
X106936217Y-68468973D02*
X106745741Y-68540401D01*
X106745741Y-68540401D02*
X106650503Y-68611830D01*
X106650503Y-68611830D02*
X106602884Y-68683258D01*
X106602884Y-68683258D02*
X106555265Y-68826116D01*
X106555265Y-68826116D02*
X106555265Y-68968973D01*
X106555265Y-68968973D02*
X106602884Y-69111830D01*
X106602884Y-69111830D02*
X106650503Y-69183258D01*
X106650503Y-69183258D02*
X106745741Y-69254687D01*
X106745741Y-69254687D02*
X106983836Y-69254687D01*
X106983836Y-69254687D02*
X107126693Y-69183258D01*
X107983836Y-68754687D02*
X107983836Y-67754687D01*
X107555265Y-68754687D02*
X107555265Y-67968973D01*
X107555265Y-67968973D02*
X107602884Y-67826116D01*
X107602884Y-67826116D02*
X107698122Y-67754687D01*
X107698122Y-67754687D02*
X107840979Y-67754687D01*
X107840979Y-67754687D02*
X107936217Y-67826116D01*
X107936217Y-67826116D02*
X107983836Y-67897544D01*
X108460027Y-68754687D02*
X108460027Y-67754687D01*
X108460027Y-68611830D02*
X108507646Y-68683258D01*
X108507646Y-68683258D02*
X108602884Y-68754687D01*
X108602884Y-68754687D02*
X108745741Y-68754687D01*
X108745741Y-68754687D02*
X108840979Y-68683258D01*
X108840979Y-68683258D02*
X108888598Y-68540401D01*
X108888598Y-68540401D02*
X108888598Y-67754687D01*
X109793360Y-67754687D02*
X109793360Y-69254687D01*
X109793360Y-67826116D02*
X109698122Y-67754687D01*
X109698122Y-67754687D02*
X109507646Y-67754687D01*
X109507646Y-67754687D02*
X109412408Y-67826116D01*
X109412408Y-67826116D02*
X109364789Y-67897544D01*
X109364789Y-67897544D02*
X109317170Y-68040401D01*
X109317170Y-68040401D02*
X109317170Y-68468973D01*
X109317170Y-68468973D02*
X109364789Y-68611830D01*
X109364789Y-68611830D02*
X109412408Y-68683258D01*
X109412408Y-68683258D02*
X109507646Y-68754687D01*
X109507646Y-68754687D02*
X109698122Y-68754687D01*
X109698122Y-68754687D02*
X109793360Y-68683258D01*
X110412408Y-67754687D02*
X110317170Y-67826116D01*
X110317170Y-67826116D02*
X110269551Y-67897544D01*
X110269551Y-67897544D02*
X110221932Y-68040401D01*
X110221932Y-68040401D02*
X110221932Y-68468973D01*
X110221932Y-68468973D02*
X110269551Y-68611830D01*
X110269551Y-68611830D02*
X110317170Y-68683258D01*
X110317170Y-68683258D02*
X110412408Y-68754687D01*
X110412408Y-68754687D02*
X110555265Y-68754687D01*
X110555265Y-68754687D02*
X110650503Y-68683258D01*
X110650503Y-68683258D02*
X110698122Y-68611830D01*
X110698122Y-68611830D02*
X110745741Y-68468973D01*
X110745741Y-68468973D02*
X110745741Y-68040401D01*
X110745741Y-68040401D02*
X110698122Y-67897544D01*
X110698122Y-67897544D02*
X110650503Y-67826116D01*
X110650503Y-67826116D02*
X110555265Y-67754687D01*
X110555265Y-67754687D02*
X110412408Y-67754687D01*
X111079075Y-68754687D02*
X111269551Y-67754687D01*
X111269551Y-67754687D02*
X111460027Y-68468973D01*
X111460027Y-68468973D02*
X111650503Y-67754687D01*
X111650503Y-67754687D02*
X111840979Y-68754687D01*
X112221932Y-68754687D02*
X112221932Y-67754687D01*
X112221932Y-68611830D02*
X112269551Y-68683258D01*
X112269551Y-68683258D02*
X112364789Y-68754687D01*
X112364789Y-68754687D02*
X112507646Y-68754687D01*
X112507646Y-68754687D02*
X112602884Y-68683258D01*
X112602884Y-68683258D02*
X112650503Y-68540401D01*
X112650503Y-68540401D02*
X112650503Y-67754687D01*
X113174313Y-69254687D02*
X113079075Y-68968973D01*
X113602884Y-67754687D02*
X113602884Y-68754687D01*
X113602884Y-68468973D02*
X113650503Y-68611830D01*
X113650503Y-68611830D02*
X113698122Y-68683258D01*
X113698122Y-68683258D02*
X113793360Y-68754687D01*
X113793360Y-68754687D02*
X113888598Y-68754687D01*
X114983837Y-67754687D02*
X114983837Y-69254687D01*
X114983837Y-69254687D02*
X115221932Y-69254687D01*
X115221932Y-69254687D02*
X115364789Y-69183258D01*
X115364789Y-69183258D02*
X115460027Y-69040401D01*
X115460027Y-69040401D02*
X115507646Y-68897544D01*
X115507646Y-68897544D02*
X115555265Y-68611830D01*
X115555265Y-68611830D02*
X115555265Y-68397544D01*
X115555265Y-68397544D02*
X115507646Y-68111830D01*
X115507646Y-68111830D02*
X115460027Y-67968973D01*
X115460027Y-67968973D02*
X115364789Y-67826116D01*
X115364789Y-67826116D02*
X115221932Y-67754687D01*
X115221932Y-67754687D02*
X114983837Y-67754687D01*
X116364789Y-67826116D02*
X116269551Y-67754687D01*
X116269551Y-67754687D02*
X116079075Y-67754687D01*
X116079075Y-67754687D02*
X115983837Y-67826116D01*
X115983837Y-67826116D02*
X115936218Y-67968973D01*
X115936218Y-67968973D02*
X115936218Y-68540401D01*
X115936218Y-68540401D02*
X115983837Y-68683258D01*
X115983837Y-68683258D02*
X116079075Y-68754687D01*
X116079075Y-68754687D02*
X116269551Y-68754687D01*
X116269551Y-68754687D02*
X116364789Y-68683258D01*
X116364789Y-68683258D02*
X116412408Y-68540401D01*
X116412408Y-68540401D02*
X116412408Y-68397544D01*
X116412408Y-68397544D02*
X115936218Y-68254687D01*
X116745742Y-68754687D02*
X116983837Y-67754687D01*
X116983837Y-67754687D02*
X117221932Y-68754687D01*
X106936217Y-66125485D02*
X107079074Y-66054057D01*
X107079074Y-66054057D02*
X107126693Y-65982628D01*
X107126693Y-65982628D02*
X107174312Y-65839771D01*
X107174312Y-65839771D02*
X107174312Y-65625485D01*
X107174312Y-65625485D02*
X107126693Y-65482628D01*
X107126693Y-65482628D02*
X107079074Y-65411200D01*
X107079074Y-65411200D02*
X106983836Y-65339771D01*
X106983836Y-65339771D02*
X106602884Y-65339771D01*
X106602884Y-65339771D02*
X106602884Y-66839771D01*
X106602884Y-66839771D02*
X106936217Y-66839771D01*
X106936217Y-66839771D02*
X107031455Y-66768342D01*
X107031455Y-66768342D02*
X107079074Y-66696914D01*
X107079074Y-66696914D02*
X107126693Y-66554057D01*
X107126693Y-66554057D02*
X107126693Y-66411200D01*
X107126693Y-66411200D02*
X107079074Y-66268342D01*
X107079074Y-66268342D02*
X107031455Y-66196914D01*
X107031455Y-66196914D02*
X106936217Y-66125485D01*
X106936217Y-66125485D02*
X106602884Y-66125485D01*
X107602884Y-65339771D02*
X107602884Y-66839771D01*
X107602884Y-66839771D02*
X107936217Y-65768342D01*
X107936217Y-65768342D02*
X108269550Y-66839771D01*
X108269550Y-66839771D02*
X108269550Y-65339771D01*
X108698122Y-65411200D02*
X108840979Y-65339771D01*
X108840979Y-65339771D02*
X109079074Y-65339771D01*
X109079074Y-65339771D02*
X109174312Y-65411200D01*
X109174312Y-65411200D02*
X109221931Y-65482628D01*
X109221931Y-65482628D02*
X109269550Y-65625485D01*
X109269550Y-65625485D02*
X109269550Y-65768342D01*
X109269550Y-65768342D02*
X109221931Y-65911200D01*
X109221931Y-65911200D02*
X109174312Y-65982628D01*
X109174312Y-65982628D02*
X109079074Y-66054057D01*
X109079074Y-66054057D02*
X108888598Y-66125485D01*
X108888598Y-66125485D02*
X108793360Y-66196914D01*
X108793360Y-66196914D02*
X108745741Y-66268342D01*
X108745741Y-66268342D02*
X108698122Y-66411200D01*
X108698122Y-66411200D02*
X108698122Y-66554057D01*
X108698122Y-66554057D02*
X108745741Y-66696914D01*
X108745741Y-66696914D02*
X108793360Y-66768342D01*
X108793360Y-66768342D02*
X108888598Y-66839771D01*
X108888598Y-66839771D02*
X109126693Y-66839771D01*
X109126693Y-66839771D02*
X109269550Y-66768342D01*
X110460027Y-65339771D02*
X110460027Y-66839771D01*
X110460027Y-66839771D02*
X110793360Y-65768342D01*
X110793360Y-65768342D02*
X111126693Y-66839771D01*
X111126693Y-66839771D02*
X111126693Y-65339771D01*
X111745741Y-65339771D02*
X111650503Y-65411200D01*
X111650503Y-65411200D02*
X111602884Y-65482628D01*
X111602884Y-65482628D02*
X111555265Y-65625485D01*
X111555265Y-65625485D02*
X111555265Y-66054057D01*
X111555265Y-66054057D02*
X111602884Y-66196914D01*
X111602884Y-66196914D02*
X111650503Y-66268342D01*
X111650503Y-66268342D02*
X111745741Y-66339771D01*
X111745741Y-66339771D02*
X111888598Y-66339771D01*
X111888598Y-66339771D02*
X111983836Y-66268342D01*
X111983836Y-66268342D02*
X112031455Y-66196914D01*
X112031455Y-66196914D02*
X112079074Y-66054057D01*
X112079074Y-66054057D02*
X112079074Y-65625485D01*
X112079074Y-65625485D02*
X112031455Y-65482628D01*
X112031455Y-65482628D02*
X111983836Y-65411200D01*
X111983836Y-65411200D02*
X111888598Y-65339771D01*
X111888598Y-65339771D02*
X111745741Y-65339771D01*
X112507646Y-66339771D02*
X112507646Y-65339771D01*
X112507646Y-66196914D02*
X112555265Y-66268342D01*
X112555265Y-66268342D02*
X112650503Y-66339771D01*
X112650503Y-66339771D02*
X112793360Y-66339771D01*
X112793360Y-66339771D02*
X112888598Y-66268342D01*
X112888598Y-66268342D02*
X112936217Y-66125485D01*
X112936217Y-66125485D02*
X112936217Y-65339771D01*
X113412408Y-65339771D02*
X113412408Y-66339771D01*
X113412408Y-66839771D02*
X113364789Y-66768342D01*
X113364789Y-66768342D02*
X113412408Y-66696914D01*
X113412408Y-66696914D02*
X113460027Y-66768342D01*
X113460027Y-66768342D02*
X113412408Y-66839771D01*
X113412408Y-66839771D02*
X113412408Y-66696914D01*
X113745741Y-66339771D02*
X114126693Y-66339771D01*
X113888598Y-66839771D02*
X113888598Y-65554057D01*
X113888598Y-65554057D02*
X113936217Y-65411200D01*
X113936217Y-65411200D02*
X114031455Y-65339771D01*
X114031455Y-65339771D02*
X114126693Y-65339771D01*
X114602884Y-65339771D02*
X114507646Y-65411200D01*
X114507646Y-65411200D02*
X114460027Y-65482628D01*
X114460027Y-65482628D02*
X114412408Y-65625485D01*
X114412408Y-65625485D02*
X114412408Y-66054057D01*
X114412408Y-66054057D02*
X114460027Y-66196914D01*
X114460027Y-66196914D02*
X114507646Y-66268342D01*
X114507646Y-66268342D02*
X114602884Y-66339771D01*
X114602884Y-66339771D02*
X114745741Y-66339771D01*
X114745741Y-66339771D02*
X114840979Y-66268342D01*
X114840979Y-66268342D02*
X114888598Y-66196914D01*
X114888598Y-66196914D02*
X114936217Y-66054057D01*
X114936217Y-66054057D02*
X114936217Y-65625485D01*
X114936217Y-65625485D02*
X114888598Y-65482628D01*
X114888598Y-65482628D02*
X114840979Y-65411200D01*
X114840979Y-65411200D02*
X114745741Y-65339771D01*
X114745741Y-65339771D02*
X114602884Y-65339771D01*
X115364789Y-65339771D02*
X115364789Y-66339771D01*
X115364789Y-66054057D02*
X115412408Y-66196914D01*
X115412408Y-66196914D02*
X115460027Y-66268342D01*
X115460027Y-66268342D02*
X115555265Y-66339771D01*
X115555265Y-66339771D02*
X115650503Y-66339771D01*
X116745742Y-65339771D02*
X116745742Y-66339771D01*
X116745742Y-66054057D02*
X116793361Y-66196914D01*
X116793361Y-66196914D02*
X116840980Y-66268342D01*
X116840980Y-66268342D02*
X116936218Y-66339771D01*
X116936218Y-66339771D02*
X117031456Y-66339771D01*
X117745742Y-65411200D02*
X117650504Y-65339771D01*
X117650504Y-65339771D02*
X117460028Y-65339771D01*
X117460028Y-65339771D02*
X117364790Y-65411200D01*
X117364790Y-65411200D02*
X117317171Y-65554057D01*
X117317171Y-65554057D02*
X117317171Y-66125485D01*
X117317171Y-66125485D02*
X117364790Y-66268342D01*
X117364790Y-66268342D02*
X117460028Y-66339771D01*
X117460028Y-66339771D02*
X117650504Y-66339771D01*
X117650504Y-66339771D02*
X117745742Y-66268342D01*
X117745742Y-66268342D02*
X117793361Y-66125485D01*
X117793361Y-66125485D02*
X117793361Y-65982628D01*
X117793361Y-65982628D02*
X117317171Y-65839771D01*
X118126695Y-66339771D02*
X118364790Y-65339771D01*
X118364790Y-65339771D02*
X118602885Y-66339771D01*
X118983838Y-65482628D02*
X119031457Y-65411200D01*
X119031457Y-65411200D02*
X118983838Y-65339771D01*
X118983838Y-65339771D02*
X118936219Y-65411200D01*
X118936219Y-65411200D02*
X118983838Y-65482628D01*
X118983838Y-65482628D02*
X118983838Y-65339771D01*
X120174314Y-66696914D02*
X120221933Y-66768342D01*
X120221933Y-66768342D02*
X120317171Y-66839771D01*
X120317171Y-66839771D02*
X120555266Y-66839771D01*
X120555266Y-66839771D02*
X120650504Y-66768342D01*
X120650504Y-66768342D02*
X120698123Y-66696914D01*
X120698123Y-66696914D02*
X120745742Y-66554057D01*
X120745742Y-66554057D02*
X120745742Y-66411200D01*
X120745742Y-66411200D02*
X120698123Y-66196914D01*
X120698123Y-66196914D02*
X120126695Y-65339771D01*
X120126695Y-65339771D02*
X120745742Y-65339771D01*
X121174314Y-65482628D02*
X121221933Y-65411200D01*
X121221933Y-65411200D02*
X121174314Y-65339771D01*
X121174314Y-65339771D02*
X121126695Y-65411200D01*
X121126695Y-65411200D02*
X121174314Y-65482628D01*
X121174314Y-65482628D02*
X121174314Y-65339771D01*
X121840980Y-66839771D02*
X121936218Y-66839771D01*
X121936218Y-66839771D02*
X122031456Y-66768342D01*
X122031456Y-66768342D02*
X122079075Y-66696914D01*
X122079075Y-66696914D02*
X122126694Y-66554057D01*
X122126694Y-66554057D02*
X122174313Y-66268342D01*
X122174313Y-66268342D02*
X122174313Y-65911200D01*
X122174313Y-65911200D02*
X122126694Y-65625485D01*
X122126694Y-65625485D02*
X122079075Y-65482628D01*
X122079075Y-65482628D02*
X122031456Y-65411200D01*
X122031456Y-65411200D02*
X121936218Y-65339771D01*
X121936218Y-65339771D02*
X121840980Y-65339771D01*
X121840980Y-65339771D02*
X121745742Y-65411200D01*
X121745742Y-65411200D02*
X121698123Y-65482628D01*
X121698123Y-65482628D02*
X121650504Y-65625485D01*
X121650504Y-65625485D02*
X121602885Y-65911200D01*
X121602885Y-65911200D02*
X121602885Y-66268342D01*
X121602885Y-66268342D02*
X121650504Y-66554057D01*
X121650504Y-66554057D02*
X121698123Y-66696914D01*
X121698123Y-66696914D02*
X121745742Y-66768342D01*
X121745742Y-66768342D02*
X121840980Y-66839771D01*
M02*
