%TF.GenerationSoftware,KiCad,Pcbnew,8.0.5-8.0.5-0~ubuntu24.04.1*%
%TF.CreationDate,2024-10-19T16:32:38+02:00*%
%TF.ProjectId,BmsMonitor,426d734d-6f6e-4697-946f-722e6b696361,rev?*%
%TF.SameCoordinates,Original*%
%TF.FileFunction,Soldermask,Top*%
%TF.FilePolarity,Negative*%
%FSLAX46Y46*%
G04 Gerber Fmt 4.6, Leading zero omitted, Abs format (unit mm)*
G04 Created by KiCad (PCBNEW 8.0.5-8.0.5-0~ubuntu24.04.1) date 2024-10-19 16:32:38*
%MOMM*%
%LPD*%
G01*
G04 APERTURE LIST*
G04 Aperture macros list*
%AMFreePoly0*
4,1,5,1.500000,-1.000000,-1.500000,-1.000000,-1.500000,1.000000,1.500000,1.000000,1.500000,-1.000000,1.500000,-1.000000,$1*%
G04 Aperture macros list end*
%ADD10R,1.700000X1.700000*%
%ADD11O,1.700000X1.700000*%
%ADD12FreePoly0,90.000000*%
%ADD13C,1.600000*%
%ADD14R,3.000000X3.000000*%
%ADD15C,3.000000*%
%ADD16R,1.200000X2.000000*%
%ADD17O,1.200000X2.000000*%
%ADD18C,2.000000*%
G04 APERTURE END LIST*
D10*
%TO.C,J1*%
X99822000Y-87376000D03*
D11*
X99822000Y-89916000D03*
X99822000Y-92456000D03*
X99822000Y-94996000D03*
%TD*%
D12*
%TO.C,U1*%
X102997000Y-102666800D03*
X105562400Y-102666800D03*
X113131600Y-102692200D03*
X115722400Y-102666800D03*
X115747800Y-79832200D03*
X113157000Y-79857600D03*
X105587800Y-79832200D03*
X103022400Y-79832200D03*
%TD*%
D13*
%TO.C,R2*%
X177769600Y-68580000D03*
X172689600Y-68580000D03*
%TD*%
D10*
%TO.C,U5*%
X194183000Y-74820000D03*
D11*
X194183000Y-77360000D03*
X194183000Y-79900000D03*
X194183000Y-82440000D03*
X194183000Y-84980000D03*
X194183000Y-87520000D03*
X194183000Y-90060000D03*
X194183000Y-92600000D03*
X194183000Y-95140000D03*
X194183000Y-97680000D03*
X194183000Y-100220000D03*
X194183000Y-102760000D03*
X194183000Y-105300000D03*
X194183000Y-107840000D03*
%TD*%
D13*
%TO.C,R6*%
X158140400Y-68402200D03*
X163220400Y-68402200D03*
%TD*%
%TO.C,R3*%
X157353000Y-109392800D03*
X157353000Y-104312800D03*
%TD*%
D10*
%TO.C,J2*%
X180314600Y-99034600D03*
D11*
X177774600Y-99034600D03*
X175234600Y-99034600D03*
X172694600Y-99034600D03*
X170154600Y-99034600D03*
X167614600Y-99034600D03*
X165074600Y-99034600D03*
X162534600Y-99034600D03*
X159994600Y-99034600D03*
X157454600Y-99034600D03*
X154914600Y-99034600D03*
X152374600Y-99034600D03*
X149834600Y-99034600D03*
X147294600Y-99034600D03*
X144754600Y-99034600D03*
X142214600Y-99034600D03*
X139674600Y-99034600D03*
X137134600Y-99034600D03*
X134594600Y-99034600D03*
X132054600Y-99034600D03*
X129514600Y-99034600D03*
X126974600Y-99034600D03*
%TD*%
D14*
%TO.C,J3*%
X117830600Y-111353600D03*
D15*
X122910600Y-111353600D03*
X127990600Y-111353600D03*
X133070600Y-111353600D03*
%TD*%
D16*
%TO.C,U2*%
X180340000Y-73761600D03*
D17*
X177800000Y-73761600D03*
X175260000Y-73761600D03*
X172720000Y-73761600D03*
X170180000Y-73761600D03*
X167640000Y-73761600D03*
X165100000Y-73761600D03*
X162560000Y-73761600D03*
X160020000Y-73761600D03*
X157480000Y-73761600D03*
X154940000Y-73761600D03*
X152400000Y-73761600D03*
X149860000Y-73761600D03*
X147320000Y-73761600D03*
X144780000Y-73761600D03*
X142240000Y-73761600D03*
X139700000Y-73761600D03*
X137160000Y-73761600D03*
X134620000Y-73761600D03*
X132082720Y-73757920D03*
X129542720Y-73757920D03*
X127002720Y-73757920D03*
X127000000Y-96621600D03*
X129540000Y-96621600D03*
X132080000Y-96621600D03*
X134620000Y-96621600D03*
X137160000Y-96621600D03*
X139700000Y-96621600D03*
X142240000Y-96621600D03*
X144780000Y-96621600D03*
X147320000Y-96621600D03*
X149860000Y-96621600D03*
X152400000Y-96621600D03*
X154940000Y-96621600D03*
X157480000Y-96621600D03*
X160020000Y-96621600D03*
X162560000Y-96621600D03*
X165100000Y-96621600D03*
X167640000Y-96621600D03*
X170180000Y-96621600D03*
X172720000Y-96621600D03*
X175260000Y-96621600D03*
X177800000Y-96621600D03*
X180340000Y-96621600D03*
%TD*%
D13*
%TO.C,R1*%
X147391200Y-68580000D03*
X142311200Y-68580000D03*
%TD*%
D18*
%TO.C,U3*%
X180198700Y-104482900D03*
X180147900Y-106997500D03*
X180122500Y-109562900D03*
X180147900Y-112153700D03*
X161047100Y-109588300D03*
X161021700Y-106997500D03*
%TD*%
D13*
%TO.C,R4*%
X139014200Y-109392800D03*
X139014200Y-104312800D03*
%TD*%
%TO.C,R5*%
X152146000Y-109316600D03*
X152146000Y-104236600D03*
%TD*%
M02*
