M48
; DRILL file {KiCad 8.0.5-8.0.5-0~ubuntu24.04.1} date 2024-10-17T18:28:55+0200
; FORMAT={-:-/ absolute / inch / decimal}
; #@! TF.CreationDate,2024-10-17T18:28:55+02:00
; #@! TF.GenerationSoftware,Kicad,Pcbnew,8.0.5-8.0.5-0~ubuntu24.04.1
; #@! TF.FileFunction,Plated,1,2,PTH
FMAT,2
INCH
; #@! TA.AperFunction,Plated,PTH,ViaDrill
T1C0.0118
; #@! TA.AperFunction,Plated,PTH,ComponentDrill
T2C0.0300
; #@! TA.AperFunction,Plated,PTH,ComponentDrill
T3C0.0315
; #@! TA.AperFunction,Plated,PTH,ComponentDrill
T4C0.0394
; #@! TA.AperFunction,Plated,PTH,ComponentDrill
T5C0.0598
%
G90
G05
T1
X5.85Y-3.47
X5.85Y-3.632
X6.487Y-3.141
X6.595Y-2.717
X6.595Y-2.809
X6.748Y-3.142
X7.212Y-3.042
X7.263Y-2.959
X7.263Y-4.485
X7.339Y-4.213
X7.344Y-2.872
X7.4Y-3.0457
X7.4652Y-4.1529
X7.4675Y-3.8465
T2
X4.007Y-4.042
X4.008Y-3.143
X4.108Y-4.042
X4.109Y-3.143
X4.406Y-4.043
X4.407Y-3.144
X4.508Y-4.042
X4.509Y-3.143
X6.3394Y-4.2125
X6.3404Y-4.3145
X7.0914Y-4.3135
X7.0924Y-4.2125
X7.0924Y-4.4155
X7.0944Y-4.1135
T3
X5.0Y-3.804
X5.0001Y-2.9039
X5.1Y-3.804
X5.1001Y-2.9039
X5.2Y-3.804
X5.2001Y-2.9039
X5.3Y-2.904
X5.3Y-3.804
X5.4Y-2.904
X5.4Y-3.804
X5.473Y-4.1068
X5.473Y-4.3068
X5.5Y-2.904
X5.5Y-3.804
X5.6Y-2.904
X5.6Y-3.804
X5.6028Y-2.7
X5.7Y-2.904
X5.7Y-3.804
X5.8Y-2.904
X5.8Y-3.804
X5.8028Y-2.7
X5.9Y-2.904
X5.9Y-3.804
X5.99Y-4.1038
X5.99Y-4.3038
X6.0Y-2.904
X6.0Y-3.804
X6.1Y-2.904
X6.1Y-3.804
X6.195Y-4.1068
X6.195Y-4.3068
X6.2Y-2.904
X6.2Y-3.804
X6.226Y-2.693
X6.3Y-2.904
X6.3Y-3.804
X6.4Y-2.904
X6.4Y-3.804
X6.426Y-2.693
X6.5Y-2.904
X6.5Y-3.804
X6.6Y-2.904
X6.6Y-3.804
X6.7Y-2.904
X6.7Y-3.804
X6.7988Y-2.7
X6.8Y-2.904
X6.8Y-3.804
X6.9Y-2.904
X6.9Y-3.804
X6.9988Y-2.7
X7.0Y-2.904
X7.0Y-3.804
X7.1Y-2.904
X7.1Y-3.804
T4
X4.999Y-3.899
X5.099Y-3.899
X5.199Y-3.899
X5.299Y-3.899
X5.399Y-3.899
X5.499Y-3.899
X5.599Y-3.899
X5.699Y-3.899
X5.799Y-3.899
X5.899Y-3.899
X5.999Y-3.899
X6.099Y-3.899
X6.199Y-3.899
X6.299Y-3.899
X6.399Y-3.899
X6.499Y-3.899
X6.599Y-3.899
X6.699Y-3.899
X6.799Y-3.899
X6.899Y-3.899
X6.999Y-3.899
X7.099Y-3.899
X7.6165Y-2.9457
X7.6165Y-3.0457
X7.6165Y-3.1457
X7.6165Y-3.2457
X7.6165Y-3.3457
X7.6165Y-3.4457
X7.6165Y-3.5457
X7.6165Y-3.6457
X7.6165Y-3.7457
X7.6165Y-3.8457
X7.6165Y-3.9457
X7.6165Y-4.0457
X7.6165Y-4.1457
X7.6165Y-4.2457
T5
X4.639Y-4.384
X4.839Y-4.384
X5.039Y-4.384
X5.239Y-4.384
M30
