M48
; DRILL file {KiCad 8.0.6-8.0.6-0~ubuntu24.04.1} date 2024-11-03T20:08:50+0100
; FORMAT={-:-/ absolute / inch / decimal}
; #@! TF.CreationDate,2024-11-03T20:08:50+01:00
; #@! TF.GenerationSoftware,Kicad,Pcbnew,8.0.6-8.0.6-0~ubuntu24.04.1
; #@! TF.FileFunction,Plated,1,2,PTH
FMAT,2
INCH
; #@! TA.AperFunction,Plated,PTH,ViaDrill
T1C0.0118
; #@! TA.AperFunction,Plated,PTH,ComponentDrill
T2C0.0300
; #@! TA.AperFunction,Plated,PTH,ComponentDrill
T3C0.0315
; #@! TA.AperFunction,Plated,PTH,ComponentDrill
T4C0.0394
; #@! TA.AperFunction,Plated,PTH,ComponentDrill
T5C0.0472
; #@! TA.AperFunction,Plated,PTH,ComponentDrill
T6C0.0598
%
G90
G05
T1
X5.37Y-3.685
X5.4Y-3.137
X5.498Y-3.124
X5.5Y-3.41
X5.645Y-3.57
X5.645Y-3.695
X6.487Y-3.141
X6.595Y-4.005
X6.748Y-3.142
X6.94Y-4.005
X7.16Y-4.532
X7.175Y-2.93
X7.185Y-3.0457
X7.315Y-4.415
X7.344Y-2.945
X7.395Y-3.105
X7.395Y-4.245
X7.4445Y-3.445
X7.445Y-4.045
X7.49Y-3.5457
X7.49Y-3.845
X7.54Y-3.7457
X7.54Y-4.1457
T2
X4.063Y-3.804
X4.064Y-2.905
X4.164Y-3.804
X4.165Y-2.905
X4.462Y-3.805
X4.463Y-2.906
X4.564Y-3.804
X4.565Y-2.905
X6.3394Y-4.2125
X6.3404Y-4.3145
X7.0914Y-4.3135
X7.0924Y-4.2125
X7.0924Y-4.4155
X7.0944Y-4.1135
T3
X5.0Y-3.804
X5.0001Y-2.9039
X5.1Y-3.804
X5.1001Y-2.9039
X5.2Y-3.804
X5.2001Y-2.9039
X5.2298Y-2.765
X5.3Y-2.904
X5.3Y-3.804
X5.4Y-2.904
X5.4Y-3.804
X5.4298Y-2.765
X5.473Y-4.33
X5.473Y-4.53
X5.5Y-2.904
X5.5Y-3.804
X5.5998Y-2.63
X5.5998Y-2.765
X5.6Y-2.904
X5.6Y-3.804
X5.7Y-2.904
X5.7Y-3.804
X5.715Y-4.33
X5.715Y-4.53
X5.7998Y-2.63
X5.7998Y-2.765
X5.8Y-2.904
X5.8Y-3.804
X5.9Y-2.904
X5.9Y-3.804
X6.0Y-2.904
X6.0Y-3.804
X6.1Y-2.904
X6.1Y-3.804
X6.2Y-2.904
X6.2Y-3.804
X6.226Y-2.693
X6.3Y-2.904
X6.3Y-3.804
X6.4Y-2.904
X6.4Y-3.804
X6.426Y-2.693
X6.5Y-2.904
X6.5Y-3.804
X6.6Y-2.904
X6.6Y-3.804
X6.7Y-2.904
X6.7Y-3.804
X6.8Y-2.904
X6.8Y-3.804
X6.9Y-2.904
X6.9Y-3.804
X7.0Y-2.904
X7.0Y-3.804
X7.1Y-2.904
X7.1Y-3.804
T4
X3.93Y-3.44
X3.93Y-3.54
X3.93Y-3.64
X3.93Y-3.74
X4.999Y-3.899
X5.099Y-3.899
X5.199Y-3.899
X5.299Y-3.899
X5.399Y-3.899
X5.499Y-3.899
X5.599Y-3.899
X5.699Y-3.899
X5.799Y-3.899
X5.899Y-3.899
X5.999Y-3.899
X6.099Y-3.899
X6.199Y-3.899
X6.299Y-3.899
X6.399Y-3.899
X6.499Y-3.899
X6.599Y-3.899
X6.699Y-3.899
X6.799Y-3.899
X6.899Y-3.899
X6.999Y-3.899
X7.099Y-3.899
X7.645Y-2.9457
X7.645Y-3.0457
X7.645Y-3.1457
X7.645Y-3.2457
X7.645Y-3.3457
X7.645Y-3.4457
X7.645Y-3.5457
X7.645Y-3.6457
X7.645Y-3.7457
X7.645Y-3.8457
X7.645Y-3.9457
X7.645Y-4.0457
X7.645Y-4.1457
X7.645Y-4.2457
T5
X4.2916Y-4.2684
X4.39Y-3.9712
X4.39Y-4.17
X4.39Y-4.2684
X4.39Y-4.3669
X4.4884Y-4.2684
T6
X4.639Y-4.384
X4.839Y-4.384
X5.039Y-4.384
X5.239Y-4.384
M30
