M48
; DRILL file {KiCad 8.0.1-8.0.1-1~ubuntu22.04.1} date 2024-04-24T21:29:17+0200
; FORMAT={-:-/ absolute / inch / decimal}
; #@! TF.CreationDate,2024-04-24T21:29:17+02:00
; #@! TF.GenerationSoftware,Kicad,Pcbnew,8.0.1-8.0.1-1~ubuntu22.04.1
; #@! TF.FileFunction,Plated,1,2,PTH
FMAT,2
INCH
; #@! TA.AperFunction,Plated,PTH,ComponentDrill
T1C0.0300
; #@! TA.AperFunction,Plated,PTH,ComponentDrill
T2C0.0315
; #@! TA.AperFunction,Plated,PTH,ComponentDrill
T3C0.0394
; #@! TA.AperFunction,Plated,PTH,ComponentDrill
T4C0.0598
%
G90
G05
T1
X5.4161Y-4.3366
X5.4161Y-4.4376
X5.4161Y-4.8376
X5.4171Y-4.7356
X5.7278Y-2.3631
X5.8268Y-2.3651
X5.8268Y-3.1181
X5.9278Y-2.3661
X5.9288Y-3.1171
X6.0298Y-2.3651
X6.3151Y-4.3356
X6.3151Y-4.4366
X6.3151Y-4.8366
X6.3161Y-4.7346
T2
X5.4132Y-3.8668
X5.4132Y-3.9668
X5.4132Y-4.0668
X5.4134Y-1.9669
X5.4134Y-2.0669
X5.4134Y-2.1669
X5.4134Y-2.2669
X5.4134Y-2.3669
X5.4134Y-2.4669
X5.4134Y-2.5669
X5.4134Y-2.6669
X5.4134Y-2.7669
X5.4134Y-2.8669
X5.4134Y-2.9669
X5.4134Y-3.0669
X5.4134Y-3.1669
X5.4134Y-3.2669
X5.4134Y-3.3669
X5.4134Y-3.4669
X5.4134Y-3.5669
X5.4134Y-3.6669
X5.4134Y-3.7669
X6.3134Y-1.9669
X6.3134Y-2.0669
X6.3134Y-2.1669
X6.3134Y-2.2669
X6.3134Y-2.3669
X6.3134Y-2.4669
X6.3134Y-2.5669
X6.3134Y-2.6669
X6.3134Y-2.7669
X6.3134Y-2.8669
X6.3134Y-2.9669
X6.3134Y-3.0669
X6.3134Y-3.1669
X6.3134Y-3.2669
X6.3134Y-3.3669
X6.3134Y-3.4669
X6.3134Y-3.5669
X6.3134Y-3.6669
X6.3134Y-3.7669
X6.3134Y-3.8669
X6.3134Y-3.9669
X6.3134Y-4.0669
T3
X4.9213Y-1.9685
X4.9213Y-2.0685
X4.9213Y-2.1685
X4.9213Y-2.2685
X4.9213Y-2.3685
X4.9213Y-2.4685
X4.9213Y-2.5685
X4.9213Y-2.6685
X4.9213Y-2.7685
X4.9213Y-2.8685
X4.9213Y-3.0283
X4.9213Y-3.1283
X4.9213Y-3.2283
X4.9213Y-3.3283
X4.9213Y-3.4283
X4.9213Y-3.5283
X4.9213Y-3.6283
X4.9213Y-3.7283
X5.1378Y-1.9669
X5.1378Y-2.0669
X5.1378Y-2.1669
X5.1378Y-2.2669
X5.1378Y-2.3669
X5.1378Y-2.4669
X5.1378Y-2.5669
X5.1378Y-2.6669
X5.1378Y-2.7669
X5.1378Y-2.8669
X5.1378Y-2.9669
X5.1378Y-3.0669
X5.1378Y-3.1669
X5.1378Y-3.2669
X5.1378Y-3.3669
X5.1378Y-3.4669
X5.1378Y-3.5669
X5.1378Y-3.6669
X5.1378Y-3.7669
X5.1378Y-3.8669
X5.1378Y-3.9669
X5.1378Y-4.0669
X5.7193Y-3.8273
X5.7203Y-3.7273
X5.7268Y-3.9764
X5.7283Y-3.563
X5.8183Y-3.7273
X5.8193Y-3.8273
X5.8268Y-3.9764
X5.8283Y-3.563
X5.9193Y-3.8273
X5.9203Y-3.7283
X5.9268Y-3.9764
X5.9283Y-3.563
X6.5945Y-1.9685
X6.5945Y-2.0685
X6.5945Y-2.1685
X6.5945Y-2.2685
X6.5945Y-2.3685
X6.5945Y-2.4685
X6.5945Y-2.5685
X6.5945Y-2.6685
X6.5945Y-2.7685
X6.5945Y-2.8685
X6.5945Y-2.9685
X6.5945Y-3.0685
X6.5945Y-3.1685
X6.5945Y-3.2685
X6.5945Y-3.3685
X6.5945Y-3.4685
X6.5945Y-3.5685
X6.5945Y-3.6685
X6.5945Y-3.7685
X6.5945Y-3.8685
X6.5945Y-3.9685
X6.5945Y-4.0685
X6.8213Y-2.3263
X6.8213Y-2.4263
X6.8213Y-2.5263
X6.8213Y-2.6263
X6.8213Y-2.7263
X6.8213Y-2.8263
X6.8213Y-2.9263
X6.8213Y-3.0263
X6.8213Y-3.2263
X6.8213Y-3.3263
X6.8213Y-3.4263
X6.8213Y-3.5263
X6.8213Y-3.6263
X6.8213Y-3.7263
T4
X6.9094Y-4.2079
X6.9094Y-4.4079
X6.9094Y-4.6079
X6.9094Y-4.8079
M30
