%TF.GenerationSoftware,KiCad,Pcbnew,8.0.1-8.0.1-1~ubuntu22.04.1*%
%TF.CreationDate,2024-04-24T21:29:24+02:00*%
%TF.ProjectId,BmsMonitor,426d734d-6f6e-4697-946f-722e6b696361,rev?*%
%TF.SameCoordinates,Original*%
%TF.FileFunction,Soldermask,Bot*%
%TF.FilePolarity,Negative*%
%FSLAX46Y46*%
G04 Gerber Fmt 4.6, Leading zero omitted, Abs format (unit mm)*
G04 Created by KiCad (PCBNEW 8.0.1-8.0.1-1~ubuntu22.04.1) date 2024-04-24 21:29:24*
%MOMM*%
%LPD*%
G01*
G04 APERTURE LIST*
G04 Aperture macros list*
%AMFreePoly0*
4,1,5,1.500000,-1.000000,-1.500000,-1.000000,-1.500000,1.000000,1.500000,1.000000,1.500000,-1.000000,1.500000,-1.000000,$1*%
G04 Aperture macros list end*
%ADD10R,1.700000X1.700000*%
%ADD11O,1.700000X1.700000*%
%ADD12R,3.000000X3.000000*%
%ADD13C,3.000000*%
%ADD14R,2.000000X1.200000*%
%ADD15O,2.000000X1.200000*%
%ADD16C,2.000000*%
%ADD17FreePoly0,180.000000*%
%ADD18R,1.600000X1.600000*%
%ADD19O,1.600000X1.600000*%
G04 APERTURE END LIST*
D10*
%TO.C,J5*%
X167500000Y-50000000D03*
D11*
X167500000Y-52540000D03*
X167500000Y-55080000D03*
X167500000Y-57620000D03*
X167500000Y-60160000D03*
X167500000Y-62700000D03*
X167500000Y-65240000D03*
X167500000Y-67780000D03*
X167500000Y-70320000D03*
X167500000Y-72860000D03*
X167500000Y-75400000D03*
X167500000Y-77940000D03*
X167500000Y-80480000D03*
X167500000Y-83020000D03*
X167500000Y-85560000D03*
X167500000Y-88100000D03*
X167500000Y-90640000D03*
X167500000Y-93180000D03*
X167500000Y-95720000D03*
X167500000Y-98260000D03*
X167500000Y-100800000D03*
X167500000Y-103340000D03*
%TD*%
D12*
%TO.C,J3*%
X175500000Y-106880000D03*
D13*
X175500000Y-111960000D03*
X175500000Y-117040000D03*
X175500000Y-122120000D03*
%TD*%
D14*
%TO.C,U2*%
X137500000Y-49960000D03*
D15*
X137500000Y-52500000D03*
X137500000Y-55040000D03*
X137500000Y-57580000D03*
X137500000Y-60120000D03*
X137500000Y-62660000D03*
X137500000Y-65200000D03*
X137500000Y-67740000D03*
X137500000Y-70280000D03*
X137500000Y-72820000D03*
X137500000Y-75360000D03*
X137500000Y-77900000D03*
X137500000Y-80440000D03*
X137500000Y-82980000D03*
X137500000Y-85520000D03*
X137500000Y-88060000D03*
X137500000Y-90600000D03*
X137500000Y-93140000D03*
X137500000Y-95680000D03*
X137496320Y-98217280D03*
X137496320Y-100757280D03*
X137496320Y-103297280D03*
X160360000Y-103300000D03*
X160360000Y-100760000D03*
X160360000Y-98220000D03*
X160360000Y-95680000D03*
X160360000Y-93140000D03*
X160360000Y-90600000D03*
X160360000Y-88060000D03*
X160360000Y-85520000D03*
X160360000Y-82980000D03*
X160360000Y-80440000D03*
X160360000Y-77900000D03*
X160360000Y-75360000D03*
X160360000Y-72820000D03*
X160360000Y-70280000D03*
X160360000Y-67740000D03*
X160360000Y-65200000D03*
X160360000Y-62660000D03*
X160360000Y-60120000D03*
X160360000Y-57580000D03*
X160360000Y-55040000D03*
X160360000Y-52500000D03*
X160360000Y-49960000D03*
%TD*%
D16*
%TO.C,U3*%
X145485400Y-60023800D03*
X148000000Y-60074600D03*
X150565400Y-60100000D03*
X153156200Y-60074600D03*
X150590800Y-79175400D03*
X148000000Y-79200800D03*
%TD*%
D10*
%TO.C,J4*%
X130500000Y-49960000D03*
D11*
X130500000Y-52500000D03*
X130500000Y-55040000D03*
X130500000Y-57580000D03*
X130500000Y-60120000D03*
X130500000Y-62660000D03*
X130500000Y-65200000D03*
X130500000Y-67740000D03*
X130500000Y-70280000D03*
X130500000Y-72820000D03*
X130500000Y-75360000D03*
X130500000Y-77900000D03*
X130500000Y-80440000D03*
X130500000Y-82980000D03*
X130500000Y-85520000D03*
X130500000Y-88060000D03*
X130500000Y-90600000D03*
X130500000Y-93140000D03*
X130500000Y-95680000D03*
X130500000Y-98220000D03*
X130500000Y-100760000D03*
X130500000Y-103300000D03*
%TD*%
D17*
%TO.C,U1*%
X160404600Y-110124600D03*
X160404600Y-112690000D03*
X160430000Y-120259200D03*
X160404600Y-122850000D03*
X137570000Y-122875400D03*
X137595400Y-120284600D03*
X137570000Y-112715400D03*
X137570000Y-110150000D03*
%TD*%
D18*
%TO.C,U4*%
X173260000Y-59089200D03*
D19*
X173260000Y-61629200D03*
X173260000Y-64169200D03*
X173260000Y-66709200D03*
X173260000Y-69249200D03*
X173260000Y-71789200D03*
X173260000Y-74329200D03*
X173260000Y-76869200D03*
X173260000Y-81949200D03*
X173260000Y-84489200D03*
X173260000Y-87029200D03*
X173260000Y-89569200D03*
X173260000Y-92109200D03*
X173260000Y-94649200D03*
X125000000Y-94700000D03*
X125000000Y-92160000D03*
X125000000Y-89620000D03*
X125000000Y-87080000D03*
X125000000Y-84540000D03*
X125000000Y-82000000D03*
X125000000Y-79460000D03*
X125000000Y-76920000D03*
X125000000Y-72860000D03*
X125000000Y-70320000D03*
X125000000Y-67780000D03*
X125000000Y-65240000D03*
X125000000Y-62700000D03*
X125000000Y-60160000D03*
X125000000Y-57620000D03*
X125000000Y-55080000D03*
X125000000Y-52540000D03*
X125000000Y-50000000D03*
X150349200Y-97214600D03*
X147809200Y-97214600D03*
X145269200Y-97214600D03*
X150374600Y-94700000D03*
X147783800Y-94674600D03*
X145294600Y-94674600D03*
%TD*%
D10*
%TO.C,J2*%
X150580000Y-90500000D03*
D11*
X148040000Y-90500000D03*
X145500000Y-90500000D03*
%TD*%
D10*
%TO.C,J1*%
X150540000Y-101000000D03*
D11*
X148000000Y-101000000D03*
X145460000Y-101000000D03*
%TD*%
M02*
